G04 #@! TF.GenerationSoftware,KiCad,Pcbnew,(5.1.10-1-10_14)*
G04 #@! TF.CreationDate,2021-09-10T00:01:11+12:00*
G04 #@! TF.ProjectId,filter,66696c74-6572-42e6-9b69-6361645f7063,rev?*
G04 #@! TF.SameCoordinates,Original*
G04 #@! TF.FileFunction,Copper,L1,Top*
G04 #@! TF.FilePolarity,Positive*
%FSLAX46Y46*%
G04 Gerber Fmt 4.6, Leading zero omitted, Abs format (unit mm)*
G04 Created by KiCad (PCBNEW (5.1.10-1-10_14)) date 2021-09-10 00:01:11*
%MOMM*%
%LPD*%
G01*
G04 APERTURE LIST*
G04 #@! TA.AperFunction,ComponentPad*
%ADD10C,5.000000*%
G04 #@! TD*
G04 #@! TA.AperFunction,ComponentPad*
%ADD11C,3.500000*%
G04 #@! TD*
G04 #@! TA.AperFunction,ComponentPad*
%ADD12C,1.600000*%
G04 #@! TD*
G04 #@! TA.AperFunction,ComponentPad*
%ADD13C,2.400000*%
G04 #@! TD*
G04 #@! TA.AperFunction,ComponentPad*
%ADD14R,2.400000X2.400000*%
G04 #@! TD*
G04 #@! TA.AperFunction,ComponentPad*
%ADD15C,4.400000*%
G04 #@! TD*
G04 #@! TA.AperFunction,Conductor*
%ADD16C,3.000000*%
G04 #@! TD*
G04 APERTURE END LIST*
D10*
X128574800Y-102933500D03*
D11*
X136574800Y-84183500D03*
X120574800Y-84183500D03*
X120574800Y-121683500D03*
X136574800Y-121683500D03*
D12*
X147320000Y-125262000D03*
X147320000Y-127762000D03*
X147370800Y-78105000D03*
X147370800Y-80605000D03*
D13*
X106603800Y-70225800D03*
D14*
X106603800Y-66725800D03*
D15*
X158597600Y-127762000D03*
X186537600Y-127762000D03*
X158597600Y-78105000D03*
X186537600Y-78105000D03*
D14*
X196545200Y-106433500D03*
D13*
X196545200Y-102933500D03*
X196545200Y-99433500D03*
D16*
X128574800Y-102933500D02*
X143281400Y-117640100D01*
X158597600Y-127762000D02*
X147320000Y-127762000D01*
X143281400Y-124923402D02*
X143281400Y-117640100D01*
X146119999Y-127762001D02*
X143281400Y-124923402D01*
X147320000Y-127762000D02*
X146119999Y-127762001D01*
X136574800Y-121683500D02*
X120574800Y-121683500D01*
X120574800Y-84183500D02*
X120574800Y-121683500D01*
X136574800Y-84183500D02*
X120574800Y-84183500D01*
X106617100Y-70225800D02*
X120574800Y-84183500D01*
X106603800Y-70225800D02*
X106617100Y-70225800D01*
X158597600Y-78105000D02*
X147370800Y-78105000D01*
X142653301Y-78104999D02*
X147370800Y-78104999D01*
X136574800Y-84183500D02*
X142653301Y-78104999D01*
X196545200Y-117754400D02*
X186537600Y-127762000D01*
X196545200Y-117754400D02*
X196545200Y-106433500D01*
X196545200Y-88112600D02*
X186537600Y-78105000D01*
X196545200Y-88112600D02*
X196545200Y-99433500D01*
M02*
