%FSLAX45Y45*%
G04 Gerber Fmt 4.5, Leading zero omitted, Abs format (unit mm)*
G04 Created by KiCad (PCBNEW (5.1.10-1-10_14)) date 2021-09-10 00:03:38*
%MOMM*%
%LPD*%
G01*
G04 APERTURE LIST*
%TA.AperFunction,Profile*%
%ADD10C,0.050000*%
%TD*%
%ADD11C,0.200000*%
%ADD12C,0.300000*%
G04 APERTURE END LIST*
D10*
X20154900Y-14770100D02*
G75*
G02*
X19692620Y-15232380I-462280J0D01*
G01*
X10619740Y-15232380D02*
G75*
G02*
X10157460Y-14770100I0J462280D01*
G01*
X10157460Y-5697220D02*
G75*
G02*
X10619740Y-5234940I462280J0D01*
G01*
X19692620Y-5234940D02*
G75*
G02*
X20154900Y-5697220I0J-462280D01*
G01*
X10619740Y-15232380D02*
X19692620Y-15232380D01*
X10157460Y-5697220D02*
X10157460Y-14770100D01*
X19692620Y-5234940D02*
X10619740Y-5234940D01*
X20154900Y-14770100D02*
X20154900Y-5697220D01*
D11*
X14692000Y-12486200D02*
X14772000Y-12566200D01*
X14772000Y-12486200D02*
X14692000Y-12566200D01*
X14692000Y-12736200D02*
X14772000Y-12816200D01*
X14772000Y-12736200D02*
X14692000Y-12816200D01*
X14697080Y-7770500D02*
X14777080Y-7850500D01*
X14777080Y-7770500D02*
X14697080Y-7850500D01*
X14697080Y-8020500D02*
X14777080Y-8100500D01*
X14777080Y-8020500D02*
X14697080Y-8100500D01*
X10720380Y-6672580D02*
G75*
G03*
X10720380Y-6672580I-60000J0D01*
G01*
X10720380Y-7022580D02*
G75*
G03*
X10720380Y-7022580I-60000J0D01*
G01*
X19714520Y-9943350D02*
G75*
G03*
X19714520Y-9943350I-60000J0D01*
G01*
X19714520Y-10293350D02*
G75*
G03*
X19714520Y-10293350I-60000J0D01*
G01*
X19714520Y-10643350D02*
G75*
G03*
X19714520Y-10643350I-60000J0D01*
G01*
X12057480Y-8333350D02*
X12057480Y-8503350D01*
X11972480Y-8418350D02*
X12142480Y-8418350D01*
X12057480Y-12083350D02*
X12057480Y-12253350D01*
X11972480Y-12168350D02*
X12142480Y-12168350D01*
X13657480Y-8333350D02*
X13657480Y-8503350D01*
X13572480Y-8418350D02*
X13742480Y-8418350D01*
X13657480Y-12083350D02*
X13657480Y-12253350D01*
X13572480Y-12168350D02*
X13742480Y-12168350D01*
X15937542Y-7888282D02*
X15937542Y-7732717D01*
X15781977Y-7732717D01*
X15781977Y-7888282D01*
X15937542Y-7888282D01*
X15937542Y-12853982D02*
X15937542Y-12698417D01*
X15781977Y-12698417D01*
X15781977Y-12853982D01*
X15937542Y-12853982D01*
X18731543Y-7888282D02*
X18731543Y-7732717D01*
X18575978Y-7732717D01*
X18575978Y-7888282D01*
X18731543Y-7888282D01*
X18731543Y-12853982D02*
X18731543Y-12698417D01*
X18575978Y-12698417D01*
X18575978Y-12853982D01*
X18731543Y-12853982D01*
X12857480Y-10418350D02*
X12982480Y-10293350D01*
X12857480Y-10168350D01*
X12732480Y-10293350D01*
X12857480Y-10418350D01*
D12*
X10441388Y-15700594D02*
X10441388Y-15400594D01*
X10512817Y-15400594D01*
X10555674Y-15414880D01*
X10584246Y-15443451D01*
X10598531Y-15472023D01*
X10612817Y-15529166D01*
X10612817Y-15572023D01*
X10598531Y-15629166D01*
X10584246Y-15657737D01*
X10555674Y-15686309D01*
X10512817Y-15700594D01*
X10441388Y-15700594D01*
X10741388Y-15700594D02*
X10741388Y-15500594D01*
X10741388Y-15557737D02*
X10755674Y-15529166D01*
X10769960Y-15514880D01*
X10798531Y-15500594D01*
X10827103Y-15500594D01*
X10927103Y-15700594D02*
X10927103Y-15500594D01*
X10927103Y-15400594D02*
X10912817Y-15414880D01*
X10927103Y-15429166D01*
X10941388Y-15414880D01*
X10927103Y-15400594D01*
X10927103Y-15429166D01*
X11112817Y-15700594D02*
X11084246Y-15686309D01*
X11069960Y-15657737D01*
X11069960Y-15400594D01*
X11269960Y-15700594D02*
X11241388Y-15686309D01*
X11227103Y-15657737D01*
X11227103Y-15400594D01*
X11612817Y-15700594D02*
X11612817Y-15400594D01*
X11712817Y-15614880D01*
X11812817Y-15400594D01*
X11812817Y-15700594D01*
X12084246Y-15700594D02*
X12084246Y-15543451D01*
X12069960Y-15514880D01*
X12041388Y-15500594D01*
X11984246Y-15500594D01*
X11955674Y-15514880D01*
X12084246Y-15686309D02*
X12055674Y-15700594D01*
X11984246Y-15700594D01*
X11955674Y-15686309D01*
X11941388Y-15657737D01*
X11941388Y-15629166D01*
X11955674Y-15600594D01*
X11984246Y-15586309D01*
X12055674Y-15586309D01*
X12084246Y-15572023D01*
X12227103Y-15500594D02*
X12227103Y-15800594D01*
X12227103Y-15514880D02*
X12255674Y-15500594D01*
X12312817Y-15500594D01*
X12341388Y-15514880D01*
X12355674Y-15529166D01*
X12369960Y-15557737D01*
X12369960Y-15643451D01*
X12355674Y-15672023D01*
X12341388Y-15686309D01*
X12312817Y-15700594D01*
X12255674Y-15700594D01*
X12227103Y-15686309D01*
X12498531Y-15672023D02*
X12512817Y-15686309D01*
X12498531Y-15700594D01*
X12484246Y-15686309D01*
X12498531Y-15672023D01*
X12498531Y-15700594D01*
X12498531Y-15514880D02*
X12512817Y-15529166D01*
X12498531Y-15543451D01*
X12484246Y-15529166D01*
X12498531Y-15514880D01*
X12498531Y-15543451D01*
X10074960Y-16154880D02*
X10154960Y-16234880D01*
X10154960Y-16154880D02*
X10074960Y-16234880D01*
X10498531Y-16030594D02*
X10527103Y-16030594D01*
X10555674Y-16044880D01*
X10569960Y-16059166D01*
X10584246Y-16087737D01*
X10598531Y-16144880D01*
X10598531Y-16216309D01*
X10584246Y-16273451D01*
X10569960Y-16302023D01*
X10555674Y-16316309D01*
X10527103Y-16330594D01*
X10498531Y-16330594D01*
X10469960Y-16316309D01*
X10455674Y-16302023D01*
X10441388Y-16273451D01*
X10427103Y-16216309D01*
X10427103Y-16144880D01*
X10441388Y-16087737D01*
X10455674Y-16059166D01*
X10469960Y-16044880D01*
X10498531Y-16030594D01*
X10727103Y-16302023D02*
X10741388Y-16316309D01*
X10727103Y-16330594D01*
X10712817Y-16316309D01*
X10727103Y-16302023D01*
X10727103Y-16330594D01*
X10912817Y-16159166D02*
X10884246Y-16144880D01*
X10869960Y-16130594D01*
X10855674Y-16102023D01*
X10855674Y-16087737D01*
X10869960Y-16059166D01*
X10884246Y-16044880D01*
X10912817Y-16030594D01*
X10969960Y-16030594D01*
X10998531Y-16044880D01*
X11012817Y-16059166D01*
X11027103Y-16087737D01*
X11027103Y-16102023D01*
X11012817Y-16130594D01*
X10998531Y-16144880D01*
X10969960Y-16159166D01*
X10912817Y-16159166D01*
X10884246Y-16173451D01*
X10869960Y-16187737D01*
X10855674Y-16216309D01*
X10855674Y-16273451D01*
X10869960Y-16302023D01*
X10884246Y-16316309D01*
X10912817Y-16330594D01*
X10969960Y-16330594D01*
X10998531Y-16316309D01*
X11012817Y-16302023D01*
X11027103Y-16273451D01*
X11027103Y-16216309D01*
X11012817Y-16187737D01*
X10998531Y-16173451D01*
X10969960Y-16159166D01*
X11212817Y-16030594D02*
X11241388Y-16030594D01*
X11269960Y-16044880D01*
X11284246Y-16059166D01*
X11298531Y-16087737D01*
X11312817Y-16144880D01*
X11312817Y-16216309D01*
X11298531Y-16273451D01*
X11284246Y-16302023D01*
X11269960Y-16316309D01*
X11241388Y-16330594D01*
X11212817Y-16330594D01*
X11184246Y-16316309D01*
X11169960Y-16302023D01*
X11155674Y-16273451D01*
X11141388Y-16216309D01*
X11141388Y-16144880D01*
X11155674Y-16087737D01*
X11169960Y-16059166D01*
X11184246Y-16044880D01*
X11212817Y-16030594D01*
X11498531Y-16030594D02*
X11527103Y-16030594D01*
X11555674Y-16044880D01*
X11569960Y-16059166D01*
X11584246Y-16087737D01*
X11598531Y-16144880D01*
X11598531Y-16216309D01*
X11584246Y-16273451D01*
X11569960Y-16302023D01*
X11555674Y-16316309D01*
X11527103Y-16330594D01*
X11498531Y-16330594D01*
X11469960Y-16316309D01*
X11455674Y-16302023D01*
X11441388Y-16273451D01*
X11427103Y-16216309D01*
X11427103Y-16144880D01*
X11441388Y-16087737D01*
X11455674Y-16059166D01*
X11469960Y-16044880D01*
X11498531Y-16030594D01*
X11727103Y-16330594D02*
X11727103Y-16130594D01*
X11727103Y-16159166D02*
X11741388Y-16144880D01*
X11769960Y-16130594D01*
X11812817Y-16130594D01*
X11841388Y-16144880D01*
X11855674Y-16173451D01*
X11855674Y-16330594D01*
X11855674Y-16173451D02*
X11869960Y-16144880D01*
X11898531Y-16130594D01*
X11941388Y-16130594D01*
X11969960Y-16144880D01*
X11984246Y-16173451D01*
X11984246Y-16330594D01*
X12127103Y-16330594D02*
X12127103Y-16130594D01*
X12127103Y-16159166D02*
X12141388Y-16144880D01*
X12169960Y-16130594D01*
X12212817Y-16130594D01*
X12241388Y-16144880D01*
X12255674Y-16173451D01*
X12255674Y-16330594D01*
X12255674Y-16173451D02*
X12269960Y-16144880D01*
X12298531Y-16130594D01*
X12341388Y-16130594D01*
X12369960Y-16144880D01*
X12384246Y-16173451D01*
X12384246Y-16330594D01*
X12969960Y-16016309D02*
X12712817Y-16402023D01*
X13355674Y-16030594D02*
X13384246Y-16030594D01*
X13412817Y-16044880D01*
X13427103Y-16059166D01*
X13441388Y-16087737D01*
X13455674Y-16144880D01*
X13455674Y-16216309D01*
X13441388Y-16273451D01*
X13427103Y-16302023D01*
X13412817Y-16316309D01*
X13384246Y-16330594D01*
X13355674Y-16330594D01*
X13327103Y-16316309D01*
X13312817Y-16302023D01*
X13298531Y-16273451D01*
X13284246Y-16216309D01*
X13284246Y-16144880D01*
X13298531Y-16087737D01*
X13312817Y-16059166D01*
X13327103Y-16044880D01*
X13355674Y-16030594D01*
X13584246Y-16302023D02*
X13598531Y-16316309D01*
X13584246Y-16330594D01*
X13569960Y-16316309D01*
X13584246Y-16302023D01*
X13584246Y-16330594D01*
X13784246Y-16030594D02*
X13812817Y-16030594D01*
X13841388Y-16044880D01*
X13855674Y-16059166D01*
X13869960Y-16087737D01*
X13884246Y-16144880D01*
X13884246Y-16216309D01*
X13869960Y-16273451D01*
X13855674Y-16302023D01*
X13841388Y-16316309D01*
X13812817Y-16330594D01*
X13784246Y-16330594D01*
X13755674Y-16316309D01*
X13741388Y-16302023D01*
X13727103Y-16273451D01*
X13712817Y-16216309D01*
X13712817Y-16144880D01*
X13727103Y-16087737D01*
X13741388Y-16059166D01*
X13755674Y-16044880D01*
X13784246Y-16030594D01*
X13984246Y-16030594D02*
X14169960Y-16030594D01*
X14069960Y-16144880D01*
X14112817Y-16144880D01*
X14141388Y-16159166D01*
X14155674Y-16173451D01*
X14169960Y-16202023D01*
X14169960Y-16273451D01*
X14155674Y-16302023D01*
X14141388Y-16316309D01*
X14112817Y-16330594D01*
X14027103Y-16330594D01*
X13998531Y-16316309D01*
X13984246Y-16302023D01*
X14455674Y-16330594D02*
X14284246Y-16330594D01*
X14369960Y-16330594D02*
X14369960Y-16030594D01*
X14341388Y-16073451D01*
X14312817Y-16102023D01*
X14284246Y-16116309D01*
X14727103Y-16030594D02*
X14584246Y-16030594D01*
X14569960Y-16173451D01*
X14584246Y-16159166D01*
X14612817Y-16144880D01*
X14684246Y-16144880D01*
X14712817Y-16159166D01*
X14727103Y-16173451D01*
X14741388Y-16202023D01*
X14741388Y-16273451D01*
X14727103Y-16302023D01*
X14712817Y-16316309D01*
X14684246Y-16330594D01*
X14612817Y-16330594D01*
X14584246Y-16316309D01*
X14569960Y-16302023D01*
X14855674Y-16030594D02*
X14855674Y-16087737D01*
X14969960Y-16030594D02*
X14969960Y-16087737D01*
X15412817Y-16444880D02*
X15398531Y-16430594D01*
X15369960Y-16387737D01*
X15355674Y-16359166D01*
X15341388Y-16316309D01*
X15327103Y-16244880D01*
X15327103Y-16187737D01*
X15341388Y-16116309D01*
X15355674Y-16073451D01*
X15369960Y-16044880D01*
X15398531Y-16002023D01*
X15412817Y-15987737D01*
X15655674Y-16130594D02*
X15655674Y-16330594D01*
X15584246Y-16016309D02*
X15512817Y-16230594D01*
X15698531Y-16230594D01*
X16041388Y-16330594D02*
X16041388Y-16030594D01*
X16169960Y-16330594D02*
X16169960Y-16173451D01*
X16155674Y-16144880D01*
X16127103Y-16130594D01*
X16084246Y-16130594D01*
X16055674Y-16144880D01*
X16041388Y-16159166D01*
X16355674Y-16330594D02*
X16327103Y-16316309D01*
X16312817Y-16302023D01*
X16298531Y-16273451D01*
X16298531Y-16187737D01*
X16312817Y-16159166D01*
X16327103Y-16144880D01*
X16355674Y-16130594D01*
X16398531Y-16130594D01*
X16427103Y-16144880D01*
X16441388Y-16159166D01*
X16455674Y-16187737D01*
X16455674Y-16273451D01*
X16441388Y-16302023D01*
X16427103Y-16316309D01*
X16398531Y-16330594D01*
X16355674Y-16330594D01*
X16627103Y-16330594D02*
X16598531Y-16316309D01*
X16584246Y-16287737D01*
X16584246Y-16030594D01*
X16855674Y-16316309D02*
X16827103Y-16330594D01*
X16769960Y-16330594D01*
X16741388Y-16316309D01*
X16727103Y-16287737D01*
X16727103Y-16173451D01*
X16741388Y-16144880D01*
X16769960Y-16130594D01*
X16827103Y-16130594D01*
X16855674Y-16144880D01*
X16869960Y-16173451D01*
X16869960Y-16202023D01*
X16727103Y-16230594D01*
X16984246Y-16316309D02*
X17012817Y-16330594D01*
X17069960Y-16330594D01*
X17098531Y-16316309D01*
X17112817Y-16287737D01*
X17112817Y-16273451D01*
X17098531Y-16244880D01*
X17069960Y-16230594D01*
X17027103Y-16230594D01*
X16998531Y-16216309D01*
X16984246Y-16187737D01*
X16984246Y-16173451D01*
X16998531Y-16144880D01*
X17027103Y-16130594D01*
X17069960Y-16130594D01*
X17098531Y-16144880D01*
X17212817Y-16444880D02*
X17227103Y-16430594D01*
X17255674Y-16387737D01*
X17269960Y-16359166D01*
X17284246Y-16316309D01*
X17298531Y-16244880D01*
X17298531Y-16187737D01*
X17284246Y-16116309D01*
X17269960Y-16073451D01*
X17255674Y-16044880D01*
X17227103Y-16002023D01*
X17212817Y-15987737D01*
X10154960Y-16590880D02*
G75*
G03*
X10154960Y-16590880I-60000J0D01*
G01*
X10598531Y-16726594D02*
X10427103Y-16726594D01*
X10512817Y-16726594D02*
X10512817Y-16426594D01*
X10484246Y-16469451D01*
X10455674Y-16498023D01*
X10427103Y-16512309D01*
X10727103Y-16698023D02*
X10741388Y-16712309D01*
X10727103Y-16726594D01*
X10712817Y-16712309D01*
X10727103Y-16698023D01*
X10727103Y-16726594D01*
X10855674Y-16455166D02*
X10869960Y-16440880D01*
X10898531Y-16426594D01*
X10969960Y-16426594D01*
X10998531Y-16440880D01*
X11012817Y-16455166D01*
X11027103Y-16483737D01*
X11027103Y-16512309D01*
X11012817Y-16555166D01*
X10841388Y-16726594D01*
X11027103Y-16726594D01*
X11212817Y-16426594D02*
X11241388Y-16426594D01*
X11269960Y-16440880D01*
X11284246Y-16455166D01*
X11298531Y-16483737D01*
X11312817Y-16540880D01*
X11312817Y-16612309D01*
X11298531Y-16669451D01*
X11284246Y-16698023D01*
X11269960Y-16712309D01*
X11241388Y-16726594D01*
X11212817Y-16726594D01*
X11184246Y-16712309D01*
X11169960Y-16698023D01*
X11155674Y-16669451D01*
X11141388Y-16612309D01*
X11141388Y-16540880D01*
X11155674Y-16483737D01*
X11169960Y-16455166D01*
X11184246Y-16440880D01*
X11212817Y-16426594D01*
X11498531Y-16426594D02*
X11527103Y-16426594D01*
X11555674Y-16440880D01*
X11569960Y-16455166D01*
X11584246Y-16483737D01*
X11598531Y-16540880D01*
X11598531Y-16612309D01*
X11584246Y-16669451D01*
X11569960Y-16698023D01*
X11555674Y-16712309D01*
X11527103Y-16726594D01*
X11498531Y-16726594D01*
X11469960Y-16712309D01*
X11455674Y-16698023D01*
X11441388Y-16669451D01*
X11427103Y-16612309D01*
X11427103Y-16540880D01*
X11441388Y-16483737D01*
X11455674Y-16455166D01*
X11469960Y-16440880D01*
X11498531Y-16426594D01*
X11727103Y-16726594D02*
X11727103Y-16526594D01*
X11727103Y-16555166D02*
X11741388Y-16540880D01*
X11769960Y-16526594D01*
X11812817Y-16526594D01*
X11841388Y-16540880D01*
X11855674Y-16569451D01*
X11855674Y-16726594D01*
X11855674Y-16569451D02*
X11869960Y-16540880D01*
X11898531Y-16526594D01*
X11941388Y-16526594D01*
X11969960Y-16540880D01*
X11984246Y-16569451D01*
X11984246Y-16726594D01*
X12127103Y-16726594D02*
X12127103Y-16526594D01*
X12127103Y-16555166D02*
X12141388Y-16540880D01*
X12169960Y-16526594D01*
X12212817Y-16526594D01*
X12241388Y-16540880D01*
X12255674Y-16569451D01*
X12255674Y-16726594D01*
X12255674Y-16569451D02*
X12269960Y-16540880D01*
X12298531Y-16526594D01*
X12341388Y-16526594D01*
X12369960Y-16540880D01*
X12384246Y-16569451D01*
X12384246Y-16726594D01*
X12969960Y-16412309D02*
X12712817Y-16798023D01*
X13355674Y-16426594D02*
X13384246Y-16426594D01*
X13412817Y-16440880D01*
X13427103Y-16455166D01*
X13441388Y-16483737D01*
X13455674Y-16540880D01*
X13455674Y-16612309D01*
X13441388Y-16669451D01*
X13427103Y-16698023D01*
X13412817Y-16712309D01*
X13384246Y-16726594D01*
X13355674Y-16726594D01*
X13327103Y-16712309D01*
X13312817Y-16698023D01*
X13298531Y-16669451D01*
X13284246Y-16612309D01*
X13284246Y-16540880D01*
X13298531Y-16483737D01*
X13312817Y-16455166D01*
X13327103Y-16440880D01*
X13355674Y-16426594D01*
X13584246Y-16698023D02*
X13598531Y-16712309D01*
X13584246Y-16726594D01*
X13569960Y-16712309D01*
X13584246Y-16698023D01*
X13584246Y-16726594D01*
X13784246Y-16426594D02*
X13812817Y-16426594D01*
X13841388Y-16440880D01*
X13855674Y-16455166D01*
X13869960Y-16483737D01*
X13884246Y-16540880D01*
X13884246Y-16612309D01*
X13869960Y-16669451D01*
X13855674Y-16698023D01*
X13841388Y-16712309D01*
X13812817Y-16726594D01*
X13784246Y-16726594D01*
X13755674Y-16712309D01*
X13741388Y-16698023D01*
X13727103Y-16669451D01*
X13712817Y-16612309D01*
X13712817Y-16540880D01*
X13727103Y-16483737D01*
X13741388Y-16455166D01*
X13755674Y-16440880D01*
X13784246Y-16426594D01*
X14141388Y-16526594D02*
X14141388Y-16726594D01*
X14069960Y-16412309D02*
X13998531Y-16626594D01*
X14184246Y-16626594D01*
X14269960Y-16426594D02*
X14469960Y-16426594D01*
X14341388Y-16726594D01*
X14569960Y-16455166D02*
X14584246Y-16440880D01*
X14612817Y-16426594D01*
X14684246Y-16426594D01*
X14712817Y-16440880D01*
X14727103Y-16455166D01*
X14741388Y-16483737D01*
X14741388Y-16512309D01*
X14727103Y-16555166D01*
X14555674Y-16726594D01*
X14741388Y-16726594D01*
X14855674Y-16426594D02*
X14855674Y-16483737D01*
X14969960Y-16426594D02*
X14969960Y-16483737D01*
X15412817Y-16840880D02*
X15398531Y-16826594D01*
X15369960Y-16783737D01*
X15355674Y-16755166D01*
X15341388Y-16712309D01*
X15327103Y-16640880D01*
X15327103Y-16583737D01*
X15341388Y-16512309D01*
X15355674Y-16469451D01*
X15369960Y-16440880D01*
X15398531Y-16398023D01*
X15412817Y-16383737D01*
X15669960Y-16426594D02*
X15527103Y-16426594D01*
X15512817Y-16569451D01*
X15527103Y-16555166D01*
X15555674Y-16540880D01*
X15627103Y-16540880D01*
X15655674Y-16555166D01*
X15669960Y-16569451D01*
X15684246Y-16598023D01*
X15684246Y-16669451D01*
X15669960Y-16698023D01*
X15655674Y-16712309D01*
X15627103Y-16726594D01*
X15555674Y-16726594D01*
X15527103Y-16712309D01*
X15512817Y-16698023D01*
X16041388Y-16726594D02*
X16041388Y-16426594D01*
X16169960Y-16726594D02*
X16169960Y-16569451D01*
X16155674Y-16540880D01*
X16127103Y-16526594D01*
X16084246Y-16526594D01*
X16055674Y-16540880D01*
X16041388Y-16555166D01*
X16355674Y-16726594D02*
X16327103Y-16712309D01*
X16312817Y-16698023D01*
X16298531Y-16669451D01*
X16298531Y-16583737D01*
X16312817Y-16555166D01*
X16327103Y-16540880D01*
X16355674Y-16526594D01*
X16398531Y-16526594D01*
X16427103Y-16540880D01*
X16441388Y-16555166D01*
X16455674Y-16583737D01*
X16455674Y-16669451D01*
X16441388Y-16698023D01*
X16427103Y-16712309D01*
X16398531Y-16726594D01*
X16355674Y-16726594D01*
X16627103Y-16726594D02*
X16598531Y-16712309D01*
X16584246Y-16683737D01*
X16584246Y-16426594D01*
X16855674Y-16712309D02*
X16827103Y-16726594D01*
X16769960Y-16726594D01*
X16741388Y-16712309D01*
X16727103Y-16683737D01*
X16727103Y-16569451D01*
X16741388Y-16540880D01*
X16769960Y-16526594D01*
X16827103Y-16526594D01*
X16855674Y-16540880D01*
X16869960Y-16569451D01*
X16869960Y-16598023D01*
X16727103Y-16626594D01*
X16984246Y-16712309D02*
X17012817Y-16726594D01*
X17069960Y-16726594D01*
X17098531Y-16712309D01*
X17112817Y-16683737D01*
X17112817Y-16669451D01*
X17098531Y-16640880D01*
X17069960Y-16626594D01*
X17027103Y-16626594D01*
X16998531Y-16612309D01*
X16984246Y-16583737D01*
X16984246Y-16569451D01*
X16998531Y-16540880D01*
X17027103Y-16526594D01*
X17069960Y-16526594D01*
X17098531Y-16540880D01*
X17212817Y-16840880D02*
X17227103Y-16826594D01*
X17255674Y-16783737D01*
X17269960Y-16755166D01*
X17284246Y-16712309D01*
X17298531Y-16640880D01*
X17298531Y-16583737D01*
X17284246Y-16512309D01*
X17269960Y-16469451D01*
X17255674Y-16440880D01*
X17227103Y-16398023D01*
X17212817Y-16383737D01*
X10069960Y-16901880D02*
X10069960Y-17071880D01*
X9984960Y-16986880D02*
X10154960Y-16986880D01*
X10598531Y-17122594D02*
X10427103Y-17122594D01*
X10512817Y-17122594D02*
X10512817Y-16822594D01*
X10484246Y-16865452D01*
X10455674Y-16894023D01*
X10427103Y-16908309D01*
X10727103Y-17094023D02*
X10741388Y-17108309D01*
X10727103Y-17122594D01*
X10712817Y-17108309D01*
X10727103Y-17094023D01*
X10727103Y-17122594D01*
X10841388Y-16822594D02*
X11041388Y-16822594D01*
X10912817Y-17122594D01*
X11212817Y-16822594D02*
X11241388Y-16822594D01*
X11269960Y-16836880D01*
X11284246Y-16851166D01*
X11298531Y-16879737D01*
X11312817Y-16936880D01*
X11312817Y-17008309D01*
X11298531Y-17065452D01*
X11284246Y-17094023D01*
X11269960Y-17108309D01*
X11241388Y-17122594D01*
X11212817Y-17122594D01*
X11184246Y-17108309D01*
X11169960Y-17094023D01*
X11155674Y-17065452D01*
X11141388Y-17008309D01*
X11141388Y-16936880D01*
X11155674Y-16879737D01*
X11169960Y-16851166D01*
X11184246Y-16836880D01*
X11212817Y-16822594D01*
X11498531Y-16822594D02*
X11527103Y-16822594D01*
X11555674Y-16836880D01*
X11569960Y-16851166D01*
X11584246Y-16879737D01*
X11598531Y-16936880D01*
X11598531Y-17008309D01*
X11584246Y-17065452D01*
X11569960Y-17094023D01*
X11555674Y-17108309D01*
X11527103Y-17122594D01*
X11498531Y-17122594D01*
X11469960Y-17108309D01*
X11455674Y-17094023D01*
X11441388Y-17065452D01*
X11427103Y-17008309D01*
X11427103Y-16936880D01*
X11441388Y-16879737D01*
X11455674Y-16851166D01*
X11469960Y-16836880D01*
X11498531Y-16822594D01*
X11727103Y-17122594D02*
X11727103Y-16922594D01*
X11727103Y-16951166D02*
X11741388Y-16936880D01*
X11769960Y-16922594D01*
X11812817Y-16922594D01*
X11841388Y-16936880D01*
X11855674Y-16965452D01*
X11855674Y-17122594D01*
X11855674Y-16965452D02*
X11869960Y-16936880D01*
X11898531Y-16922594D01*
X11941388Y-16922594D01*
X11969960Y-16936880D01*
X11984246Y-16965452D01*
X11984246Y-17122594D01*
X12127103Y-17122594D02*
X12127103Y-16922594D01*
X12127103Y-16951166D02*
X12141388Y-16936880D01*
X12169960Y-16922594D01*
X12212817Y-16922594D01*
X12241388Y-16936880D01*
X12255674Y-16965452D01*
X12255674Y-17122594D01*
X12255674Y-16965452D02*
X12269960Y-16936880D01*
X12298531Y-16922594D01*
X12341388Y-16922594D01*
X12369960Y-16936880D01*
X12384246Y-16965452D01*
X12384246Y-17122594D01*
X12969960Y-16808309D02*
X12712817Y-17194023D01*
X13355674Y-16822594D02*
X13384246Y-16822594D01*
X13412817Y-16836880D01*
X13427103Y-16851166D01*
X13441388Y-16879737D01*
X13455674Y-16936880D01*
X13455674Y-17008309D01*
X13441388Y-17065452D01*
X13427103Y-17094023D01*
X13412817Y-17108309D01*
X13384246Y-17122594D01*
X13355674Y-17122594D01*
X13327103Y-17108309D01*
X13312817Y-17094023D01*
X13298531Y-17065452D01*
X13284246Y-17008309D01*
X13284246Y-16936880D01*
X13298531Y-16879737D01*
X13312817Y-16851166D01*
X13327103Y-16836880D01*
X13355674Y-16822594D01*
X13584246Y-17094023D02*
X13598531Y-17108309D01*
X13584246Y-17122594D01*
X13569960Y-17108309D01*
X13584246Y-17094023D01*
X13584246Y-17122594D01*
X13784246Y-16822594D02*
X13812817Y-16822594D01*
X13841388Y-16836880D01*
X13855674Y-16851166D01*
X13869960Y-16879737D01*
X13884246Y-16936880D01*
X13884246Y-17008309D01*
X13869960Y-17065452D01*
X13855674Y-17094023D01*
X13841388Y-17108309D01*
X13812817Y-17122594D01*
X13784246Y-17122594D01*
X13755674Y-17108309D01*
X13741388Y-17094023D01*
X13727103Y-17065452D01*
X13712817Y-17008309D01*
X13712817Y-16936880D01*
X13727103Y-16879737D01*
X13741388Y-16851166D01*
X13755674Y-16836880D01*
X13784246Y-16822594D01*
X14141388Y-16822594D02*
X14084246Y-16822594D01*
X14055674Y-16836880D01*
X14041388Y-16851166D01*
X14012817Y-16894023D01*
X13998531Y-16951166D01*
X13998531Y-17065452D01*
X14012817Y-17094023D01*
X14027103Y-17108309D01*
X14055674Y-17122594D01*
X14112817Y-17122594D01*
X14141388Y-17108309D01*
X14155674Y-17094023D01*
X14169960Y-17065452D01*
X14169960Y-16994023D01*
X14155674Y-16965452D01*
X14141388Y-16951166D01*
X14112817Y-16936880D01*
X14055674Y-16936880D01*
X14027103Y-16951166D01*
X14012817Y-16965452D01*
X13998531Y-16994023D01*
X14427103Y-16822594D02*
X14369960Y-16822594D01*
X14341388Y-16836880D01*
X14327103Y-16851166D01*
X14298531Y-16894023D01*
X14284246Y-16951166D01*
X14284246Y-17065452D01*
X14298531Y-17094023D01*
X14312817Y-17108309D01*
X14341388Y-17122594D01*
X14398531Y-17122594D01*
X14427103Y-17108309D01*
X14441388Y-17094023D01*
X14455674Y-17065452D01*
X14455674Y-16994023D01*
X14441388Y-16965452D01*
X14427103Y-16951166D01*
X14398531Y-16936880D01*
X14341388Y-16936880D01*
X14312817Y-16951166D01*
X14298531Y-16965452D01*
X14284246Y-16994023D01*
X14598531Y-17122594D02*
X14655674Y-17122594D01*
X14684246Y-17108309D01*
X14698531Y-17094023D01*
X14727103Y-17051166D01*
X14741388Y-16994023D01*
X14741388Y-16879737D01*
X14727103Y-16851166D01*
X14712817Y-16836880D01*
X14684246Y-16822594D01*
X14627103Y-16822594D01*
X14598531Y-16836880D01*
X14584246Y-16851166D01*
X14569960Y-16879737D01*
X14569960Y-16951166D01*
X14584246Y-16979737D01*
X14598531Y-16994023D01*
X14627103Y-17008309D01*
X14684246Y-17008309D01*
X14712817Y-16994023D01*
X14727103Y-16979737D01*
X14741388Y-16951166D01*
X14855674Y-16822594D02*
X14855674Y-16879737D01*
X14969960Y-16822594D02*
X14969960Y-16879737D01*
X15412817Y-17236880D02*
X15398531Y-17222594D01*
X15369960Y-17179737D01*
X15355674Y-17151166D01*
X15341388Y-17108309D01*
X15327103Y-17036880D01*
X15327103Y-16979737D01*
X15341388Y-16908309D01*
X15355674Y-16865452D01*
X15369960Y-16836880D01*
X15398531Y-16794023D01*
X15412817Y-16779737D01*
X15655674Y-16922594D02*
X15655674Y-17122594D01*
X15584246Y-16808309D02*
X15512817Y-17022594D01*
X15698531Y-17022594D01*
X16041388Y-17122594D02*
X16041388Y-16822594D01*
X16169960Y-17122594D02*
X16169960Y-16965452D01*
X16155674Y-16936880D01*
X16127103Y-16922594D01*
X16084246Y-16922594D01*
X16055674Y-16936880D01*
X16041388Y-16951166D01*
X16355674Y-17122594D02*
X16327103Y-17108309D01*
X16312817Y-17094023D01*
X16298531Y-17065452D01*
X16298531Y-16979737D01*
X16312817Y-16951166D01*
X16327103Y-16936880D01*
X16355674Y-16922594D01*
X16398531Y-16922594D01*
X16427103Y-16936880D01*
X16441388Y-16951166D01*
X16455674Y-16979737D01*
X16455674Y-17065452D01*
X16441388Y-17094023D01*
X16427103Y-17108309D01*
X16398531Y-17122594D01*
X16355674Y-17122594D01*
X16627103Y-17122594D02*
X16598531Y-17108309D01*
X16584246Y-17079737D01*
X16584246Y-16822594D01*
X16855674Y-17108309D02*
X16827103Y-17122594D01*
X16769960Y-17122594D01*
X16741388Y-17108309D01*
X16727103Y-17079737D01*
X16727103Y-16965452D01*
X16741388Y-16936880D01*
X16769960Y-16922594D01*
X16827103Y-16922594D01*
X16855674Y-16936880D01*
X16869960Y-16965452D01*
X16869960Y-16994023D01*
X16727103Y-17022594D01*
X16984246Y-17108309D02*
X17012817Y-17122594D01*
X17069960Y-17122594D01*
X17098531Y-17108309D01*
X17112817Y-17079737D01*
X17112817Y-17065452D01*
X17098531Y-17036880D01*
X17069960Y-17022594D01*
X17027103Y-17022594D01*
X16998531Y-17008309D01*
X16984246Y-16979737D01*
X16984246Y-16965452D01*
X16998531Y-16936880D01*
X17027103Y-16922594D01*
X17069960Y-16922594D01*
X17098531Y-16936880D01*
X17212817Y-17236880D02*
X17227103Y-17222594D01*
X17255674Y-17179737D01*
X17269960Y-17151166D01*
X17284246Y-17108309D01*
X17298531Y-17036880D01*
X17298531Y-16979737D01*
X17284246Y-16908309D01*
X17269960Y-16865452D01*
X17255674Y-16836880D01*
X17227103Y-16794023D01*
X17212817Y-16779737D01*
X10122742Y-17460663D02*
X10122742Y-17305098D01*
X9967177Y-17305098D01*
X9967177Y-17460663D01*
X10122742Y-17460663D01*
X10427103Y-17247166D02*
X10441388Y-17232880D01*
X10469960Y-17218594D01*
X10541388Y-17218594D01*
X10569960Y-17232880D01*
X10584246Y-17247166D01*
X10598531Y-17275737D01*
X10598531Y-17304309D01*
X10584246Y-17347166D01*
X10412817Y-17518594D01*
X10598531Y-17518594D01*
X10727103Y-17490023D02*
X10741388Y-17504309D01*
X10727103Y-17518594D01*
X10712817Y-17504309D01*
X10727103Y-17490023D01*
X10727103Y-17518594D01*
X10855674Y-17247166D02*
X10869960Y-17232880D01*
X10898531Y-17218594D01*
X10969960Y-17218594D01*
X10998531Y-17232880D01*
X11012817Y-17247166D01*
X11027103Y-17275737D01*
X11027103Y-17304309D01*
X11012817Y-17347166D01*
X10841388Y-17518594D01*
X11027103Y-17518594D01*
X11212817Y-17218594D02*
X11241388Y-17218594D01*
X11269960Y-17232880D01*
X11284246Y-17247166D01*
X11298531Y-17275737D01*
X11312817Y-17332880D01*
X11312817Y-17404309D01*
X11298531Y-17461452D01*
X11284246Y-17490023D01*
X11269960Y-17504309D01*
X11241388Y-17518594D01*
X11212817Y-17518594D01*
X11184246Y-17504309D01*
X11169960Y-17490023D01*
X11155674Y-17461452D01*
X11141388Y-17404309D01*
X11141388Y-17332880D01*
X11155674Y-17275737D01*
X11169960Y-17247166D01*
X11184246Y-17232880D01*
X11212817Y-17218594D01*
X11498531Y-17218594D02*
X11527103Y-17218594D01*
X11555674Y-17232880D01*
X11569960Y-17247166D01*
X11584246Y-17275737D01*
X11598531Y-17332880D01*
X11598531Y-17404309D01*
X11584246Y-17461452D01*
X11569960Y-17490023D01*
X11555674Y-17504309D01*
X11527103Y-17518594D01*
X11498531Y-17518594D01*
X11469960Y-17504309D01*
X11455674Y-17490023D01*
X11441388Y-17461452D01*
X11427103Y-17404309D01*
X11427103Y-17332880D01*
X11441388Y-17275737D01*
X11455674Y-17247166D01*
X11469960Y-17232880D01*
X11498531Y-17218594D01*
X11727103Y-17518594D02*
X11727103Y-17318594D01*
X11727103Y-17347166D02*
X11741388Y-17332880D01*
X11769960Y-17318594D01*
X11812817Y-17318594D01*
X11841388Y-17332880D01*
X11855674Y-17361452D01*
X11855674Y-17518594D01*
X11855674Y-17361452D02*
X11869960Y-17332880D01*
X11898531Y-17318594D01*
X11941388Y-17318594D01*
X11969960Y-17332880D01*
X11984246Y-17361452D01*
X11984246Y-17518594D01*
X12127103Y-17518594D02*
X12127103Y-17318594D01*
X12127103Y-17347166D02*
X12141388Y-17332880D01*
X12169960Y-17318594D01*
X12212817Y-17318594D01*
X12241388Y-17332880D01*
X12255674Y-17361452D01*
X12255674Y-17518594D01*
X12255674Y-17361452D02*
X12269960Y-17332880D01*
X12298531Y-17318594D01*
X12341388Y-17318594D01*
X12369960Y-17332880D01*
X12384246Y-17361452D01*
X12384246Y-17518594D01*
X12969960Y-17204309D02*
X12712817Y-17590023D01*
X13355674Y-17218594D02*
X13384246Y-17218594D01*
X13412817Y-17232880D01*
X13427103Y-17247166D01*
X13441388Y-17275737D01*
X13455674Y-17332880D01*
X13455674Y-17404309D01*
X13441388Y-17461452D01*
X13427103Y-17490023D01*
X13412817Y-17504309D01*
X13384246Y-17518594D01*
X13355674Y-17518594D01*
X13327103Y-17504309D01*
X13312817Y-17490023D01*
X13298531Y-17461452D01*
X13284246Y-17404309D01*
X13284246Y-17332880D01*
X13298531Y-17275737D01*
X13312817Y-17247166D01*
X13327103Y-17232880D01*
X13355674Y-17218594D01*
X13584246Y-17490023D02*
X13598531Y-17504309D01*
X13584246Y-17518594D01*
X13569960Y-17504309D01*
X13584246Y-17490023D01*
X13584246Y-17518594D01*
X13784246Y-17218594D02*
X13812817Y-17218594D01*
X13841388Y-17232880D01*
X13855674Y-17247166D01*
X13869960Y-17275737D01*
X13884246Y-17332880D01*
X13884246Y-17404309D01*
X13869960Y-17461452D01*
X13855674Y-17490023D01*
X13841388Y-17504309D01*
X13812817Y-17518594D01*
X13784246Y-17518594D01*
X13755674Y-17504309D01*
X13741388Y-17490023D01*
X13727103Y-17461452D01*
X13712817Y-17404309D01*
X13712817Y-17332880D01*
X13727103Y-17275737D01*
X13741388Y-17247166D01*
X13755674Y-17232880D01*
X13784246Y-17218594D01*
X14055674Y-17347166D02*
X14027103Y-17332880D01*
X14012817Y-17318594D01*
X13998531Y-17290023D01*
X13998531Y-17275737D01*
X14012817Y-17247166D01*
X14027103Y-17232880D01*
X14055674Y-17218594D01*
X14112817Y-17218594D01*
X14141388Y-17232880D01*
X14155674Y-17247166D01*
X14169960Y-17275737D01*
X14169960Y-17290023D01*
X14155674Y-17318594D01*
X14141388Y-17332880D01*
X14112817Y-17347166D01*
X14055674Y-17347166D01*
X14027103Y-17361452D01*
X14012817Y-17375737D01*
X13998531Y-17404309D01*
X13998531Y-17461452D01*
X14012817Y-17490023D01*
X14027103Y-17504309D01*
X14055674Y-17518594D01*
X14112817Y-17518594D01*
X14141388Y-17504309D01*
X14155674Y-17490023D01*
X14169960Y-17461452D01*
X14169960Y-17404309D01*
X14155674Y-17375737D01*
X14141388Y-17361452D01*
X14112817Y-17347166D01*
X14427103Y-17218594D02*
X14369960Y-17218594D01*
X14341388Y-17232880D01*
X14327103Y-17247166D01*
X14298531Y-17290023D01*
X14284246Y-17347166D01*
X14284246Y-17461452D01*
X14298531Y-17490023D01*
X14312817Y-17504309D01*
X14341388Y-17518594D01*
X14398531Y-17518594D01*
X14427103Y-17504309D01*
X14441388Y-17490023D01*
X14455674Y-17461452D01*
X14455674Y-17390023D01*
X14441388Y-17361452D01*
X14427103Y-17347166D01*
X14398531Y-17332880D01*
X14341388Y-17332880D01*
X14312817Y-17347166D01*
X14298531Y-17361452D01*
X14284246Y-17390023D01*
X14712817Y-17218594D02*
X14655674Y-17218594D01*
X14627103Y-17232880D01*
X14612817Y-17247166D01*
X14584246Y-17290023D01*
X14569960Y-17347166D01*
X14569960Y-17461452D01*
X14584246Y-17490023D01*
X14598531Y-17504309D01*
X14627103Y-17518594D01*
X14684246Y-17518594D01*
X14712817Y-17504309D01*
X14727103Y-17490023D01*
X14741388Y-17461452D01*
X14741388Y-17390023D01*
X14727103Y-17361452D01*
X14712817Y-17347166D01*
X14684246Y-17332880D01*
X14627103Y-17332880D01*
X14598531Y-17347166D01*
X14584246Y-17361452D01*
X14569960Y-17390023D01*
X14855674Y-17218594D02*
X14855674Y-17275737D01*
X14969960Y-17218594D02*
X14969960Y-17275737D01*
X15412817Y-17632880D02*
X15398531Y-17618594D01*
X15369960Y-17575737D01*
X15355674Y-17547166D01*
X15341388Y-17504309D01*
X15327103Y-17432880D01*
X15327103Y-17375737D01*
X15341388Y-17304309D01*
X15355674Y-17261452D01*
X15369960Y-17232880D01*
X15398531Y-17190023D01*
X15412817Y-17175737D01*
X15655674Y-17318594D02*
X15655674Y-17518594D01*
X15584246Y-17204309D02*
X15512817Y-17418594D01*
X15698531Y-17418594D01*
X16041388Y-17518594D02*
X16041388Y-17218594D01*
X16169960Y-17518594D02*
X16169960Y-17361452D01*
X16155674Y-17332880D01*
X16127103Y-17318594D01*
X16084246Y-17318594D01*
X16055674Y-17332880D01*
X16041388Y-17347166D01*
X16355674Y-17518594D02*
X16327103Y-17504309D01*
X16312817Y-17490023D01*
X16298531Y-17461452D01*
X16298531Y-17375737D01*
X16312817Y-17347166D01*
X16327103Y-17332880D01*
X16355674Y-17318594D01*
X16398531Y-17318594D01*
X16427103Y-17332880D01*
X16441388Y-17347166D01*
X16455674Y-17375737D01*
X16455674Y-17461452D01*
X16441388Y-17490023D01*
X16427103Y-17504309D01*
X16398531Y-17518594D01*
X16355674Y-17518594D01*
X16627103Y-17518594D02*
X16598531Y-17504309D01*
X16584246Y-17475737D01*
X16584246Y-17218594D01*
X16855674Y-17504309D02*
X16827103Y-17518594D01*
X16769960Y-17518594D01*
X16741388Y-17504309D01*
X16727103Y-17475737D01*
X16727103Y-17361452D01*
X16741388Y-17332880D01*
X16769960Y-17318594D01*
X16827103Y-17318594D01*
X16855674Y-17332880D01*
X16869960Y-17361452D01*
X16869960Y-17390023D01*
X16727103Y-17418594D01*
X16984246Y-17504309D02*
X17012817Y-17518594D01*
X17069960Y-17518594D01*
X17098531Y-17504309D01*
X17112817Y-17475737D01*
X17112817Y-17461452D01*
X17098531Y-17432880D01*
X17069960Y-17418594D01*
X17027103Y-17418594D01*
X16998531Y-17404309D01*
X16984246Y-17375737D01*
X16984246Y-17361452D01*
X16998531Y-17332880D01*
X17027103Y-17318594D01*
X17069960Y-17318594D01*
X17098531Y-17332880D01*
X17212817Y-17632880D02*
X17227103Y-17618594D01*
X17255674Y-17575737D01*
X17269960Y-17547166D01*
X17284246Y-17504309D01*
X17298531Y-17432880D01*
X17298531Y-17375737D01*
X17284246Y-17304309D01*
X17269960Y-17261452D01*
X17255674Y-17232880D01*
X17227103Y-17190023D01*
X17212817Y-17175737D01*
X10029960Y-17903880D02*
X10154960Y-17778880D01*
X10029960Y-17653880D01*
X9904960Y-17778880D01*
X10029960Y-17903880D01*
X10427103Y-17643166D02*
X10441388Y-17628880D01*
X10469960Y-17614594D01*
X10541388Y-17614594D01*
X10569960Y-17628880D01*
X10584246Y-17643166D01*
X10598531Y-17671737D01*
X10598531Y-17700309D01*
X10584246Y-17743166D01*
X10412817Y-17914594D01*
X10598531Y-17914594D01*
X10727103Y-17886023D02*
X10741388Y-17900309D01*
X10727103Y-17914594D01*
X10712817Y-17900309D01*
X10727103Y-17886023D01*
X10727103Y-17914594D01*
X11012817Y-17614594D02*
X10869960Y-17614594D01*
X10855674Y-17757452D01*
X10869960Y-17743166D01*
X10898531Y-17728880D01*
X10969960Y-17728880D01*
X10998531Y-17743166D01*
X11012817Y-17757452D01*
X11027103Y-17786023D01*
X11027103Y-17857452D01*
X11012817Y-17886023D01*
X10998531Y-17900309D01*
X10969960Y-17914594D01*
X10898531Y-17914594D01*
X10869960Y-17900309D01*
X10855674Y-17886023D01*
X11212817Y-17614594D02*
X11241388Y-17614594D01*
X11269960Y-17628880D01*
X11284246Y-17643166D01*
X11298531Y-17671737D01*
X11312817Y-17728880D01*
X11312817Y-17800309D01*
X11298531Y-17857452D01*
X11284246Y-17886023D01*
X11269960Y-17900309D01*
X11241388Y-17914594D01*
X11212817Y-17914594D01*
X11184246Y-17900309D01*
X11169960Y-17886023D01*
X11155674Y-17857452D01*
X11141388Y-17800309D01*
X11141388Y-17728880D01*
X11155674Y-17671737D01*
X11169960Y-17643166D01*
X11184246Y-17628880D01*
X11212817Y-17614594D01*
X11498531Y-17614594D02*
X11527103Y-17614594D01*
X11555674Y-17628880D01*
X11569960Y-17643166D01*
X11584246Y-17671737D01*
X11598531Y-17728880D01*
X11598531Y-17800309D01*
X11584246Y-17857452D01*
X11569960Y-17886023D01*
X11555674Y-17900309D01*
X11527103Y-17914594D01*
X11498531Y-17914594D01*
X11469960Y-17900309D01*
X11455674Y-17886023D01*
X11441388Y-17857452D01*
X11427103Y-17800309D01*
X11427103Y-17728880D01*
X11441388Y-17671737D01*
X11455674Y-17643166D01*
X11469960Y-17628880D01*
X11498531Y-17614594D01*
X11727103Y-17914594D02*
X11727103Y-17714594D01*
X11727103Y-17743166D02*
X11741388Y-17728880D01*
X11769960Y-17714594D01*
X11812817Y-17714594D01*
X11841388Y-17728880D01*
X11855674Y-17757452D01*
X11855674Y-17914594D01*
X11855674Y-17757452D02*
X11869960Y-17728880D01*
X11898531Y-17714594D01*
X11941388Y-17714594D01*
X11969960Y-17728880D01*
X11984246Y-17757452D01*
X11984246Y-17914594D01*
X12127103Y-17914594D02*
X12127103Y-17714594D01*
X12127103Y-17743166D02*
X12141388Y-17728880D01*
X12169960Y-17714594D01*
X12212817Y-17714594D01*
X12241388Y-17728880D01*
X12255674Y-17757452D01*
X12255674Y-17914594D01*
X12255674Y-17757452D02*
X12269960Y-17728880D01*
X12298531Y-17714594D01*
X12341388Y-17714594D01*
X12369960Y-17728880D01*
X12384246Y-17757452D01*
X12384246Y-17914594D01*
X12969960Y-17600309D02*
X12712817Y-17986023D01*
X13355674Y-17614594D02*
X13384246Y-17614594D01*
X13412817Y-17628880D01*
X13427103Y-17643166D01*
X13441388Y-17671737D01*
X13455674Y-17728880D01*
X13455674Y-17800309D01*
X13441388Y-17857452D01*
X13427103Y-17886023D01*
X13412817Y-17900309D01*
X13384246Y-17914594D01*
X13355674Y-17914594D01*
X13327103Y-17900309D01*
X13312817Y-17886023D01*
X13298531Y-17857452D01*
X13284246Y-17800309D01*
X13284246Y-17728880D01*
X13298531Y-17671737D01*
X13312817Y-17643166D01*
X13327103Y-17628880D01*
X13355674Y-17614594D01*
X13584246Y-17886023D02*
X13598531Y-17900309D01*
X13584246Y-17914594D01*
X13569960Y-17900309D01*
X13584246Y-17886023D01*
X13584246Y-17914594D01*
X13784246Y-17614594D02*
X13812817Y-17614594D01*
X13841388Y-17628880D01*
X13855674Y-17643166D01*
X13869960Y-17671737D01*
X13884246Y-17728880D01*
X13884246Y-17800309D01*
X13869960Y-17857452D01*
X13855674Y-17886023D01*
X13841388Y-17900309D01*
X13812817Y-17914594D01*
X13784246Y-17914594D01*
X13755674Y-17900309D01*
X13741388Y-17886023D01*
X13727103Y-17857452D01*
X13712817Y-17800309D01*
X13712817Y-17728880D01*
X13727103Y-17671737D01*
X13741388Y-17643166D01*
X13755674Y-17628880D01*
X13784246Y-17614594D01*
X14027103Y-17914594D02*
X14084246Y-17914594D01*
X14112817Y-17900309D01*
X14127103Y-17886023D01*
X14155674Y-17843166D01*
X14169960Y-17786023D01*
X14169960Y-17671737D01*
X14155674Y-17643166D01*
X14141388Y-17628880D01*
X14112817Y-17614594D01*
X14055674Y-17614594D01*
X14027103Y-17628880D01*
X14012817Y-17643166D01*
X13998531Y-17671737D01*
X13998531Y-17743166D01*
X14012817Y-17771737D01*
X14027103Y-17786023D01*
X14055674Y-17800309D01*
X14112817Y-17800309D01*
X14141388Y-17786023D01*
X14155674Y-17771737D01*
X14169960Y-17743166D01*
X14341388Y-17743166D02*
X14312817Y-17728880D01*
X14298531Y-17714594D01*
X14284246Y-17686023D01*
X14284246Y-17671737D01*
X14298531Y-17643166D01*
X14312817Y-17628880D01*
X14341388Y-17614594D01*
X14398531Y-17614594D01*
X14427103Y-17628880D01*
X14441388Y-17643166D01*
X14455674Y-17671737D01*
X14455674Y-17686023D01*
X14441388Y-17714594D01*
X14427103Y-17728880D01*
X14398531Y-17743166D01*
X14341388Y-17743166D01*
X14312817Y-17757452D01*
X14298531Y-17771737D01*
X14284246Y-17800309D01*
X14284246Y-17857452D01*
X14298531Y-17886023D01*
X14312817Y-17900309D01*
X14341388Y-17914594D01*
X14398531Y-17914594D01*
X14427103Y-17900309D01*
X14441388Y-17886023D01*
X14455674Y-17857452D01*
X14455674Y-17800309D01*
X14441388Y-17771737D01*
X14427103Y-17757452D01*
X14398531Y-17743166D01*
X14712817Y-17714594D02*
X14712817Y-17914594D01*
X14641388Y-17600309D02*
X14569960Y-17814594D01*
X14755674Y-17814594D01*
X14855674Y-17614594D02*
X14855674Y-17671737D01*
X14969960Y-17614594D02*
X14969960Y-17671737D01*
X15412817Y-18028880D02*
X15398531Y-18014594D01*
X15369960Y-17971737D01*
X15355674Y-17943166D01*
X15341388Y-17900309D01*
X15327103Y-17828880D01*
X15327103Y-17771737D01*
X15341388Y-17700309D01*
X15355674Y-17657452D01*
X15369960Y-17628880D01*
X15398531Y-17586023D01*
X15412817Y-17571737D01*
X15684246Y-17914594D02*
X15512817Y-17914594D01*
X15598531Y-17914594D02*
X15598531Y-17614594D01*
X15569960Y-17657452D01*
X15541388Y-17686023D01*
X15512817Y-17700309D01*
X16041388Y-17914594D02*
X16041388Y-17614594D01*
X16169960Y-17914594D02*
X16169960Y-17757452D01*
X16155674Y-17728880D01*
X16127103Y-17714594D01*
X16084246Y-17714594D01*
X16055674Y-17728880D01*
X16041388Y-17743166D01*
X16355674Y-17914594D02*
X16327103Y-17900309D01*
X16312817Y-17886023D01*
X16298531Y-17857452D01*
X16298531Y-17771737D01*
X16312817Y-17743166D01*
X16327103Y-17728880D01*
X16355674Y-17714594D01*
X16398531Y-17714594D01*
X16427103Y-17728880D01*
X16441388Y-17743166D01*
X16455674Y-17771737D01*
X16455674Y-17857452D01*
X16441388Y-17886023D01*
X16427103Y-17900309D01*
X16398531Y-17914594D01*
X16355674Y-17914594D01*
X16627103Y-17914594D02*
X16598531Y-17900309D01*
X16584246Y-17871737D01*
X16584246Y-17614594D01*
X16855674Y-17900309D02*
X16827103Y-17914594D01*
X16769960Y-17914594D01*
X16741388Y-17900309D01*
X16727103Y-17871737D01*
X16727103Y-17757452D01*
X16741388Y-17728880D01*
X16769960Y-17714594D01*
X16827103Y-17714594D01*
X16855674Y-17728880D01*
X16869960Y-17757452D01*
X16869960Y-17786023D01*
X16727103Y-17814594D01*
X16969960Y-18028880D02*
X16984246Y-18014594D01*
X17012817Y-17971737D01*
X17027103Y-17943166D01*
X17041388Y-17900309D01*
X17055674Y-17828880D01*
X17055674Y-17771737D01*
X17041388Y-17700309D01*
X17027103Y-17657452D01*
X17012817Y-17628880D01*
X16984246Y-17586023D01*
X16969960Y-17571737D01*
M02*
