M48
; DRILL file {KiCad (5.1.10-1-10_14)} date Friday, September 10, 2021 at 12:56:39 AM
; FORMAT={-:-/ absolute / metric / decimal}
; #@! TF.CreationDate,2021-09-10T00:56:39+12:00
; #@! TF.GenerationSoftware,Kicad,Pcbnew,(5.1.10-1-10_14)
; #@! TF.FileFunction,Plated,1,2,PTH
FMAT,2
METRIC
T1C0.200
T2C0.400
T3C0.800
T4C1.000
T5C1.100
T6C1.200
%
G90
G05
T1
X116.597Y-135.249
X116.597Y-136.449
X116.597Y-137.649
X117.997Y-135.249
X117.997Y-136.449
X117.997Y-137.649
T2
X114.198Y-138.379
X114.224Y-137.084
X120.396Y-137.058
T3
X58.46Y-63.5
X58.46Y-68.58
X60.96Y-63.5
X60.96Y-68.58
X66.904Y-106.629
X70.942Y-112.395
X70.942Y-114.395
X70.942Y-118.929
X70.942Y-120.929
X71.12Y-68.58
X71.12Y-73.66
X71.12Y-78.74
X72.06Y-128.956
X72.068Y-124.994
X73.406Y-63.5
X73.66Y-83.82
X77.064Y-106.629
X78.264Y-101.854
X80.239Y-106.553
X80.239Y-116.713
X80.264Y-101.854
X81.026Y-63.5
X81.28Y-68.58
X81.28Y-73.66
X81.28Y-78.74
X81.28Y-83.82
X82.22Y-128.956
X82.228Y-124.994
X84.709Y-121.133
X84.709Y-124.663
X86.233Y-131.013
X86.233Y-141.173
X86.36Y-63.5
X86.36Y-66.04
X86.36Y-68.58
X86.36Y-71.12
X86.36Y-73.66
X86.36Y-76.2
X86.36Y-78.74
X86.36Y-81.28
X86.741Y-103.962
X86.741Y-114.122
X86.792Y-100.66
X88.98Y-55.88
X88.98Y-88.9
X89.281Y-97.511
X89.84Y-117.678
X90.348Y-130.988
X90.348Y-141.148
X91.952Y-109.601
X93.98Y-55.88
X93.98Y-63.5
X93.98Y-66.04
X93.98Y-68.58
X93.98Y-71.12
X93.98Y-73.66
X93.98Y-76.2
X93.98Y-78.74
X93.98Y-81.28
X93.98Y-88.9
X94.412Y-131.039
X94.412Y-141.199
X94.84Y-117.678
X94.869Y-121.133
X94.869Y-124.663
X96.901Y-103.962
X96.901Y-114.122
X96.952Y-100.66
X96.952Y-109.601
X98.196Y-141.199
X99.441Y-97.511
X101.6Y-55.88
X101.6Y-60.96
X101.6Y-66.04
X101.6Y-71.12
X101.6Y-76.2
X101.6Y-81.28
X101.6Y-86.36
X101.6Y-91.44
X102.387Y-103.962
X102.387Y-106.502
X102.387Y-109.042
X102.387Y-111.582
X102.387Y-114.122
X102.387Y-116.662
X102.387Y-119.202
X103.737Y-122.504
X103.759Y-125.654
X108.356Y-141.199
X108.737Y-122.504
X108.759Y-125.654
X109.22Y-55.88
X109.22Y-66.04
X109.22Y-81.28
X109.22Y-91.44
X110.007Y-103.962
X110.007Y-106.502
X110.007Y-109.042
X110.007Y-111.582
X110.007Y-114.122
X110.007Y-116.662
X110.007Y-119.202
X111.76Y-60.96
X111.76Y-71.12
X111.76Y-76.2
X111.76Y-86.36
X112.014Y-131.521
X113.436Y-127.762
X113.745Y-114.529
X113.817Y-103.657
X113.817Y-108.657
X113.817Y-111.328
X116.84Y-63.5
X116.84Y-88.9
X117.014Y-131.521
X117.424Y-119.202
X117.551Y-99.771
X118.745Y-114.529
X119.551Y-99.771
X119.558Y-106.553
X123.596Y-127.762
X123.596Y-130.788
X123.596Y-135.788
X123.977Y-111.328
X127.0Y-63.5
X127.0Y-88.9
X127.584Y-111.205
X127.584Y-116.205
X127.584Y-119.202
X129.007Y-123.723
X129.007Y-126.263
X129.007Y-128.803
X129.007Y-131.343
X129.007Y-133.883
X129.007Y-136.423
X129.007Y-138.963
X129.54Y-58.42
X129.718Y-106.553
X132.04Y-58.42
X135.23Y-101.27
X135.23Y-111.43
X136.55Y-114.732
X136.55Y-119.732
X136.627Y-123.723
X136.627Y-126.263
X136.627Y-128.803
X136.627Y-131.343
X136.627Y-133.883
X136.627Y-136.423
X136.627Y-138.963
X137.16Y-58.42
X137.16Y-63.5
X137.16Y-88.9
X138.735Y-101.27
X138.735Y-111.43
X139.66Y-58.42
X147.32Y-63.5
X147.32Y-88.9
T4
X60.96Y-75.438
X60.96Y-80.438
X119.38Y-71.12
X119.38Y-81.28
X121.92Y-71.12
X121.92Y-81.28
X124.46Y-71.12
X124.46Y-81.28
X134.112Y-71.12
X134.112Y-81.28
X136.652Y-71.12
X136.652Y-81.28
X139.192Y-71.12
X139.192Y-81.28
T5
X62.865Y-115.037
X62.865Y-117.577
X62.865Y-120.117
T6
X60.935Y-89.713
X60.935Y-93.213
X60.935Y-96.713
X60.935Y-100.213
X77.526Y-50.8
X81.026Y-50.8
X119.38Y-50.8
X119.38Y-55.8
X147.32Y-72.7
X147.32Y-76.2
X147.32Y-79.7
T0
M30
