G04 #@! TF.GenerationSoftware,KiCad,Pcbnew,(5.1.10-1-10_14)*
G04 #@! TF.CreationDate,2021-09-13T20:56:39+12:00*
G04 #@! TF.ProjectId,joint_pcb,6a6f696e-745f-4706-9362-2e6b69636164,rev?*
G04 #@! TF.SameCoordinates,Original*
G04 #@! TF.FileFunction,Soldermask,Top*
G04 #@! TF.FilePolarity,Negative*
%FSLAX46Y46*%
G04 Gerber Fmt 4.6, Leading zero omitted, Abs format (unit mm)*
G04 Created by KiCad (PCBNEW (5.1.10-1-10_14)) date 2021-09-13 20:56:39*
%MOMM*%
%LPD*%
G01*
G04 APERTURE LIST*
%ADD10R,2.410000X3.300000*%
%ADD11C,1.600000*%
%ADD12R,1.600000X1.600000*%
%ADD13R,2.400000X1.600000*%
%ADD14O,2.400000X1.600000*%
%ADD15R,2.000000X1.905000*%
%ADD16O,2.000000X1.905000*%
%ADD17O,1.600000X1.600000*%
%ADD18C,4.300000*%
%ADD19C,2.400000*%
%ADD20R,2.400000X2.400000*%
%ADD21C,1.200000*%
%ADD22R,1.200000X1.200000*%
%ADD23C,2.000000*%
%ADD24R,2.000000X2.000000*%
%ADD25C,1.422400*%
%ADD26R,1.422400X1.422400*%
G04 APERTURE END LIST*
D10*
X117297200Y-136448800D03*
G36*
G01*
X118797200Y-134693800D02*
X118797200Y-134393800D01*
G75*
G02*
X118947200Y-134243800I150000J0D01*
G01*
X120597200Y-134243800D01*
G75*
G02*
X120747200Y-134393800I0J-150000D01*
G01*
X120747200Y-134693800D01*
G75*
G02*
X120597200Y-134843800I-150000J0D01*
G01*
X118947200Y-134843800D01*
G75*
G02*
X118797200Y-134693800I0J150000D01*
G01*
G37*
G36*
G01*
X118797200Y-135963800D02*
X118797200Y-135663800D01*
G75*
G02*
X118947200Y-135513800I150000J0D01*
G01*
X120597200Y-135513800D01*
G75*
G02*
X120747200Y-135663800I0J-150000D01*
G01*
X120747200Y-135963800D01*
G75*
G02*
X120597200Y-136113800I-150000J0D01*
G01*
X118947200Y-136113800D01*
G75*
G02*
X118797200Y-135963800I0J150000D01*
G01*
G37*
G36*
G01*
X118797200Y-137233800D02*
X118797200Y-136933800D01*
G75*
G02*
X118947200Y-136783800I150000J0D01*
G01*
X120597200Y-136783800D01*
G75*
G02*
X120747200Y-136933800I0J-150000D01*
G01*
X120747200Y-137233800D01*
G75*
G02*
X120597200Y-137383800I-150000J0D01*
G01*
X118947200Y-137383800D01*
G75*
G02*
X118797200Y-137233800I0J150000D01*
G01*
G37*
G36*
G01*
X118797200Y-138503800D02*
X118797200Y-138203800D01*
G75*
G02*
X118947200Y-138053800I150000J0D01*
G01*
X120597200Y-138053800D01*
G75*
G02*
X120747200Y-138203800I0J-150000D01*
G01*
X120747200Y-138503800D01*
G75*
G02*
X120597200Y-138653800I-150000J0D01*
G01*
X118947200Y-138653800D01*
G75*
G02*
X118797200Y-138503800I0J150000D01*
G01*
G37*
G36*
G01*
X113847200Y-138503800D02*
X113847200Y-138203800D01*
G75*
G02*
X113997200Y-138053800I150000J0D01*
G01*
X115647200Y-138053800D01*
G75*
G02*
X115797200Y-138203800I0J-150000D01*
G01*
X115797200Y-138503800D01*
G75*
G02*
X115647200Y-138653800I-150000J0D01*
G01*
X113997200Y-138653800D01*
G75*
G02*
X113847200Y-138503800I0J150000D01*
G01*
G37*
G36*
G01*
X113847200Y-137233800D02*
X113847200Y-136933800D01*
G75*
G02*
X113997200Y-136783800I150000J0D01*
G01*
X115647200Y-136783800D01*
G75*
G02*
X115797200Y-136933800I0J-150000D01*
G01*
X115797200Y-137233800D01*
G75*
G02*
X115647200Y-137383800I-150000J0D01*
G01*
X113997200Y-137383800D01*
G75*
G02*
X113847200Y-137233800I0J150000D01*
G01*
G37*
G36*
G01*
X113847200Y-135963800D02*
X113847200Y-135663800D01*
G75*
G02*
X113997200Y-135513800I150000J0D01*
G01*
X115647200Y-135513800D01*
G75*
G02*
X115797200Y-135663800I0J-150000D01*
G01*
X115797200Y-135963800D01*
G75*
G02*
X115647200Y-136113800I-150000J0D01*
G01*
X113997200Y-136113800D01*
G75*
G02*
X113847200Y-135963800I0J150000D01*
G01*
G37*
G36*
G01*
X113847200Y-134693800D02*
X113847200Y-134393800D01*
G75*
G02*
X113997200Y-134243800I150000J0D01*
G01*
X115647200Y-134243800D01*
G75*
G02*
X115797200Y-134393800I0J-150000D01*
G01*
X115797200Y-134693800D01*
G75*
G02*
X115647200Y-134843800I-150000J0D01*
G01*
X113997200Y-134843800D01*
G75*
G02*
X113847200Y-134693800I0J150000D01*
G01*
G37*
D11*
X89839800Y-117678200D03*
X94839800Y-117678200D03*
X103759000Y-125653800D03*
X108759000Y-125653800D03*
X127584200Y-116205000D03*
X127584200Y-111205000D03*
D12*
X80264000Y-101854000D03*
D11*
X78264000Y-101854000D03*
X119398800Y-100533200D03*
D12*
X117398800Y-100533200D03*
X70942200Y-112395000D03*
D11*
X70942200Y-114395000D03*
X70942200Y-118929400D03*
D12*
X70942200Y-120929400D03*
D11*
X136550400Y-119731800D03*
X136550400Y-114731800D03*
D13*
X129006600Y-123723400D03*
D14*
X136626600Y-138963400D03*
X129006600Y-126263400D03*
X136626600Y-136423400D03*
X129006600Y-128803400D03*
X136626600Y-133883400D03*
X129006600Y-131343400D03*
X136626600Y-131343400D03*
X129006600Y-133883400D03*
X136626600Y-128803400D03*
X129006600Y-136423400D03*
X136626600Y-126263400D03*
X129006600Y-138963400D03*
X136626600Y-123723400D03*
X110007400Y-103962200D03*
X102387400Y-119202200D03*
X110007400Y-106502200D03*
X102387400Y-116662200D03*
X110007400Y-109042200D03*
X102387400Y-114122200D03*
X110007400Y-111582200D03*
X102387400Y-111582200D03*
X110007400Y-114122200D03*
X102387400Y-109042200D03*
X110007400Y-116662200D03*
X102387400Y-106502200D03*
X110007400Y-119202200D03*
D13*
X102387400Y-103962200D03*
D15*
X62865000Y-115036600D03*
D16*
X62865000Y-117576600D03*
X62865000Y-120116600D03*
D17*
X129717800Y-106553000D03*
D11*
X119557800Y-106553000D03*
D17*
X99441000Y-97510600D03*
D11*
X89281000Y-97510600D03*
D17*
X96951800Y-100660200D03*
D11*
X86791800Y-100660200D03*
X86741000Y-103962200D03*
D17*
X96901000Y-103962200D03*
D11*
X113817400Y-111328200D03*
D17*
X123977400Y-111328200D03*
D11*
X103737400Y-122504200D03*
X108737400Y-122504200D03*
X113745000Y-114528600D03*
X118745000Y-114528600D03*
X113817400Y-103657400D03*
X113817400Y-108657400D03*
X123596400Y-135788400D03*
X123596400Y-130788400D03*
D17*
X77063600Y-106629200D03*
D11*
X66903600Y-106629200D03*
X96901000Y-114122200D03*
D17*
X86741000Y-114122200D03*
D11*
X80238600Y-106553000D03*
D17*
X80238600Y-116713000D03*
X138734800Y-101269800D03*
D11*
X138734800Y-111429800D03*
D17*
X94869000Y-121132600D03*
D11*
X84709000Y-121132600D03*
X94869000Y-124663200D03*
D17*
X84709000Y-124663200D03*
D11*
X127584200Y-119202200D03*
D17*
X117424200Y-119202200D03*
X135229600Y-111429800D03*
D11*
X135229600Y-101269800D03*
X123596400Y-127762000D03*
D17*
X113436400Y-127762000D03*
D11*
X94411800Y-141198600D03*
D17*
X94411800Y-131038600D03*
X98196400Y-141198600D03*
D11*
X108356400Y-141198600D03*
D17*
X86233000Y-141173200D03*
D11*
X86233000Y-131013200D03*
X90347800Y-141147800D03*
D17*
X90347800Y-130987800D03*
X82228001Y-124994401D03*
D11*
X72068001Y-124994401D03*
X82219800Y-128955800D03*
D17*
X72059800Y-128955800D03*
D11*
X96951800Y-109601000D03*
X91951800Y-109601000D03*
X117014000Y-131521200D03*
X112014000Y-131521200D03*
D18*
X146964400Y-50241200D03*
D19*
X60934600Y-105496000D03*
X60934600Y-101996000D03*
X60934600Y-98496000D03*
D20*
X60934600Y-94996000D03*
D18*
X57658000Y-50241200D03*
X57658000Y-139598400D03*
X146964400Y-139598400D03*
D19*
X91750000Y-52070000D03*
D20*
X95250000Y-52070000D03*
D19*
X144780000Y-72756000D03*
X144780000Y-76256000D03*
D20*
X144780000Y-79756000D03*
D17*
X110998000Y-82550000D03*
D11*
X100838000Y-82550000D03*
D17*
X110998000Y-77978000D03*
D11*
X100838000Y-77978000D03*
D17*
X110998000Y-64770000D03*
D11*
X100838000Y-64770000D03*
D17*
X110998000Y-59690000D03*
D11*
X100838000Y-59690000D03*
D17*
X69342000Y-77470000D03*
D11*
X69342000Y-87630000D03*
D17*
X75438000Y-77470000D03*
D11*
X75438000Y-87630000D03*
D17*
X64262000Y-82550000D03*
D11*
X64262000Y-72390000D03*
D17*
X59182000Y-80010000D03*
D11*
X59182000Y-69850000D03*
D16*
X136906000Y-85598000D03*
X136906000Y-83058000D03*
D15*
X136906000Y-80518000D03*
D16*
X136906000Y-71882000D03*
X136906000Y-69342000D03*
D15*
X136906000Y-66802000D03*
D16*
X121666000Y-85598000D03*
X121666000Y-83058000D03*
D15*
X121666000Y-80518000D03*
D16*
X121666000Y-71882000D03*
X121666000Y-69342000D03*
D15*
X121666000Y-66802000D03*
D17*
X109982000Y-87122000D03*
D12*
X102362000Y-87122000D03*
D17*
X109474000Y-73406000D03*
D12*
X101854000Y-73406000D03*
D17*
X109474000Y-69342000D03*
D12*
X101854000Y-69342000D03*
D17*
X109474000Y-55118000D03*
D12*
X101854000Y-55118000D03*
D17*
X71628000Y-52070000D03*
D12*
X79248000Y-52070000D03*
D17*
X81026000Y-87630000D03*
D12*
X88646000Y-87630000D03*
D11*
X109474000Y-49062000D03*
X109474000Y-51562000D03*
X101854000Y-49022000D03*
X101854000Y-51522000D03*
D19*
X121666000Y-55546000D03*
D20*
X121666000Y-50546000D03*
D21*
X86868000Y-52070000D03*
D22*
X85368000Y-52070000D03*
D21*
X96750000Y-87630000D03*
D22*
X95250000Y-87630000D03*
D23*
X71628000Y-65960000D03*
D24*
X71628000Y-60960000D03*
D11*
X59730000Y-60960000D03*
X62230000Y-60960000D03*
X59730000Y-66040000D03*
X62230000Y-66040000D03*
D25*
X91694000Y-59690000D03*
X91694000Y-62230000D03*
X91694000Y-64770000D03*
X91694000Y-67310000D03*
X91694000Y-69850000D03*
X91694000Y-72390000D03*
X91694000Y-74930000D03*
X91694000Y-77470000D03*
X91694000Y-80010000D03*
X91694000Y-82550000D03*
X84074000Y-82550000D03*
X84074000Y-80010000D03*
X84074000Y-77470000D03*
X84074000Y-74930000D03*
X84074000Y-72390000D03*
X84074000Y-69850000D03*
X84074000Y-67310000D03*
X84074000Y-64770000D03*
X84074000Y-62230000D03*
D26*
X84074000Y-59690000D03*
M02*
