G04 #@! TF.GenerationSoftware,KiCad,Pcbnew,(5.1.10-1-10_14)*
G04 #@! TF.CreationDate,2021-09-13T20:56:39+12:00*
G04 #@! TF.ProjectId,joint_pcb,6a6f696e-745f-4706-9362-2e6b69636164,rev?*
G04 #@! TF.SameCoordinates,Original*
G04 #@! TF.FileFunction,Paste,Top*
G04 #@! TF.FilePolarity,Positive*
%FSLAX46Y46*%
G04 Gerber Fmt 4.6, Leading zero omitted, Abs format (unit mm)*
G04 Created by KiCad (PCBNEW (5.1.10-1-10_14)) date 2021-09-13 20:56:39*
%MOMM*%
%LPD*%
G01*
G04 APERTURE LIST*
G04 APERTURE END LIST*
G36*
G01*
X117412200Y-137696300D02*
X117412200Y-136851300D01*
G75*
G02*
X117654700Y-136608800I242500J0D01*
G01*
X118139700Y-136608800D01*
G75*
G02*
X118382200Y-136851300I0J-242500D01*
G01*
X118382200Y-137696300D01*
G75*
G02*
X118139700Y-137938800I-242500J0D01*
G01*
X117654700Y-137938800D01*
G75*
G02*
X117412200Y-137696300I0J242500D01*
G01*
G37*
G36*
G01*
X117412200Y-136046300D02*
X117412200Y-135201300D01*
G75*
G02*
X117654700Y-134958800I242500J0D01*
G01*
X118139700Y-134958800D01*
G75*
G02*
X118382200Y-135201300I0J-242500D01*
G01*
X118382200Y-136046300D01*
G75*
G02*
X118139700Y-136288800I-242500J0D01*
G01*
X117654700Y-136288800D01*
G75*
G02*
X117412200Y-136046300I0J242500D01*
G01*
G37*
G36*
G01*
X116212200Y-137696300D02*
X116212200Y-136851300D01*
G75*
G02*
X116454700Y-136608800I242500J0D01*
G01*
X116939700Y-136608800D01*
G75*
G02*
X117182200Y-136851300I0J-242500D01*
G01*
X117182200Y-137696300D01*
G75*
G02*
X116939700Y-137938800I-242500J0D01*
G01*
X116454700Y-137938800D01*
G75*
G02*
X116212200Y-137696300I0J242500D01*
G01*
G37*
G36*
G01*
X116212200Y-136046300D02*
X116212200Y-135201300D01*
G75*
G02*
X116454700Y-134958800I242500J0D01*
G01*
X116939700Y-134958800D01*
G75*
G02*
X117182200Y-135201300I0J-242500D01*
G01*
X117182200Y-136046300D01*
G75*
G02*
X116939700Y-136288800I-242500J0D01*
G01*
X116454700Y-136288800D01*
G75*
G02*
X116212200Y-136046300I0J242500D01*
G01*
G37*
G36*
G01*
X118797200Y-134693800D02*
X118797200Y-134393800D01*
G75*
G02*
X118947200Y-134243800I150000J0D01*
G01*
X120597200Y-134243800D01*
G75*
G02*
X120747200Y-134393800I0J-150000D01*
G01*
X120747200Y-134693800D01*
G75*
G02*
X120597200Y-134843800I-150000J0D01*
G01*
X118947200Y-134843800D01*
G75*
G02*
X118797200Y-134693800I0J150000D01*
G01*
G37*
G36*
G01*
X118797200Y-135963800D02*
X118797200Y-135663800D01*
G75*
G02*
X118947200Y-135513800I150000J0D01*
G01*
X120597200Y-135513800D01*
G75*
G02*
X120747200Y-135663800I0J-150000D01*
G01*
X120747200Y-135963800D01*
G75*
G02*
X120597200Y-136113800I-150000J0D01*
G01*
X118947200Y-136113800D01*
G75*
G02*
X118797200Y-135963800I0J150000D01*
G01*
G37*
G36*
G01*
X118797200Y-137233800D02*
X118797200Y-136933800D01*
G75*
G02*
X118947200Y-136783800I150000J0D01*
G01*
X120597200Y-136783800D01*
G75*
G02*
X120747200Y-136933800I0J-150000D01*
G01*
X120747200Y-137233800D01*
G75*
G02*
X120597200Y-137383800I-150000J0D01*
G01*
X118947200Y-137383800D01*
G75*
G02*
X118797200Y-137233800I0J150000D01*
G01*
G37*
G36*
G01*
X118797200Y-138503800D02*
X118797200Y-138203800D01*
G75*
G02*
X118947200Y-138053800I150000J0D01*
G01*
X120597200Y-138053800D01*
G75*
G02*
X120747200Y-138203800I0J-150000D01*
G01*
X120747200Y-138503800D01*
G75*
G02*
X120597200Y-138653800I-150000J0D01*
G01*
X118947200Y-138653800D01*
G75*
G02*
X118797200Y-138503800I0J150000D01*
G01*
G37*
G36*
G01*
X113847200Y-138503800D02*
X113847200Y-138203800D01*
G75*
G02*
X113997200Y-138053800I150000J0D01*
G01*
X115647200Y-138053800D01*
G75*
G02*
X115797200Y-138203800I0J-150000D01*
G01*
X115797200Y-138503800D01*
G75*
G02*
X115647200Y-138653800I-150000J0D01*
G01*
X113997200Y-138653800D01*
G75*
G02*
X113847200Y-138503800I0J150000D01*
G01*
G37*
G36*
G01*
X113847200Y-137233800D02*
X113847200Y-136933800D01*
G75*
G02*
X113997200Y-136783800I150000J0D01*
G01*
X115647200Y-136783800D01*
G75*
G02*
X115797200Y-136933800I0J-150000D01*
G01*
X115797200Y-137233800D01*
G75*
G02*
X115647200Y-137383800I-150000J0D01*
G01*
X113997200Y-137383800D01*
G75*
G02*
X113847200Y-137233800I0J150000D01*
G01*
G37*
G36*
G01*
X113847200Y-135963800D02*
X113847200Y-135663800D01*
G75*
G02*
X113997200Y-135513800I150000J0D01*
G01*
X115647200Y-135513800D01*
G75*
G02*
X115797200Y-135663800I0J-150000D01*
G01*
X115797200Y-135963800D01*
G75*
G02*
X115647200Y-136113800I-150000J0D01*
G01*
X113997200Y-136113800D01*
G75*
G02*
X113847200Y-135963800I0J150000D01*
G01*
G37*
G36*
G01*
X113847200Y-134693800D02*
X113847200Y-134393800D01*
G75*
G02*
X113997200Y-134243800I150000J0D01*
G01*
X115647200Y-134243800D01*
G75*
G02*
X115797200Y-134393800I0J-150000D01*
G01*
X115797200Y-134693800D01*
G75*
G02*
X115647200Y-134843800I-150000J0D01*
G01*
X113997200Y-134843800D01*
G75*
G02*
X113847200Y-134693800I0J150000D01*
G01*
G37*
M02*
