%FSLAX45Y45*%
G04 Gerber Fmt 4.5, Leading zero omitted, Abs format (unit mm)*
G04 Created by KiCad (PCBNEW (5.1.10-1-10_14)) date 2021-09-13 20:57:13*
%MOMM*%
%LPD*%
G01*
G04 APERTURE LIST*
%TA.AperFunction,Profile*%
%ADD10C,0.050000*%
%TD*%
%ADD11C,0.200000*%
%ADD12C,0.300000*%
G04 APERTURE END LIST*
D10*
X5236760Y-4947440D02*
X5236760Y-14020320D01*
X5699040Y-14482600D02*
X14771920Y-14482600D01*
X15234200Y-14020320D02*
X15234200Y-4947440D01*
X14771920Y-4485160D02*
X5699040Y-4485160D01*
X5236760Y-4947440D02*
G75*
G02*
X5699040Y-4485160I462280J0D01*
G01*
X5699040Y-14482600D02*
G75*
G02*
X5236760Y-14020320I0J462280D01*
G01*
X15234200Y-14020320D02*
G75*
G02*
X14771920Y-14482600I-462280J0D01*
G01*
X14771920Y-4485160D02*
G75*
G02*
X15234200Y-4947440I0J-462280D01*
G01*
D11*
X11399840Y-13817920D02*
X11439840Y-13857920D01*
X11439840Y-13817920D02*
X11399840Y-13857920D01*
X11402380Y-13688380D02*
X11442380Y-13728380D01*
X11442380Y-13688380D02*
X11402380Y-13728380D01*
X12019600Y-13685840D02*
X12059600Y-13725840D01*
X12059600Y-13685840D02*
X12019600Y-13725840D01*
X8566800Y-5207000D02*
G75*
G03*
X8566800Y-5207000I-30000J0D01*
G01*
X8716800Y-5207000D02*
G75*
G03*
X8716800Y-5207000I-30000J0D01*
G01*
X9555000Y-8763000D02*
G75*
G03*
X9555000Y-8763000I-30000J0D01*
G01*
X9705000Y-8763000D02*
G75*
G03*
X9705000Y-8763000I-30000J0D01*
G01*
X5918200Y-6945000D02*
X5918200Y-7025000D01*
X5878200Y-6985000D02*
X5958200Y-6985000D01*
X5918200Y-7961000D02*
X5918200Y-8041000D01*
X5878200Y-8001000D02*
X5958200Y-8001000D01*
X5973000Y-6056000D02*
X5973000Y-6136000D01*
X5933000Y-6096000D02*
X6013000Y-6096000D01*
X5973000Y-6564000D02*
X5973000Y-6644000D01*
X5933000Y-6604000D02*
X6013000Y-6604000D01*
X6223000Y-6056000D02*
X6223000Y-6136000D01*
X6183000Y-6096000D02*
X6263000Y-6096000D01*
X6223000Y-6564000D02*
X6223000Y-6644000D01*
X6183000Y-6604000D02*
X6263000Y-6604000D01*
X6426200Y-7199000D02*
X6426200Y-7279000D01*
X6386200Y-7239000D02*
X6466200Y-7239000D01*
X6426200Y-8215000D02*
X6426200Y-8295000D01*
X6386200Y-8255000D02*
X6466200Y-8255000D01*
X6690360Y-10622920D02*
X6690360Y-10702920D01*
X6650360Y-10662920D02*
X6730360Y-10662920D01*
X6934200Y-7707000D02*
X6934200Y-7787000D01*
X6894200Y-7747000D02*
X6974200Y-7747000D01*
X6934200Y-8723000D02*
X6934200Y-8803000D01*
X6894200Y-8763000D02*
X6974200Y-8763000D01*
X7094220Y-11199500D02*
X7094220Y-11279500D01*
X7054220Y-11239500D02*
X7134220Y-11239500D01*
X7094220Y-11399500D02*
X7094220Y-11479500D01*
X7054220Y-11439500D02*
X7134220Y-11439500D01*
X7094220Y-11852940D02*
X7094220Y-11932940D01*
X7054220Y-11892940D02*
X7134220Y-11892940D01*
X7094220Y-12052940D02*
X7094220Y-12132940D01*
X7054220Y-12092940D02*
X7134220Y-12092940D01*
X7162800Y-5167000D02*
X7162800Y-5247000D01*
X7122800Y-5207000D02*
X7202800Y-5207000D01*
X7205980Y-12855580D02*
X7205980Y-12935580D01*
X7165980Y-12895580D02*
X7245980Y-12895580D01*
X7206800Y-12459440D02*
X7206800Y-12539440D01*
X7166800Y-12499440D02*
X7246800Y-12499440D01*
X7543800Y-7707000D02*
X7543800Y-7787000D01*
X7503800Y-7747000D02*
X7583800Y-7747000D01*
X7543800Y-8723000D02*
X7543800Y-8803000D01*
X7503800Y-8763000D02*
X7583800Y-8763000D01*
X7706360Y-10622920D02*
X7706360Y-10702920D01*
X7666360Y-10662920D02*
X7746360Y-10662920D01*
X7826400Y-10145400D02*
X7826400Y-10225400D01*
X7786400Y-10185400D02*
X7866400Y-10185400D01*
X7924800Y-5167000D02*
X7924800Y-5247000D01*
X7884800Y-5207000D02*
X7964800Y-5207000D01*
X8023860Y-10615300D02*
X8023860Y-10695300D01*
X7983860Y-10655300D02*
X8063860Y-10655300D01*
X8023860Y-11631300D02*
X8023860Y-11711300D01*
X7983860Y-11671300D02*
X8063860Y-11671300D01*
X8026400Y-10145400D02*
X8026400Y-10225400D01*
X7986400Y-10185400D02*
X8066400Y-10185400D01*
X8102600Y-8723000D02*
X8102600Y-8803000D01*
X8062600Y-8763000D02*
X8142600Y-8763000D01*
X8221980Y-12855580D02*
X8221980Y-12935580D01*
X8181980Y-12895580D02*
X8261980Y-12895580D01*
X8222800Y-12459440D02*
X8222800Y-12539440D01*
X8182800Y-12499440D02*
X8262800Y-12499440D01*
X8470900Y-12073260D02*
X8470900Y-12153260D01*
X8430900Y-12113260D02*
X8510900Y-12113260D01*
X8470900Y-12426320D02*
X8470900Y-12506320D01*
X8430900Y-12466320D02*
X8510900Y-12466320D01*
X8623300Y-13061320D02*
X8623300Y-13141320D01*
X8583300Y-13101320D02*
X8663300Y-13101320D01*
X8623300Y-14077320D02*
X8623300Y-14157320D01*
X8583300Y-14117320D02*
X8663300Y-14117320D01*
X8674100Y-10356220D02*
X8674100Y-10436220D01*
X8634100Y-10396220D02*
X8714100Y-10396220D01*
X8674100Y-11372220D02*
X8674100Y-11452220D01*
X8634100Y-11412220D02*
X8714100Y-11412220D01*
X8679180Y-10026020D02*
X8679180Y-10106020D01*
X8639180Y-10066020D02*
X8719180Y-10066020D01*
X8864600Y-8723000D02*
X8864600Y-8803000D01*
X8824600Y-8763000D02*
X8904600Y-8763000D01*
X8928100Y-9711060D02*
X8928100Y-9791060D01*
X8888100Y-9751060D02*
X8968100Y-9751060D01*
X8983980Y-11727820D02*
X8983980Y-11807820D01*
X8943980Y-11767820D02*
X9023980Y-11767820D01*
X9034780Y-13058780D02*
X9034780Y-13138780D01*
X8994780Y-13098780D02*
X9074780Y-13098780D01*
X9034780Y-14074780D02*
X9034780Y-14154780D01*
X8994780Y-14114780D02*
X9074780Y-14114780D01*
X9195180Y-10920100D02*
X9195180Y-11000100D01*
X9155180Y-10960100D02*
X9235180Y-10960100D01*
X9441180Y-13063860D02*
X9441180Y-13143860D01*
X9401180Y-13103860D02*
X9481180Y-13103860D01*
X9441180Y-14079860D02*
X9441180Y-14159860D01*
X9401180Y-14119860D02*
X9481180Y-14119860D01*
X9483980Y-11727820D02*
X9483980Y-11807820D01*
X9443980Y-11767820D02*
X9523980Y-11767820D01*
X9486900Y-12073260D02*
X9486900Y-12153260D01*
X9446900Y-12113260D02*
X9526900Y-12113260D01*
X9486900Y-12426320D02*
X9486900Y-12506320D01*
X9446900Y-12466320D02*
X9526900Y-12466320D01*
X9690100Y-10356220D02*
X9690100Y-10436220D01*
X9650100Y-10396220D02*
X9730100Y-10396220D01*
X9690100Y-11372220D02*
X9690100Y-11452220D01*
X9650100Y-11412220D02*
X9730100Y-11412220D01*
X9695180Y-10026020D02*
X9695180Y-10106020D01*
X9655180Y-10066020D02*
X9735180Y-10066020D01*
X9695180Y-10920100D02*
X9695180Y-11000100D01*
X9655180Y-10960100D02*
X9735180Y-10960100D01*
X9819640Y-14079860D02*
X9819640Y-14159860D01*
X9779640Y-14119860D02*
X9859640Y-14119860D01*
X9944100Y-9711060D02*
X9944100Y-9791060D01*
X9904100Y-9751060D02*
X9984100Y-9751060D01*
X10083800Y-5929000D02*
X10083800Y-6009000D01*
X10043800Y-5969000D02*
X10123800Y-5969000D01*
X10083800Y-6437000D02*
X10083800Y-6517000D01*
X10043800Y-6477000D02*
X10123800Y-6477000D01*
X10083800Y-7757800D02*
X10083800Y-7837800D01*
X10043800Y-7797800D02*
X10123800Y-7797800D01*
X10083800Y-8215000D02*
X10083800Y-8295000D01*
X10043800Y-8255000D02*
X10123800Y-8255000D01*
X10185400Y-4862200D02*
X10185400Y-4942200D01*
X10145400Y-4902200D02*
X10225400Y-4902200D01*
X10185400Y-5112200D02*
X10185400Y-5192200D01*
X10145400Y-5152200D02*
X10225400Y-5152200D01*
X10185400Y-5471800D02*
X10185400Y-5551800D01*
X10145400Y-5511800D02*
X10225400Y-5511800D01*
X10185400Y-6894200D02*
X10185400Y-6974200D01*
X10145400Y-6934200D02*
X10225400Y-6934200D01*
X10185400Y-7300600D02*
X10185400Y-7380600D01*
X10145400Y-7340600D02*
X10225400Y-7340600D01*
X10236200Y-8672200D02*
X10236200Y-8752200D01*
X10196200Y-8712200D02*
X10276200Y-8712200D01*
X10238740Y-10356220D02*
X10238740Y-10436220D01*
X10198740Y-10396220D02*
X10278740Y-10396220D01*
X10238740Y-10610220D02*
X10238740Y-10690220D01*
X10198740Y-10650220D02*
X10278740Y-10650220D01*
X10238740Y-10864220D02*
X10238740Y-10944220D01*
X10198740Y-10904220D02*
X10278740Y-10904220D01*
X10238740Y-11118220D02*
X10238740Y-11198220D01*
X10198740Y-11158220D02*
X10278740Y-11158220D01*
X10238740Y-11372220D02*
X10238740Y-11452220D01*
X10198740Y-11412220D02*
X10278740Y-11412220D01*
X10238740Y-11626220D02*
X10238740Y-11706220D01*
X10198740Y-11666220D02*
X10278740Y-11666220D01*
X10238740Y-11880220D02*
X10238740Y-11960220D01*
X10198740Y-11920220D02*
X10278740Y-11920220D01*
X10373740Y-12210420D02*
X10373740Y-12290420D01*
X10333740Y-12250420D02*
X10413740Y-12250420D01*
X10375900Y-12525380D02*
X10375900Y-12605380D01*
X10335900Y-12565380D02*
X10415900Y-12565380D01*
X10835640Y-14079860D02*
X10835640Y-14159860D01*
X10795640Y-14119860D02*
X10875640Y-14119860D01*
X10873740Y-12210420D02*
X10873740Y-12290420D01*
X10833740Y-12250420D02*
X10913740Y-12250420D01*
X10875900Y-12525380D02*
X10875900Y-12605380D01*
X10835900Y-12565380D02*
X10915900Y-12565380D01*
X10947400Y-4866200D02*
X10947400Y-4946200D01*
X10907400Y-4906200D02*
X10987400Y-4906200D01*
X10947400Y-5116200D02*
X10947400Y-5196200D01*
X10907400Y-5156200D02*
X10987400Y-5156200D01*
X10947400Y-5471800D02*
X10947400Y-5551800D01*
X10907400Y-5511800D02*
X10987400Y-5511800D01*
X10947400Y-6894200D02*
X10947400Y-6974200D01*
X10907400Y-6934200D02*
X10987400Y-6934200D01*
X10947400Y-7300600D02*
X10947400Y-7380600D01*
X10907400Y-7340600D02*
X10987400Y-7340600D01*
X10998200Y-8672200D02*
X10998200Y-8752200D01*
X10958200Y-8712200D02*
X11038200Y-8712200D01*
X11000740Y-10356220D02*
X11000740Y-10436220D01*
X10960740Y-10396220D02*
X11040740Y-10396220D01*
X11000740Y-10610220D02*
X11000740Y-10690220D01*
X10960740Y-10650220D02*
X11040740Y-10650220D01*
X11000740Y-10864220D02*
X11000740Y-10944220D01*
X10960740Y-10904220D02*
X11040740Y-10904220D01*
X11000740Y-11118220D02*
X11000740Y-11198220D01*
X10960740Y-11158220D02*
X11040740Y-11158220D01*
X11000740Y-11372220D02*
X11000740Y-11452220D01*
X10960740Y-11412220D02*
X11040740Y-11412220D01*
X11000740Y-11626220D02*
X11000740Y-11706220D01*
X10960740Y-11666220D02*
X11040740Y-11666220D01*
X11000740Y-11880220D02*
X11000740Y-11960220D01*
X10960740Y-11920220D02*
X11040740Y-11920220D01*
X11099800Y-5929000D02*
X11099800Y-6009000D01*
X11059800Y-5969000D02*
X11139800Y-5969000D01*
X11099800Y-6437000D02*
X11099800Y-6517000D01*
X11059800Y-6477000D02*
X11139800Y-6477000D01*
X11099800Y-7757800D02*
X11099800Y-7837800D01*
X11059800Y-7797800D02*
X11139800Y-7797800D01*
X11099800Y-8215000D02*
X11099800Y-8295000D01*
X11059800Y-8255000D02*
X11139800Y-8255000D01*
X11201400Y-13112120D02*
X11201400Y-13192120D01*
X11161400Y-13152120D02*
X11241400Y-13152120D01*
X11343640Y-12736200D02*
X11343640Y-12816200D01*
X11303640Y-12776200D02*
X11383640Y-12776200D01*
X11374500Y-11412860D02*
X11374500Y-11492860D01*
X11334500Y-11452860D02*
X11414500Y-11452860D01*
X11381740Y-10325740D02*
X11381740Y-10405740D01*
X11341740Y-10365740D02*
X11421740Y-10365740D01*
X11381740Y-10825740D02*
X11381740Y-10905740D01*
X11341740Y-10865740D02*
X11421740Y-10865740D01*
X11381740Y-11092820D02*
X11381740Y-11172820D01*
X11341740Y-11132820D02*
X11421740Y-11132820D01*
X11701400Y-13112120D02*
X11701400Y-13192120D01*
X11661400Y-13152120D02*
X11741400Y-13152120D01*
X11739880Y-10013320D02*
X11739880Y-10093320D01*
X11699880Y-10053320D02*
X11779880Y-10053320D01*
X11742420Y-11880220D02*
X11742420Y-11960220D01*
X11702420Y-11920220D02*
X11782420Y-11920220D01*
X11874500Y-11412860D02*
X11874500Y-11492860D01*
X11834500Y-11452860D02*
X11914500Y-11452860D01*
X11939880Y-10013320D02*
X11939880Y-10093320D01*
X11899880Y-10053320D02*
X11979880Y-10053320D01*
X11955780Y-10615300D02*
X11955780Y-10695300D01*
X11915780Y-10655300D02*
X11995780Y-10655300D01*
X12359640Y-12736200D02*
X12359640Y-12816200D01*
X12319640Y-12776200D02*
X12399640Y-12776200D01*
X12359640Y-13038840D02*
X12359640Y-13118840D01*
X12319640Y-13078840D02*
X12399640Y-13078840D01*
X12359640Y-13538840D02*
X12359640Y-13618840D01*
X12319640Y-13578840D02*
X12399640Y-13578840D01*
X12397740Y-11092820D02*
X12397740Y-11172820D01*
X12357740Y-11132820D02*
X12437740Y-11132820D01*
X12758420Y-11080500D02*
X12758420Y-11160500D01*
X12718420Y-11120500D02*
X12798420Y-11120500D01*
X12758420Y-11580500D02*
X12758420Y-11660500D01*
X12718420Y-11620500D02*
X12798420Y-11620500D01*
X12758420Y-11880220D02*
X12758420Y-11960220D01*
X12718420Y-11920220D02*
X12798420Y-11920220D01*
X12900660Y-12332340D02*
X12900660Y-12412340D01*
X12860660Y-12372340D02*
X12940660Y-12372340D01*
X12900660Y-12586340D02*
X12900660Y-12666340D01*
X12860660Y-12626340D02*
X12940660Y-12626340D01*
X12900660Y-12840340D02*
X12900660Y-12920340D01*
X12860660Y-12880340D02*
X12940660Y-12880340D01*
X12900660Y-13094340D02*
X12900660Y-13174340D01*
X12860660Y-13134340D02*
X12940660Y-13134340D01*
X12900660Y-13348340D02*
X12900660Y-13428340D01*
X12860660Y-13388340D02*
X12940660Y-13388340D01*
X12900660Y-13602340D02*
X12900660Y-13682340D01*
X12860660Y-13642340D02*
X12940660Y-13642340D01*
X12900660Y-13856340D02*
X12900660Y-13936340D01*
X12860660Y-13896340D02*
X12940660Y-13896340D01*
X12971780Y-10615300D02*
X12971780Y-10695300D01*
X12931780Y-10655300D02*
X13011780Y-10655300D01*
X13522960Y-10086980D02*
X13522960Y-10166980D01*
X13482960Y-10126980D02*
X13562960Y-10126980D01*
X13522960Y-11102980D02*
X13522960Y-11182980D01*
X13482960Y-11142980D02*
X13562960Y-11142980D01*
X13655040Y-11433180D02*
X13655040Y-11513180D01*
X13615040Y-11473180D02*
X13695040Y-11473180D01*
X13655040Y-11933180D02*
X13655040Y-12013180D01*
X13615040Y-11973180D02*
X13695040Y-11973180D01*
X13662660Y-12332340D02*
X13662660Y-12412340D01*
X13622660Y-12372340D02*
X13702660Y-12372340D01*
X13662660Y-12586340D02*
X13662660Y-12666340D01*
X13622660Y-12626340D02*
X13702660Y-12626340D01*
X13662660Y-12840340D02*
X13662660Y-12920340D01*
X13622660Y-12880340D02*
X13702660Y-12880340D01*
X13662660Y-13094340D02*
X13662660Y-13174340D01*
X13622660Y-13134340D02*
X13702660Y-13134340D01*
X13662660Y-13348340D02*
X13662660Y-13428340D01*
X13622660Y-13388340D02*
X13702660Y-13388340D01*
X13662660Y-13602340D02*
X13662660Y-13682340D01*
X13622660Y-13642340D02*
X13702660Y-13642340D01*
X13662660Y-13856340D02*
X13662660Y-13936340D01*
X13622660Y-13896340D02*
X13702660Y-13896340D01*
X13873480Y-10086980D02*
X13873480Y-10166980D01*
X13833480Y-10126980D02*
X13913480Y-10126980D01*
X13873480Y-11102980D02*
X13873480Y-11182980D01*
X13833480Y-11142980D02*
X13913480Y-11142980D01*
X8439729Y-6001329D02*
X8439729Y-5936671D01*
X8375071Y-5936671D01*
X8375071Y-6001329D01*
X8439729Y-6001329D01*
X8439729Y-6255329D02*
X8439729Y-6190671D01*
X8375071Y-6190671D01*
X8375071Y-6255329D01*
X8439729Y-6255329D01*
X8439729Y-6509329D02*
X8439729Y-6444671D01*
X8375071Y-6444671D01*
X8375071Y-6509329D01*
X8439729Y-6509329D01*
X8439729Y-6763329D02*
X8439729Y-6698671D01*
X8375071Y-6698671D01*
X8375071Y-6763329D01*
X8439729Y-6763329D01*
X8439729Y-7017329D02*
X8439729Y-6952671D01*
X8375071Y-6952671D01*
X8375071Y-7017329D01*
X8439729Y-7017329D01*
X8439729Y-7271329D02*
X8439729Y-7206671D01*
X8375071Y-7206671D01*
X8375071Y-7271329D01*
X8439729Y-7271329D01*
X8439729Y-7525329D02*
X8439729Y-7460671D01*
X8375071Y-7460671D01*
X8375071Y-7525329D01*
X8439729Y-7525329D01*
X8439729Y-7779329D02*
X8439729Y-7714671D01*
X8375071Y-7714671D01*
X8375071Y-7779329D01*
X8439729Y-7779329D01*
X8439729Y-8033329D02*
X8439729Y-7968671D01*
X8375071Y-7968671D01*
X8375071Y-8033329D01*
X8439729Y-8033329D01*
X8439729Y-8287329D02*
X8439729Y-8222671D01*
X8375071Y-8222671D01*
X8375071Y-8287329D01*
X8439729Y-8287329D01*
X9201729Y-6001329D02*
X9201729Y-5936671D01*
X9137071Y-5936671D01*
X9137071Y-6001329D01*
X9201729Y-6001329D01*
X9201729Y-6255329D02*
X9201729Y-6190671D01*
X9137071Y-6190671D01*
X9137071Y-6255329D01*
X9201729Y-6255329D01*
X9201729Y-6509329D02*
X9201729Y-6444671D01*
X9137071Y-6444671D01*
X9137071Y-6509329D01*
X9201729Y-6509329D01*
X9201729Y-6763329D02*
X9201729Y-6698671D01*
X9137071Y-6698671D01*
X9137071Y-6763329D01*
X9201729Y-6763329D01*
X9201729Y-7017329D02*
X9201729Y-6952671D01*
X9137071Y-6952671D01*
X9137071Y-7017329D01*
X9201729Y-7017329D01*
X9201729Y-7271329D02*
X9201729Y-7206671D01*
X9137071Y-7206671D01*
X9137071Y-7271329D01*
X9201729Y-7271329D01*
X9201729Y-7525329D02*
X9201729Y-7460671D01*
X9137071Y-7460671D01*
X9137071Y-7525329D01*
X9201729Y-7525329D01*
X9201729Y-7779329D02*
X9201729Y-7714671D01*
X9137071Y-7714671D01*
X9137071Y-7779329D01*
X9201729Y-7779329D01*
X9201729Y-8033329D02*
X9201729Y-7968671D01*
X9137071Y-7968671D01*
X9137071Y-8033329D01*
X9201729Y-8033329D01*
X9201729Y-8287329D02*
X9201729Y-8222671D01*
X9137071Y-8222671D01*
X9137071Y-8287329D01*
X9201729Y-8287329D01*
X7162800Y-6146000D02*
X7212800Y-6096000D01*
X7162800Y-6046000D01*
X7112800Y-6096000D01*
X7162800Y-6146000D01*
X7162800Y-6646000D02*
X7212800Y-6596000D01*
X7162800Y-6546000D01*
X7112800Y-6596000D01*
X7162800Y-6646000D01*
X6231500Y-11448660D02*
X6341500Y-11558660D01*
X6341500Y-11448660D02*
X6231500Y-11558660D01*
X6341500Y-11503660D02*
G75*
G03*
X6341500Y-11503660I-55000J0D01*
G01*
X6231500Y-11702660D02*
X6341500Y-11812660D01*
X6341500Y-11702660D02*
X6231500Y-11812660D01*
X6341500Y-11757660D02*
G75*
G03*
X6341500Y-11757660I-55000J0D01*
G01*
X6231500Y-11956660D02*
X6341500Y-12066660D01*
X6341500Y-11956660D02*
X6231500Y-12066660D01*
X6341500Y-12011660D02*
G75*
G03*
X6341500Y-12011660I-55000J0D01*
G01*
X12111600Y-6625200D02*
X12221600Y-6735200D01*
X12221600Y-6625200D02*
X12111600Y-6735200D01*
X12221600Y-6680200D02*
G75*
G03*
X12221600Y-6680200I-55000J0D01*
G01*
X12111600Y-6879200D02*
X12221600Y-6989200D01*
X12221600Y-6879200D02*
X12111600Y-6989200D01*
X12221600Y-6934200D02*
G75*
G03*
X12221600Y-6934200I-55000J0D01*
G01*
X12111600Y-7133200D02*
X12221600Y-7243200D01*
X12221600Y-7133200D02*
X12111600Y-7243200D01*
X12221600Y-7188200D02*
G75*
G03*
X12221600Y-7188200I-55000J0D01*
G01*
X12111600Y-7996800D02*
X12221600Y-8106800D01*
X12221600Y-7996800D02*
X12111600Y-8106800D01*
X12221600Y-8051800D02*
G75*
G03*
X12221600Y-8051800I-55000J0D01*
G01*
X12111600Y-8250800D02*
X12221600Y-8360800D01*
X12221600Y-8250800D02*
X12111600Y-8360800D01*
X12221600Y-8305800D02*
G75*
G03*
X12221600Y-8305800I-55000J0D01*
G01*
X12111600Y-8504800D02*
X12221600Y-8614800D01*
X12221600Y-8504800D02*
X12111600Y-8614800D01*
X12221600Y-8559800D02*
G75*
G03*
X12221600Y-8559800I-55000J0D01*
G01*
X13635600Y-6625200D02*
X13745600Y-6735200D01*
X13745600Y-6625200D02*
X13635600Y-6735200D01*
X13745600Y-6680200D02*
G75*
G03*
X13745600Y-6680200I-55000J0D01*
G01*
X13635600Y-6879200D02*
X13745600Y-6989200D01*
X13745600Y-6879200D02*
X13635600Y-6989200D01*
X13745600Y-6934200D02*
G75*
G03*
X13745600Y-6934200I-55000J0D01*
G01*
X13635600Y-7133200D02*
X13745600Y-7243200D01*
X13745600Y-7133200D02*
X13635600Y-7243200D01*
X13745600Y-7188200D02*
G75*
G03*
X13745600Y-7188200I-55000J0D01*
G01*
X13635600Y-7996800D02*
X13745600Y-8106800D01*
X13745600Y-7996800D02*
X13635600Y-8106800D01*
X13745600Y-8051800D02*
G75*
G03*
X13745600Y-8051800I-55000J0D01*
G01*
X13635600Y-8250800D02*
X13745600Y-8360800D01*
X13745600Y-8250800D02*
X13635600Y-8360800D01*
X13745600Y-8305800D02*
G75*
G03*
X13745600Y-8305800I-55000J0D01*
G01*
X13635600Y-8504800D02*
X13745600Y-8614800D01*
X13745600Y-8504800D02*
X13635600Y-8614800D01*
X13745600Y-8559800D02*
G75*
G03*
X13745600Y-8559800I-55000J0D01*
G01*
X6033460Y-9439600D02*
X6153460Y-9559600D01*
X6153460Y-9439600D02*
X6033460Y-9559600D01*
X6093460Y-9439600D02*
X6093460Y-9559600D01*
X6033460Y-9499600D02*
X6153460Y-9499600D01*
X6033460Y-9789600D02*
X6153460Y-9909600D01*
X6153460Y-9789600D02*
X6033460Y-9909600D01*
X6093460Y-9789600D02*
X6093460Y-9909600D01*
X6033460Y-9849600D02*
X6153460Y-9849600D01*
X6033460Y-10139600D02*
X6153460Y-10259600D01*
X6153460Y-10139600D02*
X6033460Y-10259600D01*
X6093460Y-10139600D02*
X6093460Y-10259600D01*
X6033460Y-10199600D02*
X6153460Y-10199600D01*
X6033460Y-10489600D02*
X6153460Y-10609600D01*
X6153460Y-10489600D02*
X6033460Y-10609600D01*
X6093460Y-10489600D02*
X6093460Y-10609600D01*
X6033460Y-10549600D02*
X6153460Y-10549600D01*
X9115000Y-5147000D02*
X9235000Y-5267000D01*
X9235000Y-5147000D02*
X9115000Y-5267000D01*
X9175000Y-5147000D02*
X9175000Y-5267000D01*
X9115000Y-5207000D02*
X9235000Y-5207000D01*
X9465000Y-5147000D02*
X9585000Y-5267000D01*
X9585000Y-5147000D02*
X9465000Y-5267000D01*
X9525000Y-5147000D02*
X9525000Y-5267000D01*
X9465000Y-5207000D02*
X9585000Y-5207000D01*
X12106600Y-4994600D02*
X12226600Y-5114600D01*
X12226600Y-4994600D02*
X12106600Y-5114600D01*
X12166600Y-4994600D02*
X12166600Y-5114600D01*
X12106600Y-5054600D02*
X12226600Y-5054600D01*
X12106600Y-5494600D02*
X12226600Y-5614600D01*
X12226600Y-5494600D02*
X12106600Y-5614600D01*
X12166600Y-5494600D02*
X12166600Y-5614600D01*
X12106600Y-5554600D02*
X12226600Y-5554600D01*
X14418000Y-7215600D02*
X14538000Y-7335600D01*
X14538000Y-7215600D02*
X14418000Y-7335600D01*
X14478000Y-7215600D02*
X14478000Y-7335600D01*
X14418000Y-7275600D02*
X14538000Y-7275600D01*
X14418000Y-7565600D02*
X14538000Y-7685600D01*
X14538000Y-7565600D02*
X14418000Y-7685600D01*
X14478000Y-7565600D02*
X14478000Y-7685600D01*
X14418000Y-7625600D02*
X14538000Y-7625600D01*
X14418000Y-7915600D02*
X14538000Y-8035600D01*
X14538000Y-7915600D02*
X14418000Y-8035600D01*
X14478000Y-7915600D02*
X14478000Y-8035600D01*
X14418000Y-7975600D02*
X14538000Y-7975600D01*
D12*
X5520688Y-14950814D02*
X5520688Y-14650814D01*
X5592117Y-14650814D01*
X5634974Y-14665100D01*
X5663546Y-14693671D01*
X5677831Y-14722243D01*
X5692117Y-14779386D01*
X5692117Y-14822243D01*
X5677831Y-14879386D01*
X5663546Y-14907957D01*
X5634974Y-14936529D01*
X5592117Y-14950814D01*
X5520688Y-14950814D01*
X5820688Y-14950814D02*
X5820688Y-14750814D01*
X5820688Y-14807957D02*
X5834974Y-14779386D01*
X5849260Y-14765100D01*
X5877831Y-14750814D01*
X5906403Y-14750814D01*
X6006403Y-14950814D02*
X6006403Y-14750814D01*
X6006403Y-14650814D02*
X5992117Y-14665100D01*
X6006403Y-14679386D01*
X6020688Y-14665100D01*
X6006403Y-14650814D01*
X6006403Y-14679386D01*
X6192117Y-14950814D02*
X6163546Y-14936529D01*
X6149260Y-14907957D01*
X6149260Y-14650814D01*
X6349260Y-14950814D02*
X6320688Y-14936529D01*
X6306403Y-14907957D01*
X6306403Y-14650814D01*
X6692117Y-14950814D02*
X6692117Y-14650814D01*
X6792117Y-14865100D01*
X6892117Y-14650814D01*
X6892117Y-14950814D01*
X7163546Y-14950814D02*
X7163546Y-14793671D01*
X7149260Y-14765100D01*
X7120688Y-14750814D01*
X7063546Y-14750814D01*
X7034974Y-14765100D01*
X7163546Y-14936529D02*
X7134974Y-14950814D01*
X7063546Y-14950814D01*
X7034974Y-14936529D01*
X7020688Y-14907957D01*
X7020688Y-14879386D01*
X7034974Y-14850814D01*
X7063546Y-14836529D01*
X7134974Y-14836529D01*
X7163546Y-14822243D01*
X7306403Y-14750814D02*
X7306403Y-15050814D01*
X7306403Y-14765100D02*
X7334974Y-14750814D01*
X7392117Y-14750814D01*
X7420688Y-14765100D01*
X7434974Y-14779386D01*
X7449260Y-14807957D01*
X7449260Y-14893671D01*
X7434974Y-14922243D01*
X7420688Y-14936529D01*
X7392117Y-14950814D01*
X7334974Y-14950814D01*
X7306403Y-14936529D01*
X7577831Y-14922243D02*
X7592117Y-14936529D01*
X7577831Y-14950814D01*
X7563546Y-14936529D01*
X7577831Y-14922243D01*
X7577831Y-14950814D01*
X7577831Y-14765100D02*
X7592117Y-14779386D01*
X7577831Y-14793671D01*
X7563546Y-14779386D01*
X7577831Y-14765100D01*
X7577831Y-14793671D01*
X5194260Y-15425100D02*
X5234260Y-15465100D01*
X5234260Y-15425100D02*
X5194260Y-15465100D01*
X5577831Y-15280814D02*
X5606403Y-15280814D01*
X5634974Y-15295100D01*
X5649260Y-15309386D01*
X5663546Y-15337957D01*
X5677831Y-15395100D01*
X5677831Y-15466529D01*
X5663546Y-15523671D01*
X5649260Y-15552243D01*
X5634974Y-15566529D01*
X5606403Y-15580814D01*
X5577831Y-15580814D01*
X5549260Y-15566529D01*
X5534974Y-15552243D01*
X5520688Y-15523671D01*
X5506403Y-15466529D01*
X5506403Y-15395100D01*
X5520688Y-15337957D01*
X5534974Y-15309386D01*
X5549260Y-15295100D01*
X5577831Y-15280814D01*
X5806403Y-15552243D02*
X5820688Y-15566529D01*
X5806403Y-15580814D01*
X5792117Y-15566529D01*
X5806403Y-15552243D01*
X5806403Y-15580814D01*
X6077831Y-15380814D02*
X6077831Y-15580814D01*
X6006403Y-15266529D02*
X5934974Y-15480814D01*
X6120688Y-15480814D01*
X6292117Y-15280814D02*
X6320688Y-15280814D01*
X6349260Y-15295100D01*
X6363546Y-15309386D01*
X6377831Y-15337957D01*
X6392117Y-15395100D01*
X6392117Y-15466529D01*
X6377831Y-15523671D01*
X6363546Y-15552243D01*
X6349260Y-15566529D01*
X6320688Y-15580814D01*
X6292117Y-15580814D01*
X6263546Y-15566529D01*
X6249260Y-15552243D01*
X6234974Y-15523671D01*
X6220688Y-15466529D01*
X6220688Y-15395100D01*
X6234974Y-15337957D01*
X6249260Y-15309386D01*
X6263546Y-15295100D01*
X6292117Y-15280814D01*
X6577831Y-15280814D02*
X6606403Y-15280814D01*
X6634974Y-15295100D01*
X6649260Y-15309386D01*
X6663546Y-15337957D01*
X6677831Y-15395100D01*
X6677831Y-15466529D01*
X6663546Y-15523671D01*
X6649260Y-15552243D01*
X6634974Y-15566529D01*
X6606403Y-15580814D01*
X6577831Y-15580814D01*
X6549260Y-15566529D01*
X6534974Y-15552243D01*
X6520688Y-15523671D01*
X6506403Y-15466529D01*
X6506403Y-15395100D01*
X6520688Y-15337957D01*
X6534974Y-15309386D01*
X6549260Y-15295100D01*
X6577831Y-15280814D01*
X6806403Y-15580814D02*
X6806403Y-15380814D01*
X6806403Y-15409386D02*
X6820688Y-15395100D01*
X6849260Y-15380814D01*
X6892117Y-15380814D01*
X6920688Y-15395100D01*
X6934974Y-15423671D01*
X6934974Y-15580814D01*
X6934974Y-15423671D02*
X6949260Y-15395100D01*
X6977831Y-15380814D01*
X7020688Y-15380814D01*
X7049260Y-15395100D01*
X7063546Y-15423671D01*
X7063546Y-15580814D01*
X7206403Y-15580814D02*
X7206403Y-15380814D01*
X7206403Y-15409386D02*
X7220688Y-15395100D01*
X7249260Y-15380814D01*
X7292117Y-15380814D01*
X7320688Y-15395100D01*
X7334974Y-15423671D01*
X7334974Y-15580814D01*
X7334974Y-15423671D02*
X7349260Y-15395100D01*
X7377831Y-15380814D01*
X7420688Y-15380814D01*
X7449260Y-15395100D01*
X7463546Y-15423671D01*
X7463546Y-15580814D01*
X8049260Y-15266529D02*
X7792117Y-15652243D01*
X8434974Y-15280814D02*
X8463546Y-15280814D01*
X8492117Y-15295100D01*
X8506403Y-15309386D01*
X8520688Y-15337957D01*
X8534974Y-15395100D01*
X8534974Y-15466529D01*
X8520688Y-15523671D01*
X8506403Y-15552243D01*
X8492117Y-15566529D01*
X8463546Y-15580814D01*
X8434974Y-15580814D01*
X8406403Y-15566529D01*
X8392117Y-15552243D01*
X8377831Y-15523671D01*
X8363546Y-15466529D01*
X8363546Y-15395100D01*
X8377831Y-15337957D01*
X8392117Y-15309386D01*
X8406403Y-15295100D01*
X8434974Y-15280814D01*
X8663546Y-15552243D02*
X8677831Y-15566529D01*
X8663546Y-15580814D01*
X8649260Y-15566529D01*
X8663546Y-15552243D01*
X8663546Y-15580814D01*
X8863546Y-15280814D02*
X8892117Y-15280814D01*
X8920688Y-15295100D01*
X8934974Y-15309386D01*
X8949260Y-15337957D01*
X8963546Y-15395100D01*
X8963546Y-15466529D01*
X8949260Y-15523671D01*
X8934974Y-15552243D01*
X8920688Y-15566529D01*
X8892117Y-15580814D01*
X8863546Y-15580814D01*
X8834974Y-15566529D01*
X8820688Y-15552243D01*
X8806403Y-15523671D01*
X8792117Y-15466529D01*
X8792117Y-15395100D01*
X8806403Y-15337957D01*
X8820688Y-15309386D01*
X8834974Y-15295100D01*
X8863546Y-15280814D01*
X9249260Y-15580814D02*
X9077831Y-15580814D01*
X9163546Y-15580814D02*
X9163546Y-15280814D01*
X9134974Y-15323671D01*
X9106403Y-15352243D01*
X9077831Y-15366529D01*
X9520688Y-15280814D02*
X9377831Y-15280814D01*
X9363546Y-15423671D01*
X9377831Y-15409386D01*
X9406403Y-15395100D01*
X9477831Y-15395100D01*
X9506403Y-15409386D01*
X9520688Y-15423671D01*
X9534974Y-15452243D01*
X9534974Y-15523671D01*
X9520688Y-15552243D01*
X9506403Y-15566529D01*
X9477831Y-15580814D01*
X9406403Y-15580814D01*
X9377831Y-15566529D01*
X9363546Y-15552243D01*
X9634974Y-15280814D02*
X9834974Y-15280814D01*
X9706403Y-15580814D01*
X9934974Y-15280814D02*
X9934974Y-15337957D01*
X10049260Y-15280814D02*
X10049260Y-15337957D01*
X10492117Y-15695100D02*
X10477831Y-15680814D01*
X10449260Y-15637957D01*
X10434974Y-15609386D01*
X10420688Y-15566529D01*
X10406403Y-15495100D01*
X10406403Y-15437957D01*
X10420688Y-15366529D01*
X10434974Y-15323671D01*
X10449260Y-15295100D01*
X10477831Y-15252243D01*
X10492117Y-15237957D01*
X10577831Y-15280814D02*
X10763546Y-15280814D01*
X10663546Y-15395100D01*
X10706403Y-15395100D01*
X10734974Y-15409386D01*
X10749260Y-15423671D01*
X10763546Y-15452243D01*
X10763546Y-15523671D01*
X10749260Y-15552243D01*
X10734974Y-15566529D01*
X10706403Y-15580814D01*
X10620688Y-15580814D01*
X10592117Y-15566529D01*
X10577831Y-15552243D01*
X11120688Y-15580814D02*
X11120688Y-15280814D01*
X11249260Y-15580814D02*
X11249260Y-15423671D01*
X11234974Y-15395100D01*
X11206403Y-15380814D01*
X11163546Y-15380814D01*
X11134974Y-15395100D01*
X11120688Y-15409386D01*
X11434974Y-15580814D02*
X11406403Y-15566529D01*
X11392117Y-15552243D01*
X11377831Y-15523671D01*
X11377831Y-15437957D01*
X11392117Y-15409386D01*
X11406403Y-15395100D01*
X11434974Y-15380814D01*
X11477831Y-15380814D01*
X11506403Y-15395100D01*
X11520688Y-15409386D01*
X11534974Y-15437957D01*
X11534974Y-15523671D01*
X11520688Y-15552243D01*
X11506403Y-15566529D01*
X11477831Y-15580814D01*
X11434974Y-15580814D01*
X11706403Y-15580814D02*
X11677831Y-15566529D01*
X11663546Y-15537957D01*
X11663546Y-15280814D01*
X11934974Y-15566529D02*
X11906403Y-15580814D01*
X11849260Y-15580814D01*
X11820688Y-15566529D01*
X11806403Y-15537957D01*
X11806403Y-15423671D01*
X11820688Y-15395100D01*
X11849260Y-15380814D01*
X11906403Y-15380814D01*
X11934974Y-15395100D01*
X11949260Y-15423671D01*
X11949260Y-15452243D01*
X11806403Y-15480814D01*
X12063546Y-15566529D02*
X12092117Y-15580814D01*
X12149260Y-15580814D01*
X12177831Y-15566529D01*
X12192117Y-15537957D01*
X12192117Y-15523671D01*
X12177831Y-15495100D01*
X12149260Y-15480814D01*
X12106403Y-15480814D01*
X12077831Y-15466529D01*
X12063546Y-15437957D01*
X12063546Y-15423671D01*
X12077831Y-15395100D01*
X12106403Y-15380814D01*
X12149260Y-15380814D01*
X12177831Y-15395100D01*
X12292117Y-15695100D02*
X12306403Y-15680814D01*
X12334974Y-15637957D01*
X12349260Y-15609386D01*
X12363546Y-15566529D01*
X12377831Y-15495100D01*
X12377831Y-15437957D01*
X12363546Y-15366529D01*
X12349260Y-15323671D01*
X12334974Y-15295100D01*
X12306403Y-15252243D01*
X12292117Y-15237957D01*
X5234260Y-15841100D02*
G75*
G03*
X5234260Y-15841100I-30000J0D01*
G01*
X5577831Y-15676814D02*
X5606403Y-15676814D01*
X5634974Y-15691100D01*
X5649260Y-15705386D01*
X5663546Y-15733957D01*
X5677831Y-15791100D01*
X5677831Y-15862529D01*
X5663546Y-15919671D01*
X5649260Y-15948243D01*
X5634974Y-15962529D01*
X5606403Y-15976814D01*
X5577831Y-15976814D01*
X5549260Y-15962529D01*
X5534974Y-15948243D01*
X5520688Y-15919671D01*
X5506403Y-15862529D01*
X5506403Y-15791100D01*
X5520688Y-15733957D01*
X5534974Y-15705386D01*
X5549260Y-15691100D01*
X5577831Y-15676814D01*
X5806403Y-15948243D02*
X5820688Y-15962529D01*
X5806403Y-15976814D01*
X5792117Y-15962529D01*
X5806403Y-15948243D01*
X5806403Y-15976814D01*
X6077831Y-15676814D02*
X6020688Y-15676814D01*
X5992117Y-15691100D01*
X5977831Y-15705386D01*
X5949260Y-15748243D01*
X5934974Y-15805386D01*
X5934974Y-15919671D01*
X5949260Y-15948243D01*
X5963546Y-15962529D01*
X5992117Y-15976814D01*
X6049260Y-15976814D01*
X6077831Y-15962529D01*
X6092117Y-15948243D01*
X6106403Y-15919671D01*
X6106403Y-15848243D01*
X6092117Y-15819671D01*
X6077831Y-15805386D01*
X6049260Y-15791100D01*
X5992117Y-15791100D01*
X5963546Y-15805386D01*
X5949260Y-15819671D01*
X5934974Y-15848243D01*
X6292117Y-15676814D02*
X6320688Y-15676814D01*
X6349260Y-15691100D01*
X6363546Y-15705386D01*
X6377831Y-15733957D01*
X6392117Y-15791100D01*
X6392117Y-15862529D01*
X6377831Y-15919671D01*
X6363546Y-15948243D01*
X6349260Y-15962529D01*
X6320688Y-15976814D01*
X6292117Y-15976814D01*
X6263546Y-15962529D01*
X6249260Y-15948243D01*
X6234974Y-15919671D01*
X6220688Y-15862529D01*
X6220688Y-15791100D01*
X6234974Y-15733957D01*
X6249260Y-15705386D01*
X6263546Y-15691100D01*
X6292117Y-15676814D01*
X6577831Y-15676814D02*
X6606403Y-15676814D01*
X6634974Y-15691100D01*
X6649260Y-15705386D01*
X6663546Y-15733957D01*
X6677831Y-15791100D01*
X6677831Y-15862529D01*
X6663546Y-15919671D01*
X6649260Y-15948243D01*
X6634974Y-15962529D01*
X6606403Y-15976814D01*
X6577831Y-15976814D01*
X6549260Y-15962529D01*
X6534974Y-15948243D01*
X6520688Y-15919671D01*
X6506403Y-15862529D01*
X6506403Y-15791100D01*
X6520688Y-15733957D01*
X6534974Y-15705386D01*
X6549260Y-15691100D01*
X6577831Y-15676814D01*
X6806403Y-15976814D02*
X6806403Y-15776814D01*
X6806403Y-15805386D02*
X6820688Y-15791100D01*
X6849260Y-15776814D01*
X6892117Y-15776814D01*
X6920688Y-15791100D01*
X6934974Y-15819671D01*
X6934974Y-15976814D01*
X6934974Y-15819671D02*
X6949260Y-15791100D01*
X6977831Y-15776814D01*
X7020688Y-15776814D01*
X7049260Y-15791100D01*
X7063546Y-15819671D01*
X7063546Y-15976814D01*
X7206403Y-15976814D02*
X7206403Y-15776814D01*
X7206403Y-15805386D02*
X7220688Y-15791100D01*
X7249260Y-15776814D01*
X7292117Y-15776814D01*
X7320688Y-15791100D01*
X7334974Y-15819671D01*
X7334974Y-15976814D01*
X7334974Y-15819671D02*
X7349260Y-15791100D01*
X7377831Y-15776814D01*
X7420688Y-15776814D01*
X7449260Y-15791100D01*
X7463546Y-15819671D01*
X7463546Y-15976814D01*
X8049260Y-15662529D02*
X7792117Y-16048243D01*
X8434974Y-15676814D02*
X8463546Y-15676814D01*
X8492117Y-15691100D01*
X8506403Y-15705386D01*
X8520688Y-15733957D01*
X8534974Y-15791100D01*
X8534974Y-15862529D01*
X8520688Y-15919671D01*
X8506403Y-15948243D01*
X8492117Y-15962529D01*
X8463546Y-15976814D01*
X8434974Y-15976814D01*
X8406403Y-15962529D01*
X8392117Y-15948243D01*
X8377831Y-15919671D01*
X8363546Y-15862529D01*
X8363546Y-15791100D01*
X8377831Y-15733957D01*
X8392117Y-15705386D01*
X8406403Y-15691100D01*
X8434974Y-15676814D01*
X8663546Y-15948243D02*
X8677831Y-15962529D01*
X8663546Y-15976814D01*
X8649260Y-15962529D01*
X8663546Y-15948243D01*
X8663546Y-15976814D01*
X8863546Y-15676814D02*
X8892117Y-15676814D01*
X8920688Y-15691100D01*
X8934974Y-15705386D01*
X8949260Y-15733957D01*
X8963546Y-15791100D01*
X8963546Y-15862529D01*
X8949260Y-15919671D01*
X8934974Y-15948243D01*
X8920688Y-15962529D01*
X8892117Y-15976814D01*
X8863546Y-15976814D01*
X8834974Y-15962529D01*
X8820688Y-15948243D01*
X8806403Y-15919671D01*
X8792117Y-15862529D01*
X8792117Y-15791100D01*
X8806403Y-15733957D01*
X8820688Y-15705386D01*
X8834974Y-15691100D01*
X8863546Y-15676814D01*
X9077831Y-15705386D02*
X9092117Y-15691100D01*
X9120688Y-15676814D01*
X9192117Y-15676814D01*
X9220688Y-15691100D01*
X9234974Y-15705386D01*
X9249260Y-15733957D01*
X9249260Y-15762529D01*
X9234974Y-15805386D01*
X9063546Y-15976814D01*
X9249260Y-15976814D01*
X9349260Y-15676814D02*
X9534974Y-15676814D01*
X9434974Y-15791100D01*
X9477831Y-15791100D01*
X9506403Y-15805386D01*
X9520688Y-15819671D01*
X9534974Y-15848243D01*
X9534974Y-15919671D01*
X9520688Y-15948243D01*
X9506403Y-15962529D01*
X9477831Y-15976814D01*
X9392117Y-15976814D01*
X9363546Y-15962529D01*
X9349260Y-15948243D01*
X9792117Y-15676814D02*
X9734974Y-15676814D01*
X9706403Y-15691100D01*
X9692117Y-15705386D01*
X9663546Y-15748243D01*
X9649260Y-15805386D01*
X9649260Y-15919671D01*
X9663546Y-15948243D01*
X9677831Y-15962529D01*
X9706403Y-15976814D01*
X9763546Y-15976814D01*
X9792117Y-15962529D01*
X9806403Y-15948243D01*
X9820688Y-15919671D01*
X9820688Y-15848243D01*
X9806403Y-15819671D01*
X9792117Y-15805386D01*
X9763546Y-15791100D01*
X9706403Y-15791100D01*
X9677831Y-15805386D01*
X9663546Y-15819671D01*
X9649260Y-15848243D01*
X9934974Y-15676814D02*
X9934974Y-15733957D01*
X10049260Y-15676814D02*
X10049260Y-15733957D01*
X10492117Y-16091100D02*
X10477831Y-16076814D01*
X10449260Y-16033957D01*
X10434974Y-16005386D01*
X10420688Y-15962529D01*
X10406403Y-15891100D01*
X10406403Y-15833957D01*
X10420688Y-15762529D01*
X10434974Y-15719671D01*
X10449260Y-15691100D01*
X10477831Y-15648243D01*
X10492117Y-15633957D01*
X10734974Y-15776814D02*
X10734974Y-15976814D01*
X10663546Y-15662529D02*
X10592117Y-15876814D01*
X10777831Y-15876814D01*
X11120688Y-15976814D02*
X11120688Y-15676814D01*
X11249260Y-15976814D02*
X11249260Y-15819671D01*
X11234974Y-15791100D01*
X11206403Y-15776814D01*
X11163546Y-15776814D01*
X11134974Y-15791100D01*
X11120688Y-15805386D01*
X11434974Y-15976814D02*
X11406403Y-15962529D01*
X11392117Y-15948243D01*
X11377831Y-15919671D01*
X11377831Y-15833957D01*
X11392117Y-15805386D01*
X11406403Y-15791100D01*
X11434974Y-15776814D01*
X11477831Y-15776814D01*
X11506403Y-15791100D01*
X11520688Y-15805386D01*
X11534974Y-15833957D01*
X11534974Y-15919671D01*
X11520688Y-15948243D01*
X11506403Y-15962529D01*
X11477831Y-15976814D01*
X11434974Y-15976814D01*
X11706403Y-15976814D02*
X11677831Y-15962529D01*
X11663546Y-15933957D01*
X11663546Y-15676814D01*
X11934974Y-15962529D02*
X11906403Y-15976814D01*
X11849260Y-15976814D01*
X11820688Y-15962529D01*
X11806403Y-15933957D01*
X11806403Y-15819671D01*
X11820688Y-15791100D01*
X11849260Y-15776814D01*
X11906403Y-15776814D01*
X11934974Y-15791100D01*
X11949260Y-15819671D01*
X11949260Y-15848243D01*
X11806403Y-15876814D01*
X12063546Y-15962529D02*
X12092117Y-15976814D01*
X12149260Y-15976814D01*
X12177831Y-15962529D01*
X12192117Y-15933957D01*
X12192117Y-15919671D01*
X12177831Y-15891100D01*
X12149260Y-15876814D01*
X12106403Y-15876814D01*
X12077831Y-15862529D01*
X12063546Y-15833957D01*
X12063546Y-15819671D01*
X12077831Y-15791100D01*
X12106403Y-15776814D01*
X12149260Y-15776814D01*
X12177831Y-15791100D01*
X12292117Y-16091100D02*
X12306403Y-16076814D01*
X12334974Y-16033957D01*
X12349260Y-16005386D01*
X12363546Y-15962529D01*
X12377831Y-15891100D01*
X12377831Y-15833957D01*
X12363546Y-15762529D01*
X12349260Y-15719671D01*
X12334974Y-15691100D01*
X12306403Y-15648243D01*
X12292117Y-15633957D01*
X5194260Y-16197100D02*
X5194260Y-16277100D01*
X5154260Y-16237100D02*
X5234260Y-16237100D01*
X5577831Y-16072814D02*
X5606403Y-16072814D01*
X5634974Y-16087100D01*
X5649260Y-16101386D01*
X5663546Y-16129957D01*
X5677831Y-16187100D01*
X5677831Y-16258529D01*
X5663546Y-16315671D01*
X5649260Y-16344243D01*
X5634974Y-16358529D01*
X5606403Y-16372814D01*
X5577831Y-16372814D01*
X5549260Y-16358529D01*
X5534974Y-16344243D01*
X5520688Y-16315671D01*
X5506403Y-16258529D01*
X5506403Y-16187100D01*
X5520688Y-16129957D01*
X5534974Y-16101386D01*
X5549260Y-16087100D01*
X5577831Y-16072814D01*
X5806403Y-16344243D02*
X5820688Y-16358529D01*
X5806403Y-16372814D01*
X5792117Y-16358529D01*
X5806403Y-16344243D01*
X5806403Y-16372814D01*
X5992117Y-16201386D02*
X5963546Y-16187100D01*
X5949260Y-16172814D01*
X5934974Y-16144243D01*
X5934974Y-16129957D01*
X5949260Y-16101386D01*
X5963546Y-16087100D01*
X5992117Y-16072814D01*
X6049260Y-16072814D01*
X6077831Y-16087100D01*
X6092117Y-16101386D01*
X6106403Y-16129957D01*
X6106403Y-16144243D01*
X6092117Y-16172814D01*
X6077831Y-16187100D01*
X6049260Y-16201386D01*
X5992117Y-16201386D01*
X5963546Y-16215671D01*
X5949260Y-16229957D01*
X5934974Y-16258529D01*
X5934974Y-16315671D01*
X5949260Y-16344243D01*
X5963546Y-16358529D01*
X5992117Y-16372814D01*
X6049260Y-16372814D01*
X6077831Y-16358529D01*
X6092117Y-16344243D01*
X6106403Y-16315671D01*
X6106403Y-16258529D01*
X6092117Y-16229957D01*
X6077831Y-16215671D01*
X6049260Y-16201386D01*
X6292117Y-16072814D02*
X6320688Y-16072814D01*
X6349260Y-16087100D01*
X6363546Y-16101386D01*
X6377831Y-16129957D01*
X6392117Y-16187100D01*
X6392117Y-16258529D01*
X6377831Y-16315671D01*
X6363546Y-16344243D01*
X6349260Y-16358529D01*
X6320688Y-16372814D01*
X6292117Y-16372814D01*
X6263546Y-16358529D01*
X6249260Y-16344243D01*
X6234974Y-16315671D01*
X6220688Y-16258529D01*
X6220688Y-16187100D01*
X6234974Y-16129957D01*
X6249260Y-16101386D01*
X6263546Y-16087100D01*
X6292117Y-16072814D01*
X6577831Y-16072814D02*
X6606403Y-16072814D01*
X6634974Y-16087100D01*
X6649260Y-16101386D01*
X6663546Y-16129957D01*
X6677831Y-16187100D01*
X6677831Y-16258529D01*
X6663546Y-16315671D01*
X6649260Y-16344243D01*
X6634974Y-16358529D01*
X6606403Y-16372814D01*
X6577831Y-16372814D01*
X6549260Y-16358529D01*
X6534974Y-16344243D01*
X6520688Y-16315671D01*
X6506403Y-16258529D01*
X6506403Y-16187100D01*
X6520688Y-16129957D01*
X6534974Y-16101386D01*
X6549260Y-16087100D01*
X6577831Y-16072814D01*
X6806403Y-16372814D02*
X6806403Y-16172814D01*
X6806403Y-16201386D02*
X6820688Y-16187100D01*
X6849260Y-16172814D01*
X6892117Y-16172814D01*
X6920688Y-16187100D01*
X6934974Y-16215671D01*
X6934974Y-16372814D01*
X6934974Y-16215671D02*
X6949260Y-16187100D01*
X6977831Y-16172814D01*
X7020688Y-16172814D01*
X7049260Y-16187100D01*
X7063546Y-16215671D01*
X7063546Y-16372814D01*
X7206403Y-16372814D02*
X7206403Y-16172814D01*
X7206403Y-16201386D02*
X7220688Y-16187100D01*
X7249260Y-16172814D01*
X7292117Y-16172814D01*
X7320688Y-16187100D01*
X7334974Y-16215671D01*
X7334974Y-16372814D01*
X7334974Y-16215671D02*
X7349260Y-16187100D01*
X7377831Y-16172814D01*
X7420688Y-16172814D01*
X7449260Y-16187100D01*
X7463546Y-16215671D01*
X7463546Y-16372814D01*
X8049260Y-16058529D02*
X7792117Y-16444243D01*
X8434974Y-16072814D02*
X8463546Y-16072814D01*
X8492117Y-16087100D01*
X8506403Y-16101386D01*
X8520688Y-16129957D01*
X8534974Y-16187100D01*
X8534974Y-16258529D01*
X8520688Y-16315671D01*
X8506403Y-16344243D01*
X8492117Y-16358529D01*
X8463546Y-16372814D01*
X8434974Y-16372814D01*
X8406403Y-16358529D01*
X8392117Y-16344243D01*
X8377831Y-16315671D01*
X8363546Y-16258529D01*
X8363546Y-16187100D01*
X8377831Y-16129957D01*
X8392117Y-16101386D01*
X8406403Y-16087100D01*
X8434974Y-16072814D01*
X8663546Y-16344243D02*
X8677831Y-16358529D01*
X8663546Y-16372814D01*
X8649260Y-16358529D01*
X8663546Y-16344243D01*
X8663546Y-16372814D01*
X8863546Y-16072814D02*
X8892117Y-16072814D01*
X8920688Y-16087100D01*
X8934974Y-16101386D01*
X8949260Y-16129957D01*
X8963546Y-16187100D01*
X8963546Y-16258529D01*
X8949260Y-16315671D01*
X8934974Y-16344243D01*
X8920688Y-16358529D01*
X8892117Y-16372814D01*
X8863546Y-16372814D01*
X8834974Y-16358529D01*
X8820688Y-16344243D01*
X8806403Y-16315671D01*
X8792117Y-16258529D01*
X8792117Y-16187100D01*
X8806403Y-16129957D01*
X8820688Y-16101386D01*
X8834974Y-16087100D01*
X8863546Y-16072814D01*
X9063546Y-16072814D02*
X9249260Y-16072814D01*
X9149260Y-16187100D01*
X9192117Y-16187100D01*
X9220688Y-16201386D01*
X9234974Y-16215671D01*
X9249260Y-16244243D01*
X9249260Y-16315671D01*
X9234974Y-16344243D01*
X9220688Y-16358529D01*
X9192117Y-16372814D01*
X9106403Y-16372814D01*
X9077831Y-16358529D01*
X9063546Y-16344243D01*
X9534974Y-16372814D02*
X9363546Y-16372814D01*
X9449260Y-16372814D02*
X9449260Y-16072814D01*
X9420688Y-16115671D01*
X9392117Y-16144243D01*
X9363546Y-16158529D01*
X9806403Y-16072814D02*
X9663546Y-16072814D01*
X9649260Y-16215671D01*
X9663546Y-16201386D01*
X9692117Y-16187100D01*
X9763546Y-16187100D01*
X9792117Y-16201386D01*
X9806403Y-16215671D01*
X9820688Y-16244243D01*
X9820688Y-16315671D01*
X9806403Y-16344243D01*
X9792117Y-16358529D01*
X9763546Y-16372814D01*
X9692117Y-16372814D01*
X9663546Y-16358529D01*
X9649260Y-16344243D01*
X9934974Y-16072814D02*
X9934974Y-16129957D01*
X10049260Y-16072814D02*
X10049260Y-16129957D01*
X10492117Y-16487100D02*
X10477831Y-16472814D01*
X10449260Y-16429957D01*
X10434974Y-16401386D01*
X10420688Y-16358529D01*
X10406403Y-16287100D01*
X10406403Y-16229957D01*
X10420688Y-16158529D01*
X10434974Y-16115671D01*
X10449260Y-16087100D01*
X10477831Y-16044243D01*
X10492117Y-16029957D01*
X10763546Y-16372814D02*
X10592117Y-16372814D01*
X10677831Y-16372814D02*
X10677831Y-16072814D01*
X10649260Y-16115671D01*
X10620688Y-16144243D01*
X10592117Y-16158529D01*
X10863546Y-16072814D02*
X11049260Y-16072814D01*
X10949260Y-16187100D01*
X10992117Y-16187100D01*
X11020688Y-16201386D01*
X11034974Y-16215671D01*
X11049260Y-16244243D01*
X11049260Y-16315671D01*
X11034974Y-16344243D01*
X11020688Y-16358529D01*
X10992117Y-16372814D01*
X10906403Y-16372814D01*
X10877831Y-16358529D01*
X10863546Y-16344243D01*
X11163546Y-16101386D02*
X11177831Y-16087100D01*
X11206403Y-16072814D01*
X11277831Y-16072814D01*
X11306403Y-16087100D01*
X11320688Y-16101386D01*
X11334974Y-16129957D01*
X11334974Y-16158529D01*
X11320688Y-16201386D01*
X11149260Y-16372814D01*
X11334974Y-16372814D01*
X11692117Y-16372814D02*
X11692117Y-16072814D01*
X11820688Y-16372814D02*
X11820688Y-16215671D01*
X11806403Y-16187100D01*
X11777831Y-16172814D01*
X11734974Y-16172814D01*
X11706403Y-16187100D01*
X11692117Y-16201386D01*
X12006403Y-16372814D02*
X11977831Y-16358529D01*
X11963546Y-16344243D01*
X11949260Y-16315671D01*
X11949260Y-16229957D01*
X11963546Y-16201386D01*
X11977831Y-16187100D01*
X12006403Y-16172814D01*
X12049260Y-16172814D01*
X12077831Y-16187100D01*
X12092117Y-16201386D01*
X12106403Y-16229957D01*
X12106403Y-16315671D01*
X12092117Y-16344243D01*
X12077831Y-16358529D01*
X12049260Y-16372814D01*
X12006403Y-16372814D01*
X12277831Y-16372814D02*
X12249260Y-16358529D01*
X12234974Y-16329957D01*
X12234974Y-16072814D01*
X12506403Y-16358529D02*
X12477831Y-16372814D01*
X12420688Y-16372814D01*
X12392117Y-16358529D01*
X12377831Y-16329957D01*
X12377831Y-16215671D01*
X12392117Y-16187100D01*
X12420688Y-16172814D01*
X12477831Y-16172814D01*
X12506403Y-16187100D01*
X12520688Y-16215671D01*
X12520688Y-16244243D01*
X12377831Y-16272814D01*
X12634974Y-16358529D02*
X12663546Y-16372814D01*
X12720688Y-16372814D01*
X12749260Y-16358529D01*
X12763546Y-16329957D01*
X12763546Y-16315671D01*
X12749260Y-16287100D01*
X12720688Y-16272814D01*
X12677831Y-16272814D01*
X12649260Y-16258529D01*
X12634974Y-16229957D01*
X12634974Y-16215671D01*
X12649260Y-16187100D01*
X12677831Y-16172814D01*
X12720688Y-16172814D01*
X12749260Y-16187100D01*
X12863546Y-16487100D02*
X12877831Y-16472814D01*
X12906403Y-16429957D01*
X12920688Y-16401386D01*
X12934974Y-16358529D01*
X12949260Y-16287100D01*
X12949260Y-16229957D01*
X12934974Y-16158529D01*
X12920688Y-16115671D01*
X12906403Y-16087100D01*
X12877831Y-16044243D01*
X12863546Y-16029957D01*
X5220869Y-16665429D02*
X5220869Y-16600771D01*
X5156211Y-16600771D01*
X5156211Y-16665429D01*
X5220869Y-16665429D01*
X5577831Y-16468814D02*
X5606403Y-16468814D01*
X5634974Y-16483100D01*
X5649260Y-16497386D01*
X5663546Y-16525957D01*
X5677831Y-16583100D01*
X5677831Y-16654529D01*
X5663546Y-16711671D01*
X5649260Y-16740243D01*
X5634974Y-16754529D01*
X5606403Y-16768814D01*
X5577831Y-16768814D01*
X5549260Y-16754529D01*
X5534974Y-16740243D01*
X5520688Y-16711671D01*
X5506403Y-16654529D01*
X5506403Y-16583100D01*
X5520688Y-16525957D01*
X5534974Y-16497386D01*
X5549260Y-16483100D01*
X5577831Y-16468814D01*
X5806403Y-16740243D02*
X5820688Y-16754529D01*
X5806403Y-16768814D01*
X5792117Y-16754529D01*
X5806403Y-16740243D01*
X5806403Y-16768814D01*
X5963546Y-16768814D02*
X6020688Y-16768814D01*
X6049260Y-16754529D01*
X6063546Y-16740243D01*
X6092117Y-16697386D01*
X6106403Y-16640243D01*
X6106403Y-16525957D01*
X6092117Y-16497386D01*
X6077831Y-16483100D01*
X6049260Y-16468814D01*
X5992117Y-16468814D01*
X5963546Y-16483100D01*
X5949260Y-16497386D01*
X5934974Y-16525957D01*
X5934974Y-16597386D01*
X5949260Y-16625957D01*
X5963546Y-16640243D01*
X5992117Y-16654529D01*
X6049260Y-16654529D01*
X6077831Y-16640243D01*
X6092117Y-16625957D01*
X6106403Y-16597386D01*
X6392117Y-16768814D02*
X6220688Y-16768814D01*
X6306403Y-16768814D02*
X6306403Y-16468814D01*
X6277831Y-16511671D01*
X6249260Y-16540243D01*
X6220688Y-16554529D01*
X6649260Y-16568814D02*
X6649260Y-16768814D01*
X6577831Y-16454529D02*
X6506403Y-16668814D01*
X6692117Y-16668814D01*
X6806403Y-16768814D02*
X6806403Y-16568814D01*
X6806403Y-16597386D02*
X6820688Y-16583100D01*
X6849260Y-16568814D01*
X6892117Y-16568814D01*
X6920688Y-16583100D01*
X6934974Y-16611671D01*
X6934974Y-16768814D01*
X6934974Y-16611671D02*
X6949260Y-16583100D01*
X6977831Y-16568814D01*
X7020688Y-16568814D01*
X7049260Y-16583100D01*
X7063546Y-16611671D01*
X7063546Y-16768814D01*
X7206403Y-16768814D02*
X7206403Y-16568814D01*
X7206403Y-16597386D02*
X7220688Y-16583100D01*
X7249260Y-16568814D01*
X7292117Y-16568814D01*
X7320688Y-16583100D01*
X7334974Y-16611671D01*
X7334974Y-16768814D01*
X7334974Y-16611671D02*
X7349260Y-16583100D01*
X7377831Y-16568814D01*
X7420688Y-16568814D01*
X7449260Y-16583100D01*
X7463546Y-16611671D01*
X7463546Y-16768814D01*
X8049260Y-16454529D02*
X7792117Y-16840243D01*
X8434974Y-16468814D02*
X8463546Y-16468814D01*
X8492117Y-16483100D01*
X8506403Y-16497386D01*
X8520688Y-16525957D01*
X8534974Y-16583100D01*
X8534974Y-16654529D01*
X8520688Y-16711671D01*
X8506403Y-16740243D01*
X8492117Y-16754529D01*
X8463546Y-16768814D01*
X8434974Y-16768814D01*
X8406403Y-16754529D01*
X8392117Y-16740243D01*
X8377831Y-16711671D01*
X8363546Y-16654529D01*
X8363546Y-16583100D01*
X8377831Y-16525957D01*
X8392117Y-16497386D01*
X8406403Y-16483100D01*
X8434974Y-16468814D01*
X8663546Y-16740243D02*
X8677831Y-16754529D01*
X8663546Y-16768814D01*
X8649260Y-16754529D01*
X8663546Y-16740243D01*
X8663546Y-16768814D01*
X8863546Y-16468814D02*
X8892117Y-16468814D01*
X8920688Y-16483100D01*
X8934974Y-16497386D01*
X8949260Y-16525957D01*
X8963546Y-16583100D01*
X8963546Y-16654529D01*
X8949260Y-16711671D01*
X8934974Y-16740243D01*
X8920688Y-16754529D01*
X8892117Y-16768814D01*
X8863546Y-16768814D01*
X8834974Y-16754529D01*
X8820688Y-16740243D01*
X8806403Y-16711671D01*
X8792117Y-16654529D01*
X8792117Y-16583100D01*
X8806403Y-16525957D01*
X8820688Y-16497386D01*
X8834974Y-16483100D01*
X8863546Y-16468814D01*
X9063546Y-16468814D02*
X9249260Y-16468814D01*
X9149260Y-16583100D01*
X9192117Y-16583100D01*
X9220688Y-16597386D01*
X9234974Y-16611671D01*
X9249260Y-16640243D01*
X9249260Y-16711671D01*
X9234974Y-16740243D01*
X9220688Y-16754529D01*
X9192117Y-16768814D01*
X9106403Y-16768814D01*
X9077831Y-16754529D01*
X9063546Y-16740243D01*
X9506403Y-16468814D02*
X9449260Y-16468814D01*
X9420688Y-16483100D01*
X9406403Y-16497386D01*
X9377831Y-16540243D01*
X9363546Y-16597386D01*
X9363546Y-16711671D01*
X9377831Y-16740243D01*
X9392117Y-16754529D01*
X9420688Y-16768814D01*
X9477831Y-16768814D01*
X9506403Y-16754529D01*
X9520688Y-16740243D01*
X9534974Y-16711671D01*
X9534974Y-16640243D01*
X9520688Y-16611671D01*
X9506403Y-16597386D01*
X9477831Y-16583100D01*
X9420688Y-16583100D01*
X9392117Y-16597386D01*
X9377831Y-16611671D01*
X9363546Y-16640243D01*
X9720688Y-16468814D02*
X9749260Y-16468814D01*
X9777831Y-16483100D01*
X9792117Y-16497386D01*
X9806403Y-16525957D01*
X9820688Y-16583100D01*
X9820688Y-16654529D01*
X9806403Y-16711671D01*
X9792117Y-16740243D01*
X9777831Y-16754529D01*
X9749260Y-16768814D01*
X9720688Y-16768814D01*
X9692117Y-16754529D01*
X9677831Y-16740243D01*
X9663546Y-16711671D01*
X9649260Y-16654529D01*
X9649260Y-16583100D01*
X9663546Y-16525957D01*
X9677831Y-16497386D01*
X9692117Y-16483100D01*
X9720688Y-16468814D01*
X9934974Y-16468814D02*
X9934974Y-16525957D01*
X10049260Y-16468814D02*
X10049260Y-16525957D01*
X10492117Y-16883100D02*
X10477831Y-16868814D01*
X10449260Y-16825957D01*
X10434974Y-16797386D01*
X10420688Y-16754529D01*
X10406403Y-16683100D01*
X10406403Y-16625957D01*
X10420688Y-16554529D01*
X10434974Y-16511671D01*
X10449260Y-16483100D01*
X10477831Y-16440243D01*
X10492117Y-16425957D01*
X10592117Y-16497386D02*
X10606403Y-16483100D01*
X10634974Y-16468814D01*
X10706403Y-16468814D01*
X10734974Y-16483100D01*
X10749260Y-16497386D01*
X10763546Y-16525957D01*
X10763546Y-16554529D01*
X10749260Y-16597386D01*
X10577831Y-16768814D01*
X10763546Y-16768814D01*
X10949260Y-16468814D02*
X10977831Y-16468814D01*
X11006403Y-16483100D01*
X11020688Y-16497386D01*
X11034974Y-16525957D01*
X11049260Y-16583100D01*
X11049260Y-16654529D01*
X11034974Y-16711671D01*
X11020688Y-16740243D01*
X11006403Y-16754529D01*
X10977831Y-16768814D01*
X10949260Y-16768814D01*
X10920688Y-16754529D01*
X10906403Y-16740243D01*
X10892117Y-16711671D01*
X10877831Y-16654529D01*
X10877831Y-16583100D01*
X10892117Y-16525957D01*
X10906403Y-16497386D01*
X10920688Y-16483100D01*
X10949260Y-16468814D01*
X11406403Y-16768814D02*
X11406403Y-16468814D01*
X11534974Y-16768814D02*
X11534974Y-16611671D01*
X11520688Y-16583100D01*
X11492117Y-16568814D01*
X11449260Y-16568814D01*
X11420688Y-16583100D01*
X11406403Y-16597386D01*
X11720688Y-16768814D02*
X11692117Y-16754529D01*
X11677831Y-16740243D01*
X11663546Y-16711671D01*
X11663546Y-16625957D01*
X11677831Y-16597386D01*
X11692117Y-16583100D01*
X11720688Y-16568814D01*
X11763546Y-16568814D01*
X11792117Y-16583100D01*
X11806403Y-16597386D01*
X11820688Y-16625957D01*
X11820688Y-16711671D01*
X11806403Y-16740243D01*
X11792117Y-16754529D01*
X11763546Y-16768814D01*
X11720688Y-16768814D01*
X11992117Y-16768814D02*
X11963546Y-16754529D01*
X11949260Y-16725957D01*
X11949260Y-16468814D01*
X12220688Y-16754529D02*
X12192117Y-16768814D01*
X12134974Y-16768814D01*
X12106403Y-16754529D01*
X12092117Y-16725957D01*
X12092117Y-16611671D01*
X12106403Y-16583100D01*
X12134974Y-16568814D01*
X12192117Y-16568814D01*
X12220688Y-16583100D01*
X12234974Y-16611671D01*
X12234974Y-16640243D01*
X12092117Y-16668814D01*
X12349260Y-16754529D02*
X12377831Y-16768814D01*
X12434974Y-16768814D01*
X12463546Y-16754529D01*
X12477831Y-16725957D01*
X12477831Y-16711671D01*
X12463546Y-16683100D01*
X12434974Y-16668814D01*
X12392117Y-16668814D01*
X12363546Y-16654529D01*
X12349260Y-16625957D01*
X12349260Y-16611671D01*
X12363546Y-16583100D01*
X12392117Y-16568814D01*
X12434974Y-16568814D01*
X12463546Y-16583100D01*
X12577831Y-16883100D02*
X12592117Y-16868814D01*
X12620688Y-16825957D01*
X12634974Y-16797386D01*
X12649260Y-16754529D01*
X12663546Y-16683100D01*
X12663546Y-16625957D01*
X12649260Y-16554529D01*
X12634974Y-16511671D01*
X12620688Y-16483100D01*
X12592117Y-16440243D01*
X12577831Y-16425957D01*
X5184260Y-17079100D02*
X5234260Y-17029100D01*
X5184260Y-16979100D01*
X5134260Y-17029100D01*
X5184260Y-17079100D01*
X5677831Y-17164814D02*
X5506403Y-17164814D01*
X5592117Y-17164814D02*
X5592117Y-16864814D01*
X5563546Y-16907672D01*
X5534974Y-16936243D01*
X5506403Y-16950529D01*
X5806403Y-17136243D02*
X5820688Y-17150529D01*
X5806403Y-17164814D01*
X5792117Y-17150529D01*
X5806403Y-17136243D01*
X5806403Y-17164814D01*
X6006403Y-16864814D02*
X6034974Y-16864814D01*
X6063546Y-16879100D01*
X6077831Y-16893386D01*
X6092117Y-16921957D01*
X6106403Y-16979100D01*
X6106403Y-17050529D01*
X6092117Y-17107672D01*
X6077831Y-17136243D01*
X6063546Y-17150529D01*
X6034974Y-17164814D01*
X6006403Y-17164814D01*
X5977831Y-17150529D01*
X5963546Y-17136243D01*
X5949260Y-17107672D01*
X5934974Y-17050529D01*
X5934974Y-16979100D01*
X5949260Y-16921957D01*
X5963546Y-16893386D01*
X5977831Y-16879100D01*
X6006403Y-16864814D01*
X6292117Y-16864814D02*
X6320688Y-16864814D01*
X6349260Y-16879100D01*
X6363546Y-16893386D01*
X6377831Y-16921957D01*
X6392117Y-16979100D01*
X6392117Y-17050529D01*
X6377831Y-17107672D01*
X6363546Y-17136243D01*
X6349260Y-17150529D01*
X6320688Y-17164814D01*
X6292117Y-17164814D01*
X6263546Y-17150529D01*
X6249260Y-17136243D01*
X6234974Y-17107672D01*
X6220688Y-17050529D01*
X6220688Y-16979100D01*
X6234974Y-16921957D01*
X6249260Y-16893386D01*
X6263546Y-16879100D01*
X6292117Y-16864814D01*
X6577831Y-16864814D02*
X6606403Y-16864814D01*
X6634974Y-16879100D01*
X6649260Y-16893386D01*
X6663546Y-16921957D01*
X6677831Y-16979100D01*
X6677831Y-17050529D01*
X6663546Y-17107672D01*
X6649260Y-17136243D01*
X6634974Y-17150529D01*
X6606403Y-17164814D01*
X6577831Y-17164814D01*
X6549260Y-17150529D01*
X6534974Y-17136243D01*
X6520688Y-17107672D01*
X6506403Y-17050529D01*
X6506403Y-16979100D01*
X6520688Y-16921957D01*
X6534974Y-16893386D01*
X6549260Y-16879100D01*
X6577831Y-16864814D01*
X6806403Y-17164814D02*
X6806403Y-16964814D01*
X6806403Y-16993386D02*
X6820688Y-16979100D01*
X6849260Y-16964814D01*
X6892117Y-16964814D01*
X6920688Y-16979100D01*
X6934974Y-17007672D01*
X6934974Y-17164814D01*
X6934974Y-17007672D02*
X6949260Y-16979100D01*
X6977831Y-16964814D01*
X7020688Y-16964814D01*
X7049260Y-16979100D01*
X7063546Y-17007672D01*
X7063546Y-17164814D01*
X7206403Y-17164814D02*
X7206403Y-16964814D01*
X7206403Y-16993386D02*
X7220688Y-16979100D01*
X7249260Y-16964814D01*
X7292117Y-16964814D01*
X7320688Y-16979100D01*
X7334974Y-17007672D01*
X7334974Y-17164814D01*
X7334974Y-17007672D02*
X7349260Y-16979100D01*
X7377831Y-16964814D01*
X7420688Y-16964814D01*
X7449260Y-16979100D01*
X7463546Y-17007672D01*
X7463546Y-17164814D01*
X8049260Y-16850529D02*
X7792117Y-17236243D01*
X8434974Y-16864814D02*
X8463546Y-16864814D01*
X8492117Y-16879100D01*
X8506403Y-16893386D01*
X8520688Y-16921957D01*
X8534974Y-16979100D01*
X8534974Y-17050529D01*
X8520688Y-17107672D01*
X8506403Y-17136243D01*
X8492117Y-17150529D01*
X8463546Y-17164814D01*
X8434974Y-17164814D01*
X8406403Y-17150529D01*
X8392117Y-17136243D01*
X8377831Y-17107672D01*
X8363546Y-17050529D01*
X8363546Y-16979100D01*
X8377831Y-16921957D01*
X8392117Y-16893386D01*
X8406403Y-16879100D01*
X8434974Y-16864814D01*
X8663546Y-17136243D02*
X8677831Y-17150529D01*
X8663546Y-17164814D01*
X8649260Y-17150529D01*
X8663546Y-17136243D01*
X8663546Y-17164814D01*
X8863546Y-16864814D02*
X8892117Y-16864814D01*
X8920688Y-16879100D01*
X8934974Y-16893386D01*
X8949260Y-16921957D01*
X8963546Y-16979100D01*
X8963546Y-17050529D01*
X8949260Y-17107672D01*
X8934974Y-17136243D01*
X8920688Y-17150529D01*
X8892117Y-17164814D01*
X8863546Y-17164814D01*
X8834974Y-17150529D01*
X8820688Y-17136243D01*
X8806403Y-17107672D01*
X8792117Y-17050529D01*
X8792117Y-16979100D01*
X8806403Y-16921957D01*
X8820688Y-16893386D01*
X8834974Y-16879100D01*
X8863546Y-16864814D01*
X9063546Y-16864814D02*
X9249260Y-16864814D01*
X9149260Y-16979100D01*
X9192117Y-16979100D01*
X9220688Y-16993386D01*
X9234974Y-17007672D01*
X9249260Y-17036243D01*
X9249260Y-17107672D01*
X9234974Y-17136243D01*
X9220688Y-17150529D01*
X9192117Y-17164814D01*
X9106403Y-17164814D01*
X9077831Y-17150529D01*
X9063546Y-17136243D01*
X9392117Y-17164814D02*
X9449260Y-17164814D01*
X9477831Y-17150529D01*
X9492117Y-17136243D01*
X9520688Y-17093386D01*
X9534974Y-17036243D01*
X9534974Y-16921957D01*
X9520688Y-16893386D01*
X9506403Y-16879100D01*
X9477831Y-16864814D01*
X9420688Y-16864814D01*
X9392117Y-16879100D01*
X9377831Y-16893386D01*
X9363546Y-16921957D01*
X9363546Y-16993386D01*
X9377831Y-17021957D01*
X9392117Y-17036243D01*
X9420688Y-17050529D01*
X9477831Y-17050529D01*
X9506403Y-17036243D01*
X9520688Y-17021957D01*
X9534974Y-16993386D01*
X9792117Y-16964814D02*
X9792117Y-17164814D01*
X9720688Y-16850529D02*
X9649260Y-17064814D01*
X9834974Y-17064814D01*
X9934974Y-16864814D02*
X9934974Y-16921957D01*
X10049260Y-16864814D02*
X10049260Y-16921957D01*
X10492117Y-17279100D02*
X10477831Y-17264814D01*
X10449260Y-17221957D01*
X10434974Y-17193386D01*
X10420688Y-17150529D01*
X10406403Y-17079100D01*
X10406403Y-17021957D01*
X10420688Y-16950529D01*
X10434974Y-16907672D01*
X10449260Y-16879100D01*
X10477831Y-16836243D01*
X10492117Y-16821957D01*
X10592117Y-16893386D02*
X10606403Y-16879100D01*
X10634974Y-16864814D01*
X10706403Y-16864814D01*
X10734974Y-16879100D01*
X10749260Y-16893386D01*
X10763546Y-16921957D01*
X10763546Y-16950529D01*
X10749260Y-16993386D01*
X10577831Y-17164814D01*
X10763546Y-17164814D01*
X11120688Y-17164814D02*
X11120688Y-16864814D01*
X11249260Y-17164814D02*
X11249260Y-17007672D01*
X11234974Y-16979100D01*
X11206403Y-16964814D01*
X11163546Y-16964814D01*
X11134974Y-16979100D01*
X11120688Y-16993386D01*
X11434974Y-17164814D02*
X11406403Y-17150529D01*
X11392117Y-17136243D01*
X11377831Y-17107672D01*
X11377831Y-17021957D01*
X11392117Y-16993386D01*
X11406403Y-16979100D01*
X11434974Y-16964814D01*
X11477831Y-16964814D01*
X11506403Y-16979100D01*
X11520688Y-16993386D01*
X11534974Y-17021957D01*
X11534974Y-17107672D01*
X11520688Y-17136243D01*
X11506403Y-17150529D01*
X11477831Y-17164814D01*
X11434974Y-17164814D01*
X11706403Y-17164814D02*
X11677831Y-17150529D01*
X11663546Y-17121957D01*
X11663546Y-16864814D01*
X11934974Y-17150529D02*
X11906403Y-17164814D01*
X11849260Y-17164814D01*
X11820688Y-17150529D01*
X11806403Y-17121957D01*
X11806403Y-17007672D01*
X11820688Y-16979100D01*
X11849260Y-16964814D01*
X11906403Y-16964814D01*
X11934974Y-16979100D01*
X11949260Y-17007672D01*
X11949260Y-17036243D01*
X11806403Y-17064814D01*
X12063546Y-17150529D02*
X12092117Y-17164814D01*
X12149260Y-17164814D01*
X12177831Y-17150529D01*
X12192117Y-17121957D01*
X12192117Y-17107672D01*
X12177831Y-17079100D01*
X12149260Y-17064814D01*
X12106403Y-17064814D01*
X12077831Y-17050529D01*
X12063546Y-17021957D01*
X12063546Y-17007672D01*
X12077831Y-16979100D01*
X12106403Y-16964814D01*
X12149260Y-16964814D01*
X12177831Y-16979100D01*
X12292117Y-17279100D02*
X12306403Y-17264814D01*
X12334974Y-17221957D01*
X12349260Y-17193386D01*
X12363546Y-17150529D01*
X12377831Y-17079100D01*
X12377831Y-17021957D01*
X12363546Y-16950529D01*
X12349260Y-16907672D01*
X12334974Y-16879100D01*
X12306403Y-16836243D01*
X12292117Y-16821957D01*
X5124260Y-17370100D02*
X5234260Y-17480100D01*
X5234260Y-17370100D02*
X5124260Y-17480100D01*
X5234260Y-17425100D02*
G75*
G03*
X5234260Y-17425100I-55000J0D01*
G01*
X5677831Y-17560814D02*
X5506403Y-17560814D01*
X5592117Y-17560814D02*
X5592117Y-17260814D01*
X5563546Y-17303672D01*
X5534974Y-17332243D01*
X5506403Y-17346529D01*
X5806403Y-17532243D02*
X5820688Y-17546529D01*
X5806403Y-17560814D01*
X5792117Y-17546529D01*
X5806403Y-17532243D01*
X5806403Y-17560814D01*
X6106403Y-17560814D02*
X5934974Y-17560814D01*
X6020688Y-17560814D02*
X6020688Y-17260814D01*
X5992117Y-17303672D01*
X5963546Y-17332243D01*
X5934974Y-17346529D01*
X6292117Y-17260814D02*
X6320688Y-17260814D01*
X6349260Y-17275100D01*
X6363546Y-17289386D01*
X6377831Y-17317957D01*
X6392117Y-17375100D01*
X6392117Y-17446529D01*
X6377831Y-17503672D01*
X6363546Y-17532243D01*
X6349260Y-17546529D01*
X6320688Y-17560814D01*
X6292117Y-17560814D01*
X6263546Y-17546529D01*
X6249260Y-17532243D01*
X6234974Y-17503672D01*
X6220688Y-17446529D01*
X6220688Y-17375100D01*
X6234974Y-17317957D01*
X6249260Y-17289386D01*
X6263546Y-17275100D01*
X6292117Y-17260814D01*
X6577831Y-17260814D02*
X6606403Y-17260814D01*
X6634974Y-17275100D01*
X6649260Y-17289386D01*
X6663546Y-17317957D01*
X6677831Y-17375100D01*
X6677831Y-17446529D01*
X6663546Y-17503672D01*
X6649260Y-17532243D01*
X6634974Y-17546529D01*
X6606403Y-17560814D01*
X6577831Y-17560814D01*
X6549260Y-17546529D01*
X6534974Y-17532243D01*
X6520688Y-17503672D01*
X6506403Y-17446529D01*
X6506403Y-17375100D01*
X6520688Y-17317957D01*
X6534974Y-17289386D01*
X6549260Y-17275100D01*
X6577831Y-17260814D01*
X6806403Y-17560814D02*
X6806403Y-17360814D01*
X6806403Y-17389386D02*
X6820688Y-17375100D01*
X6849260Y-17360814D01*
X6892117Y-17360814D01*
X6920688Y-17375100D01*
X6934974Y-17403672D01*
X6934974Y-17560814D01*
X6934974Y-17403672D02*
X6949260Y-17375100D01*
X6977831Y-17360814D01*
X7020688Y-17360814D01*
X7049260Y-17375100D01*
X7063546Y-17403672D01*
X7063546Y-17560814D01*
X7206403Y-17560814D02*
X7206403Y-17360814D01*
X7206403Y-17389386D02*
X7220688Y-17375100D01*
X7249260Y-17360814D01*
X7292117Y-17360814D01*
X7320688Y-17375100D01*
X7334974Y-17403672D01*
X7334974Y-17560814D01*
X7334974Y-17403672D02*
X7349260Y-17375100D01*
X7377831Y-17360814D01*
X7420688Y-17360814D01*
X7449260Y-17375100D01*
X7463546Y-17403672D01*
X7463546Y-17560814D01*
X8049260Y-17246529D02*
X7792117Y-17632243D01*
X8434974Y-17260814D02*
X8463546Y-17260814D01*
X8492117Y-17275100D01*
X8506403Y-17289386D01*
X8520688Y-17317957D01*
X8534974Y-17375100D01*
X8534974Y-17446529D01*
X8520688Y-17503672D01*
X8506403Y-17532243D01*
X8492117Y-17546529D01*
X8463546Y-17560814D01*
X8434974Y-17560814D01*
X8406403Y-17546529D01*
X8392117Y-17532243D01*
X8377831Y-17503672D01*
X8363546Y-17446529D01*
X8363546Y-17375100D01*
X8377831Y-17317957D01*
X8392117Y-17289386D01*
X8406403Y-17275100D01*
X8434974Y-17260814D01*
X8663546Y-17532243D02*
X8677831Y-17546529D01*
X8663546Y-17560814D01*
X8649260Y-17546529D01*
X8663546Y-17532243D01*
X8663546Y-17560814D01*
X8863546Y-17260814D02*
X8892117Y-17260814D01*
X8920688Y-17275100D01*
X8934974Y-17289386D01*
X8949260Y-17317957D01*
X8963546Y-17375100D01*
X8963546Y-17446529D01*
X8949260Y-17503672D01*
X8934974Y-17532243D01*
X8920688Y-17546529D01*
X8892117Y-17560814D01*
X8863546Y-17560814D01*
X8834974Y-17546529D01*
X8820688Y-17532243D01*
X8806403Y-17503672D01*
X8792117Y-17446529D01*
X8792117Y-17375100D01*
X8806403Y-17317957D01*
X8820688Y-17289386D01*
X8834974Y-17275100D01*
X8863546Y-17260814D01*
X9220688Y-17360814D02*
X9220688Y-17560814D01*
X9149260Y-17246529D02*
X9077831Y-17460814D01*
X9263546Y-17460814D01*
X9349260Y-17260814D02*
X9534974Y-17260814D01*
X9434974Y-17375100D01*
X9477831Y-17375100D01*
X9506403Y-17389386D01*
X9520688Y-17403672D01*
X9534974Y-17432243D01*
X9534974Y-17503672D01*
X9520688Y-17532243D01*
X9506403Y-17546529D01*
X9477831Y-17560814D01*
X9392117Y-17560814D01*
X9363546Y-17546529D01*
X9349260Y-17532243D01*
X9634974Y-17260814D02*
X9820688Y-17260814D01*
X9720688Y-17375100D01*
X9763546Y-17375100D01*
X9792117Y-17389386D01*
X9806403Y-17403672D01*
X9820688Y-17432243D01*
X9820688Y-17503672D01*
X9806403Y-17532243D01*
X9792117Y-17546529D01*
X9763546Y-17560814D01*
X9677831Y-17560814D01*
X9649260Y-17546529D01*
X9634974Y-17532243D01*
X9934974Y-17260814D02*
X9934974Y-17317957D01*
X10049260Y-17260814D02*
X10049260Y-17317957D01*
X10492117Y-17675100D02*
X10477831Y-17660814D01*
X10449260Y-17617957D01*
X10434974Y-17589386D01*
X10420688Y-17546529D01*
X10406403Y-17475100D01*
X10406403Y-17417957D01*
X10420688Y-17346529D01*
X10434974Y-17303672D01*
X10449260Y-17275100D01*
X10477831Y-17232243D01*
X10492117Y-17217957D01*
X10763546Y-17560814D02*
X10592117Y-17560814D01*
X10677831Y-17560814D02*
X10677831Y-17260814D01*
X10649260Y-17303672D01*
X10620688Y-17332243D01*
X10592117Y-17346529D01*
X11034974Y-17260814D02*
X10892117Y-17260814D01*
X10877831Y-17403672D01*
X10892117Y-17389386D01*
X10920688Y-17375100D01*
X10992117Y-17375100D01*
X11020688Y-17389386D01*
X11034974Y-17403672D01*
X11049260Y-17432243D01*
X11049260Y-17503672D01*
X11034974Y-17532243D01*
X11020688Y-17546529D01*
X10992117Y-17560814D01*
X10920688Y-17560814D01*
X10892117Y-17546529D01*
X10877831Y-17532243D01*
X11406403Y-17560814D02*
X11406403Y-17260814D01*
X11534974Y-17560814D02*
X11534974Y-17403672D01*
X11520688Y-17375100D01*
X11492117Y-17360814D01*
X11449260Y-17360814D01*
X11420688Y-17375100D01*
X11406403Y-17389386D01*
X11720688Y-17560814D02*
X11692117Y-17546529D01*
X11677831Y-17532243D01*
X11663546Y-17503672D01*
X11663546Y-17417957D01*
X11677831Y-17389386D01*
X11692117Y-17375100D01*
X11720688Y-17360814D01*
X11763546Y-17360814D01*
X11792117Y-17375100D01*
X11806403Y-17389386D01*
X11820688Y-17417957D01*
X11820688Y-17503672D01*
X11806403Y-17532243D01*
X11792117Y-17546529D01*
X11763546Y-17560814D01*
X11720688Y-17560814D01*
X11992117Y-17560814D02*
X11963546Y-17546529D01*
X11949260Y-17517957D01*
X11949260Y-17260814D01*
X12220688Y-17546529D02*
X12192117Y-17560814D01*
X12134974Y-17560814D01*
X12106403Y-17546529D01*
X12092117Y-17517957D01*
X12092117Y-17403672D01*
X12106403Y-17375100D01*
X12134974Y-17360814D01*
X12192117Y-17360814D01*
X12220688Y-17375100D01*
X12234974Y-17403672D01*
X12234974Y-17432243D01*
X12092117Y-17460814D01*
X12349260Y-17546529D02*
X12377831Y-17560814D01*
X12434974Y-17560814D01*
X12463546Y-17546529D01*
X12477831Y-17517957D01*
X12477831Y-17503672D01*
X12463546Y-17475100D01*
X12434974Y-17460814D01*
X12392117Y-17460814D01*
X12363546Y-17446529D01*
X12349260Y-17417957D01*
X12349260Y-17403672D01*
X12363546Y-17375100D01*
X12392117Y-17360814D01*
X12434974Y-17360814D01*
X12463546Y-17375100D01*
X12577831Y-17675100D02*
X12592117Y-17660814D01*
X12620688Y-17617957D01*
X12634974Y-17589386D01*
X12649260Y-17546529D01*
X12663546Y-17475100D01*
X12663546Y-17417957D01*
X12649260Y-17346529D01*
X12634974Y-17303672D01*
X12620688Y-17275100D01*
X12592117Y-17232243D01*
X12577831Y-17217957D01*
X5114260Y-17761100D02*
X5234260Y-17881100D01*
X5234260Y-17761100D02*
X5114260Y-17881100D01*
X5174260Y-17761100D02*
X5174260Y-17881100D01*
X5114260Y-17821100D02*
X5234260Y-17821100D01*
X5677831Y-17956814D02*
X5506403Y-17956814D01*
X5592117Y-17956814D02*
X5592117Y-17656814D01*
X5563546Y-17699672D01*
X5534974Y-17728243D01*
X5506403Y-17742529D01*
X5806403Y-17928243D02*
X5820688Y-17942529D01*
X5806403Y-17956814D01*
X5792117Y-17942529D01*
X5806403Y-17928243D01*
X5806403Y-17956814D01*
X5934974Y-17685386D02*
X5949260Y-17671100D01*
X5977831Y-17656814D01*
X6049260Y-17656814D01*
X6077831Y-17671100D01*
X6092117Y-17685386D01*
X6106403Y-17713957D01*
X6106403Y-17742529D01*
X6092117Y-17785386D01*
X5920688Y-17956814D01*
X6106403Y-17956814D01*
X6292117Y-17656814D02*
X6320688Y-17656814D01*
X6349260Y-17671100D01*
X6363546Y-17685386D01*
X6377831Y-17713957D01*
X6392117Y-17771100D01*
X6392117Y-17842529D01*
X6377831Y-17899672D01*
X6363546Y-17928243D01*
X6349260Y-17942529D01*
X6320688Y-17956814D01*
X6292117Y-17956814D01*
X6263546Y-17942529D01*
X6249260Y-17928243D01*
X6234974Y-17899672D01*
X6220688Y-17842529D01*
X6220688Y-17771100D01*
X6234974Y-17713957D01*
X6249260Y-17685386D01*
X6263546Y-17671100D01*
X6292117Y-17656814D01*
X6577831Y-17656814D02*
X6606403Y-17656814D01*
X6634974Y-17671100D01*
X6649260Y-17685386D01*
X6663546Y-17713957D01*
X6677831Y-17771100D01*
X6677831Y-17842529D01*
X6663546Y-17899672D01*
X6649260Y-17928243D01*
X6634974Y-17942529D01*
X6606403Y-17956814D01*
X6577831Y-17956814D01*
X6549260Y-17942529D01*
X6534974Y-17928243D01*
X6520688Y-17899672D01*
X6506403Y-17842529D01*
X6506403Y-17771100D01*
X6520688Y-17713957D01*
X6534974Y-17685386D01*
X6549260Y-17671100D01*
X6577831Y-17656814D01*
X6806403Y-17956814D02*
X6806403Y-17756814D01*
X6806403Y-17785386D02*
X6820688Y-17771100D01*
X6849260Y-17756814D01*
X6892117Y-17756814D01*
X6920688Y-17771100D01*
X6934974Y-17799672D01*
X6934974Y-17956814D01*
X6934974Y-17799672D02*
X6949260Y-17771100D01*
X6977831Y-17756814D01*
X7020688Y-17756814D01*
X7049260Y-17771100D01*
X7063546Y-17799672D01*
X7063546Y-17956814D01*
X7206403Y-17956814D02*
X7206403Y-17756814D01*
X7206403Y-17785386D02*
X7220688Y-17771100D01*
X7249260Y-17756814D01*
X7292117Y-17756814D01*
X7320688Y-17771100D01*
X7334974Y-17799672D01*
X7334974Y-17956814D01*
X7334974Y-17799672D02*
X7349260Y-17771100D01*
X7377831Y-17756814D01*
X7420688Y-17756814D01*
X7449260Y-17771100D01*
X7463546Y-17799672D01*
X7463546Y-17956814D01*
X8049260Y-17642529D02*
X7792117Y-18028243D01*
X8434974Y-17656814D02*
X8463546Y-17656814D01*
X8492117Y-17671100D01*
X8506403Y-17685386D01*
X8520688Y-17713957D01*
X8534974Y-17771100D01*
X8534974Y-17842529D01*
X8520688Y-17899672D01*
X8506403Y-17928243D01*
X8492117Y-17942529D01*
X8463546Y-17956814D01*
X8434974Y-17956814D01*
X8406403Y-17942529D01*
X8392117Y-17928243D01*
X8377831Y-17899672D01*
X8363546Y-17842529D01*
X8363546Y-17771100D01*
X8377831Y-17713957D01*
X8392117Y-17685386D01*
X8406403Y-17671100D01*
X8434974Y-17656814D01*
X8663546Y-17928243D02*
X8677831Y-17942529D01*
X8663546Y-17956814D01*
X8649260Y-17942529D01*
X8663546Y-17928243D01*
X8663546Y-17956814D01*
X8863546Y-17656814D02*
X8892117Y-17656814D01*
X8920688Y-17671100D01*
X8934974Y-17685386D01*
X8949260Y-17713957D01*
X8963546Y-17771100D01*
X8963546Y-17842529D01*
X8949260Y-17899672D01*
X8934974Y-17928243D01*
X8920688Y-17942529D01*
X8892117Y-17956814D01*
X8863546Y-17956814D01*
X8834974Y-17942529D01*
X8820688Y-17928243D01*
X8806403Y-17899672D01*
X8792117Y-17842529D01*
X8792117Y-17771100D01*
X8806403Y-17713957D01*
X8820688Y-17685386D01*
X8834974Y-17671100D01*
X8863546Y-17656814D01*
X9220688Y-17756814D02*
X9220688Y-17956814D01*
X9149260Y-17642529D02*
X9077831Y-17856814D01*
X9263546Y-17856814D01*
X9349260Y-17656814D02*
X9549260Y-17656814D01*
X9420688Y-17956814D01*
X9649260Y-17685386D02*
X9663546Y-17671100D01*
X9692117Y-17656814D01*
X9763546Y-17656814D01*
X9792117Y-17671100D01*
X9806403Y-17685386D01*
X9820688Y-17713957D01*
X9820688Y-17742529D01*
X9806403Y-17785386D01*
X9634974Y-17956814D01*
X9820688Y-17956814D01*
X9934974Y-17656814D02*
X9934974Y-17713957D01*
X10049260Y-17656814D02*
X10049260Y-17713957D01*
X10492117Y-18071100D02*
X10477831Y-18056814D01*
X10449260Y-18013957D01*
X10434974Y-17985386D01*
X10420688Y-17942529D01*
X10406403Y-17871100D01*
X10406403Y-17813957D01*
X10420688Y-17742529D01*
X10434974Y-17699672D01*
X10449260Y-17671100D01*
X10477831Y-17628243D01*
X10492117Y-17613957D01*
X10763546Y-17956814D02*
X10592117Y-17956814D01*
X10677831Y-17956814D02*
X10677831Y-17656814D01*
X10649260Y-17699672D01*
X10620688Y-17728243D01*
X10592117Y-17742529D01*
X11049260Y-17956814D02*
X10877831Y-17956814D01*
X10963546Y-17956814D02*
X10963546Y-17656814D01*
X10934974Y-17699672D01*
X10906403Y-17728243D01*
X10877831Y-17742529D01*
X11406403Y-17956814D02*
X11406403Y-17656814D01*
X11534974Y-17956814D02*
X11534974Y-17799672D01*
X11520688Y-17771100D01*
X11492117Y-17756814D01*
X11449260Y-17756814D01*
X11420688Y-17771100D01*
X11406403Y-17785386D01*
X11720688Y-17956814D02*
X11692117Y-17942529D01*
X11677831Y-17928243D01*
X11663546Y-17899672D01*
X11663546Y-17813957D01*
X11677831Y-17785386D01*
X11692117Y-17771100D01*
X11720688Y-17756814D01*
X11763546Y-17756814D01*
X11792117Y-17771100D01*
X11806403Y-17785386D01*
X11820688Y-17813957D01*
X11820688Y-17899672D01*
X11806403Y-17928243D01*
X11792117Y-17942529D01*
X11763546Y-17956814D01*
X11720688Y-17956814D01*
X11992117Y-17956814D02*
X11963546Y-17942529D01*
X11949260Y-17913957D01*
X11949260Y-17656814D01*
X12220688Y-17942529D02*
X12192117Y-17956814D01*
X12134974Y-17956814D01*
X12106403Y-17942529D01*
X12092117Y-17913957D01*
X12092117Y-17799672D01*
X12106403Y-17771100D01*
X12134974Y-17756814D01*
X12192117Y-17756814D01*
X12220688Y-17771100D01*
X12234974Y-17799672D01*
X12234974Y-17828243D01*
X12092117Y-17856814D01*
X12349260Y-17942529D02*
X12377831Y-17956814D01*
X12434974Y-17956814D01*
X12463546Y-17942529D01*
X12477831Y-17913957D01*
X12477831Y-17899672D01*
X12463546Y-17871100D01*
X12434974Y-17856814D01*
X12392117Y-17856814D01*
X12363546Y-17842529D01*
X12349260Y-17813957D01*
X12349260Y-17799672D01*
X12363546Y-17771100D01*
X12392117Y-17756814D01*
X12434974Y-17756814D01*
X12463546Y-17771100D01*
X12577831Y-18071100D02*
X12592117Y-18056814D01*
X12620688Y-18013957D01*
X12634974Y-17985386D01*
X12649260Y-17942529D01*
X12663546Y-17871100D01*
X12663546Y-17813957D01*
X12649260Y-17742529D01*
X12634974Y-17699672D01*
X12620688Y-17671100D01*
X12592117Y-17628243D01*
X12577831Y-17613957D01*
M02*
