G04 #@! TF.GenerationSoftware,KiCad,Pcbnew,(5.1.10-1-10_14)*
G04 #@! TF.CreationDate,2021-09-10T00:01:11+12:00*
G04 #@! TF.ProjectId,filter,66696c74-6572-42e6-9b69-6361645f7063,rev?*
G04 #@! TF.SameCoordinates,Original*
G04 #@! TF.FileFunction,Legend,Top*
G04 #@! TF.FilePolarity,Positive*
%FSLAX46Y46*%
G04 Gerber Fmt 4.6, Leading zero omitted, Abs format (unit mm)*
G04 Created by KiCad (PCBNEW (5.1.10-1-10_14)) date 2021-09-10 00:01:11*
%MOMM*%
%LPD*%
G01*
G04 APERTURE LIST*
%ADD10C,0.120000*%
%ADD11C,0.150000*%
%ADD12C,4.300000*%
%ADD13C,5.000000*%
%ADD14C,3.500000*%
%ADD15C,1.600000*%
%ADD16C,2.400000*%
%ADD17R,2.400000X2.400000*%
%ADD18C,4.400000*%
G04 APERTURE END LIST*
D10*
X153574800Y-102933500D02*
G75*
G03*
X153574800Y-102933500I-25000000J0D01*
G01*
X150590000Y-126512000D02*
G75*
G03*
X150590000Y-126512000I-3270000J0D01*
G01*
X150640800Y-79355000D02*
G75*
G03*
X150640800Y-79355000I-3270000J0D01*
G01*
X104923701Y-66754474D02*
G75*
G02*
X105163800Y-65859800I1680099J28674D01*
G01*
X105713906Y-65300442D02*
G75*
G02*
X107469800Y-65285800I889894J-1425358D01*
G01*
X108029158Y-65835906D02*
G75*
G02*
X108043800Y-67591800I-1425358J-889894D01*
G01*
X107493993Y-68151305D02*
G75*
G02*
X105712800Y-68150800I-890193J1425505D01*
G01*
X105179079Y-67616064D02*
G75*
G02*
X104923800Y-66725800I1424721J890264D01*
G01*
X108283800Y-70225800D02*
G75*
G03*
X108283800Y-70225800I-1680000J0D01*
G01*
X102503800Y-64915800D02*
X102503800Y-72035800D01*
X103603800Y-64915800D02*
X103603800Y-72035800D01*
X109763800Y-64915800D02*
X109763800Y-72035800D01*
X102043800Y-64915800D02*
X102043800Y-72035800D01*
X109763800Y-64915800D02*
X102043800Y-64915800D01*
X109763800Y-72035800D02*
X102043800Y-72035800D01*
X107672800Y-71500800D02*
X107544800Y-71371800D01*
X105422800Y-69250800D02*
X105329800Y-69156800D01*
X107878800Y-71295800D02*
X107784800Y-71201800D01*
X105662800Y-69080800D02*
X105534800Y-68951800D01*
X102443800Y-64675800D02*
X101803800Y-64675800D01*
X101803800Y-64675800D02*
X101803800Y-65075800D01*
X174672600Y-127762000D02*
G75*
G03*
X174672600Y-127762000I-2105000J0D01*
G01*
X193007600Y-127762000D02*
G75*
G03*
X193007600Y-127762000I-20440000J0D01*
G01*
X193007600Y-78105000D02*
G75*
G03*
X193007600Y-78105000I-20440000J0D01*
G01*
X174672600Y-78105000D02*
G75*
G03*
X174672600Y-78105000I-2105000J0D01*
G01*
X201345200Y-108483500D02*
X201345200Y-108083500D01*
X200705200Y-108483500D02*
X201345200Y-108483500D01*
X197486200Y-100578500D02*
X197614200Y-100707500D01*
X195270200Y-98363500D02*
X195364200Y-98457500D01*
X197726200Y-100408500D02*
X197819200Y-100502500D01*
X195476200Y-98158500D02*
X195604200Y-98287500D01*
X197486200Y-104078500D02*
X197614200Y-104207500D01*
X195270200Y-101863500D02*
X195364200Y-101957500D01*
X197726200Y-103908500D02*
X197819200Y-104002500D01*
X195476200Y-101658500D02*
X195604200Y-101787500D01*
X193385200Y-97623500D02*
X201105200Y-97623500D01*
X193385200Y-108243500D02*
X201105200Y-108243500D01*
X201105200Y-108243500D02*
X201105200Y-97623500D01*
X193385200Y-108243500D02*
X193385200Y-97623500D01*
X199545200Y-108243500D02*
X199545200Y-97623500D01*
X200645200Y-108243500D02*
X200645200Y-97623500D01*
X198225200Y-99433500D02*
G75*
G03*
X198225200Y-99433500I-1680000J0D01*
G01*
X198225200Y-102933500D02*
G75*
G03*
X198225200Y-102933500I-1680000J0D01*
G01*
X197969921Y-105543236D02*
G75*
G02*
X198225200Y-106433500I-1424721J-890264D01*
G01*
X195655007Y-105007995D02*
G75*
G02*
X197436200Y-105008500I890193J-1425505D01*
G01*
X195119842Y-107323394D02*
G75*
G02*
X195105200Y-105567500I1425358J889894D01*
G01*
X197435094Y-107858858D02*
G75*
G02*
X195679200Y-107873500I-889894J1425358D01*
G01*
X198225299Y-106404826D02*
G75*
G02*
X197985200Y-107299500I-1680099J-28674D01*
G01*
D11*
X195435095Y-142248580D02*
X195435095Y-141248580D01*
X195435095Y-141724771D02*
X196006523Y-141724771D01*
X196006523Y-142248580D02*
X196006523Y-141248580D01*
X197006523Y-142248580D02*
X196435095Y-142248580D01*
X196720809Y-142248580D02*
X196720809Y-141248580D01*
X196625571Y-141391438D01*
X196530333Y-141486676D01*
X196435095Y-141534295D01*
X195427695Y-65069980D02*
X195427695Y-64069980D01*
X195427695Y-64546171D02*
X195999123Y-64546171D01*
X195999123Y-65069980D02*
X195999123Y-64069980D01*
X196427695Y-64165219D02*
X196475314Y-64117600D01*
X196570552Y-64069980D01*
X196808647Y-64069980D01*
X196903885Y-64117600D01*
X196951504Y-64165219D01*
X196999123Y-64260457D01*
X196999123Y-64355695D01*
X196951504Y-64498552D01*
X196380076Y-65069980D01*
X196999123Y-65069980D01*
X106128695Y-142248580D02*
X106128695Y-141248580D01*
X106128695Y-141724771D02*
X106700123Y-141724771D01*
X106700123Y-142248580D02*
X106700123Y-141248580D01*
X107081076Y-141248580D02*
X107700123Y-141248580D01*
X107366790Y-141629533D01*
X107509647Y-141629533D01*
X107604885Y-141677152D01*
X107652504Y-141724771D01*
X107700123Y-141820009D01*
X107700123Y-142058104D01*
X107652504Y-142153342D01*
X107604885Y-142200961D01*
X107509647Y-142248580D01*
X107223933Y-142248580D01*
X107128695Y-142200961D01*
X107081076Y-142153342D01*
X112064895Y-58288180D02*
X112064895Y-57288180D01*
X112064895Y-57764371D02*
X112636323Y-57764371D01*
X112636323Y-58288180D02*
X112636323Y-57288180D01*
X113541085Y-57621514D02*
X113541085Y-58288180D01*
X113302990Y-57240561D02*
X113064895Y-57954847D01*
X113683942Y-57954847D01*
X127408133Y-116790642D02*
X127360514Y-116838261D01*
X127217657Y-116885880D01*
X127122419Y-116885880D01*
X126979561Y-116838261D01*
X126884323Y-116743023D01*
X126836704Y-116647785D01*
X126789085Y-116457309D01*
X126789085Y-116314452D01*
X126836704Y-116123976D01*
X126884323Y-116028738D01*
X126979561Y-115933500D01*
X127122419Y-115885880D01*
X127217657Y-115885880D01*
X127360514Y-115933500D01*
X127408133Y-115981119D01*
X127836704Y-116885880D02*
X127836704Y-115885880D01*
X127836704Y-116266833D02*
X127931942Y-116219214D01*
X128122419Y-116219214D01*
X128217657Y-116266833D01*
X128265276Y-116314452D01*
X128312895Y-116409690D01*
X128312895Y-116695404D01*
X128265276Y-116790642D01*
X128217657Y-116838261D01*
X128122419Y-116885880D01*
X127931942Y-116885880D01*
X127836704Y-116838261D01*
X128598609Y-116219214D02*
X128979561Y-116219214D01*
X128741466Y-115885880D02*
X128741466Y-116743023D01*
X128789085Y-116838261D01*
X128884323Y-116885880D01*
X128979561Y-116885880D01*
X129455752Y-116885880D02*
X129360514Y-116838261D01*
X129312895Y-116743023D01*
X129312895Y-115885880D01*
X130360514Y-116885880D02*
X129789085Y-116885880D01*
X130074800Y-116885880D02*
X130074800Y-115885880D01*
X129979561Y-116028738D01*
X129884323Y-116123976D01*
X129789085Y-116171595D01*
X143277142Y-127131047D02*
X143324761Y-127178666D01*
X143372380Y-127321523D01*
X143372380Y-127416761D01*
X143324761Y-127559619D01*
X143229523Y-127654857D01*
X143134285Y-127702476D01*
X142943809Y-127750095D01*
X142800952Y-127750095D01*
X142610476Y-127702476D01*
X142515238Y-127654857D01*
X142420000Y-127559619D01*
X142372380Y-127416761D01*
X142372380Y-127321523D01*
X142420000Y-127178666D01*
X142467619Y-127131047D01*
X142705714Y-126273904D02*
X143515238Y-126273904D01*
X143610476Y-126321523D01*
X143658095Y-126369142D01*
X143705714Y-126464380D01*
X143705714Y-126607238D01*
X143658095Y-126702476D01*
X143324761Y-126273904D02*
X143372380Y-126369142D01*
X143372380Y-126559619D01*
X143324761Y-126654857D01*
X143277142Y-126702476D01*
X143181904Y-126750095D01*
X142896190Y-126750095D01*
X142800952Y-126702476D01*
X142753333Y-126654857D01*
X142705714Y-126559619D01*
X142705714Y-126369142D01*
X142753333Y-126273904D01*
X143372380Y-125273904D02*
X143372380Y-125845333D01*
X143372380Y-125559619D02*
X142372380Y-125559619D01*
X142515238Y-125654857D01*
X142610476Y-125750095D01*
X142658095Y-125845333D01*
X152127942Y-79974047D02*
X152175561Y-80021666D01*
X152223180Y-80164523D01*
X152223180Y-80259761D01*
X152175561Y-80402619D01*
X152080323Y-80497857D01*
X151985085Y-80545476D01*
X151794609Y-80593095D01*
X151651752Y-80593095D01*
X151461276Y-80545476D01*
X151366038Y-80497857D01*
X151270800Y-80402619D01*
X151223180Y-80259761D01*
X151223180Y-80164523D01*
X151270800Y-80021666D01*
X151318419Y-79974047D01*
X151556514Y-79116904D02*
X152366038Y-79116904D01*
X152461276Y-79164523D01*
X152508895Y-79212142D01*
X152556514Y-79307380D01*
X152556514Y-79450238D01*
X152508895Y-79545476D01*
X152175561Y-79116904D02*
X152223180Y-79212142D01*
X152223180Y-79402619D01*
X152175561Y-79497857D01*
X152127942Y-79545476D01*
X152032704Y-79593095D01*
X151746990Y-79593095D01*
X151651752Y-79545476D01*
X151604133Y-79497857D01*
X151556514Y-79402619D01*
X151556514Y-79212142D01*
X151604133Y-79116904D01*
X151318419Y-78688333D02*
X151270800Y-78640714D01*
X151223180Y-78545476D01*
X151223180Y-78307380D01*
X151270800Y-78212142D01*
X151318419Y-78164523D01*
X151413657Y-78116904D01*
X151508895Y-78116904D01*
X151651752Y-78164523D01*
X152223180Y-78735952D01*
X152223180Y-78116904D01*
X110216180Y-68809133D02*
X110930466Y-68809133D01*
X111073323Y-68856752D01*
X111168561Y-68951990D01*
X111216180Y-69094847D01*
X111216180Y-69190085D01*
X110311419Y-68380561D02*
X110263800Y-68332942D01*
X110216180Y-68237704D01*
X110216180Y-67999609D01*
X110263800Y-67904371D01*
X110311419Y-67856752D01*
X110406657Y-67809133D01*
X110501895Y-67809133D01*
X110644752Y-67856752D01*
X111216180Y-68428180D01*
X111216180Y-67809133D01*
X172400933Y-106644380D02*
X171924742Y-106644380D01*
X171924742Y-105644380D01*
X173258076Y-106644380D02*
X172686647Y-106644380D01*
X172972361Y-106644380D02*
X172972361Y-105644380D01*
X172877123Y-105787238D01*
X172781885Y-105882476D01*
X172686647Y-105930095D01*
X172400933Y-100127380D02*
X171924742Y-100127380D01*
X171924742Y-99127380D01*
X172686647Y-99222619D02*
X172734266Y-99175000D01*
X172829504Y-99127380D01*
X173067600Y-99127380D01*
X173162838Y-99175000D01*
X173210457Y-99222619D01*
X173258076Y-99317857D01*
X173258076Y-99413095D01*
X173210457Y-99555952D01*
X172639028Y-100127380D01*
X173258076Y-100127380D01*
X191837580Y-103266833D02*
X192551866Y-103266833D01*
X192694723Y-103314452D01*
X192789961Y-103409690D01*
X192837580Y-103552547D01*
X192837580Y-103647785D01*
X192837580Y-102266833D02*
X192837580Y-102838261D01*
X192837580Y-102552547D02*
X191837580Y-102552547D01*
X191980438Y-102647785D01*
X192075676Y-102743023D01*
X192123295Y-102838261D01*
%LPC*%
D12*
X196197000Y-147096200D03*
X196197000Y-57739000D03*
X106890600Y-147096200D03*
X106890600Y-57739000D03*
D13*
X128574800Y-102933500D03*
D14*
X136574800Y-84183500D03*
X120574800Y-84183500D03*
X120574800Y-121683500D03*
X136574800Y-121683500D03*
D15*
X147320000Y-125262000D03*
X147320000Y-127762000D03*
X147370800Y-78105000D03*
X147370800Y-80605000D03*
D16*
X106603800Y-70225800D03*
D17*
X106603800Y-66725800D03*
D18*
X158597600Y-127762000D03*
X186537600Y-127762000D03*
X158597600Y-78105000D03*
X186537600Y-78105000D03*
D17*
X196545200Y-106433500D03*
D16*
X196545200Y-102933500D03*
X196545200Y-99433500D03*
M02*
