G04 #@! TF.GenerationSoftware,KiCad,Pcbnew,(5.1.10-1-10_14)*
G04 #@! TF.CreationDate,2021-09-10T00:56:05+12:00*
G04 #@! TF.ProjectId,joint_pcb,6a6f696e-745f-4706-9362-2e6b69636164,rev?*
G04 #@! TF.SameCoordinates,Original*
G04 #@! TF.FileFunction,Soldermask,Bot*
G04 #@! TF.FilePolarity,Negative*
%FSLAX46Y46*%
G04 Gerber Fmt 4.6, Leading zero omitted, Abs format (unit mm)*
G04 Created by KiCad (PCBNEW (5.1.10-1-10_14)) date 2021-09-10 00:56:05*
%MOMM*%
%LPD*%
G01*
G04 APERTURE LIST*
%ADD10C,2.400000*%
%ADD11R,2.400000X2.400000*%
%ADD12C,1.600000*%
%ADD13R,1.600000X1.600000*%
%ADD14O,1.600000X1.600000*%
%ADD15C,2.000000*%
%ADD16R,2.000000X2.000000*%
%ADD17C,4.300000*%
%ADD18R,2.400000X1.600000*%
%ADD19O,2.400000X1.600000*%
%ADD20R,2.000000X1.905000*%
%ADD21O,2.000000X1.905000*%
G04 APERTURE END LIST*
D10*
X147320000Y-72700000D03*
X147320000Y-76200000D03*
D11*
X147320000Y-79700000D03*
D12*
X119551200Y-99771200D03*
D13*
X117551200Y-99771200D03*
D14*
X129717800Y-106553000D03*
D12*
X119557800Y-106553000D03*
D10*
X60934600Y-100212800D03*
X60934600Y-96712800D03*
X60934600Y-93212800D03*
D11*
X60934600Y-89712800D03*
D14*
X93980000Y-63500000D03*
X86360000Y-81280000D03*
X93980000Y-66040000D03*
X86360000Y-78740000D03*
X93980000Y-68580000D03*
X86360000Y-76200000D03*
X93980000Y-71120000D03*
X86360000Y-73660000D03*
X93980000Y-73660000D03*
X86360000Y-71120000D03*
X93980000Y-76200000D03*
X86360000Y-68580000D03*
X93980000Y-78740000D03*
X86360000Y-66040000D03*
X93980000Y-81280000D03*
D13*
X86360000Y-63500000D03*
D14*
X111760000Y-86360000D03*
D12*
X101600000Y-86360000D03*
D14*
X111760000Y-76200000D03*
D12*
X101600000Y-76200000D03*
D14*
X116840000Y-88900000D03*
D12*
X127000000Y-88900000D03*
D14*
X137160000Y-88900000D03*
D12*
X147320000Y-88900000D03*
D14*
X137160000Y-63500000D03*
D12*
X147320000Y-63500000D03*
D14*
X116840000Y-63500000D03*
D12*
X127000000Y-63500000D03*
D14*
X101600000Y-71120000D03*
D12*
X111760000Y-71120000D03*
D14*
X101600000Y-60960000D03*
D12*
X111760000Y-60960000D03*
D14*
X71120000Y-73660000D03*
D12*
X81280000Y-73660000D03*
D14*
X71120000Y-68580000D03*
D12*
X81280000Y-68580000D03*
D14*
X71120000Y-78740000D03*
D12*
X81280000Y-78740000D03*
D15*
X139192000Y-81280000D03*
X136652000Y-81280000D03*
D16*
X134112000Y-81280000D03*
D15*
X124460000Y-81280000D03*
X121920000Y-81280000D03*
D16*
X119380000Y-81280000D03*
D15*
X139192000Y-71120000D03*
X136652000Y-71120000D03*
D16*
X134112000Y-71120000D03*
D15*
X124460000Y-71120000D03*
X121920000Y-71120000D03*
D16*
X119380000Y-71120000D03*
D10*
X77526000Y-50800000D03*
D11*
X81026000Y-50800000D03*
D17*
X57658000Y-50241200D03*
X57658000Y-139598400D03*
X146964400Y-50241200D03*
X146964400Y-139598400D03*
D14*
X109220000Y-91440000D03*
D13*
X101600000Y-91440000D03*
D14*
X109220000Y-81280000D03*
D13*
X101600000Y-81280000D03*
D14*
X109220000Y-66040000D03*
D13*
X101600000Y-66040000D03*
D14*
X109220000Y-55880000D03*
D13*
X101600000Y-55880000D03*
D14*
X73406000Y-63500000D03*
D13*
X81026000Y-63500000D03*
D14*
X73660000Y-83820000D03*
D13*
X81280000Y-83820000D03*
D12*
X132040000Y-58420000D03*
X129540000Y-58420000D03*
X139660000Y-58420000D03*
X137160000Y-58420000D03*
D10*
X119380000Y-55800000D03*
D11*
X119380000Y-50800000D03*
D12*
X93980000Y-55880000D03*
D13*
X88980000Y-55880000D03*
D12*
X88980000Y-88900000D03*
D13*
X93980000Y-88900000D03*
D12*
X58460000Y-68580000D03*
X60960000Y-68580000D03*
X58460000Y-63500000D03*
X60960000Y-63500000D03*
D15*
X60960000Y-80438000D03*
D16*
X60960000Y-75438000D03*
D13*
X70942200Y-112395000D03*
D12*
X70942200Y-114395000D03*
X70942200Y-118929400D03*
D13*
X70942200Y-120929400D03*
D14*
X99441000Y-97510600D03*
D12*
X89281000Y-97510600D03*
D14*
X96951800Y-100660200D03*
D12*
X86791800Y-100660200D03*
X86741000Y-103962200D03*
D14*
X96901000Y-103962200D03*
D12*
X113817400Y-111328200D03*
D14*
X123977400Y-111328200D03*
D12*
X89839800Y-117678200D03*
X94839800Y-117678200D03*
X103759000Y-125653800D03*
X108759000Y-125653800D03*
X127584200Y-116205000D03*
X127584200Y-111205000D03*
D13*
X80264000Y-101854000D03*
D12*
X78264000Y-101854000D03*
X103737400Y-122504200D03*
X108737400Y-122504200D03*
X113745000Y-114528600D03*
X118745000Y-114528600D03*
X113817400Y-103657400D03*
X113817400Y-108657400D03*
X123596400Y-135788400D03*
X123596400Y-130788400D03*
D18*
X129006600Y-123723400D03*
D19*
X136626600Y-138963400D03*
X129006600Y-126263400D03*
X136626600Y-136423400D03*
X129006600Y-128803400D03*
X136626600Y-133883400D03*
X129006600Y-131343400D03*
X136626600Y-131343400D03*
X129006600Y-133883400D03*
X136626600Y-128803400D03*
X129006600Y-136423400D03*
X136626600Y-126263400D03*
X129006600Y-138963400D03*
X136626600Y-123723400D03*
D14*
X77063600Y-106629200D03*
D12*
X66903600Y-106629200D03*
X96901000Y-114122200D03*
D14*
X86741000Y-114122200D03*
D12*
X80238600Y-106553000D03*
D14*
X80238600Y-116713000D03*
X138734800Y-101269800D03*
D12*
X138734800Y-111429800D03*
D14*
X94869000Y-121132600D03*
D12*
X84709000Y-121132600D03*
X94869000Y-124663200D03*
D14*
X84709000Y-124663200D03*
D12*
X127584200Y-119202200D03*
D14*
X117424200Y-119202200D03*
X135229600Y-111429800D03*
D12*
X135229600Y-101269800D03*
X123596400Y-127762000D03*
D14*
X113436400Y-127762000D03*
D12*
X94411800Y-141198600D03*
D14*
X94411800Y-131038600D03*
X98196400Y-141198600D03*
D12*
X108356400Y-141198600D03*
D14*
X86233000Y-141173200D03*
D12*
X86233000Y-131013200D03*
X90347800Y-141147800D03*
D14*
X90347800Y-130987800D03*
D19*
X110007400Y-103962200D03*
X102387400Y-119202200D03*
X110007400Y-106502200D03*
X102387400Y-116662200D03*
X110007400Y-109042200D03*
X102387400Y-114122200D03*
X110007400Y-111582200D03*
X102387400Y-111582200D03*
X110007400Y-114122200D03*
X102387400Y-109042200D03*
X110007400Y-116662200D03*
X102387400Y-106502200D03*
X110007400Y-119202200D03*
D18*
X102387400Y-103962200D03*
D20*
X62865000Y-115036600D03*
D21*
X62865000Y-117576600D03*
X62865000Y-120116600D03*
D14*
X82228001Y-124994401D03*
D12*
X72068001Y-124994401D03*
X82219800Y-128955800D03*
D14*
X72059800Y-128955800D03*
D12*
X96951800Y-109601000D03*
X91951800Y-109601000D03*
X136550400Y-119731800D03*
X136550400Y-114731800D03*
X117014000Y-131521200D03*
X112014000Y-131521200D03*
M02*
