M48
; DRILL file {KiCad (5.1.10-1-10_14)} date Monday, September 13, 2021 at 08:57:11 PM
; FORMAT={-:-/ absolute / metric / decimal}
; #@! TF.CreationDate,2021-09-13T20:57:11+12:00
; #@! TF.GenerationSoftware,Kicad,Pcbnew,(5.1.10-1-10_14)
; #@! TF.FileFunction,Plated,1,2,PTH
FMAT,2
METRIC
T1C0.400
T2C0.600
T3C0.800
T4C0.914
T5C1.000
T6C1.100
T7C1.200
%
G90
G05
T1
X114.198Y-138.379
X114.224Y-137.084
X120.396Y-137.058
T2
X85.368Y-52.07
X86.868Y-52.07
X95.25Y-87.63
X96.75Y-87.63
T3
X59.182Y-69.85
X59.182Y-80.01
X59.73Y-60.96
X59.73Y-66.04
X62.23Y-60.96
X62.23Y-66.04
X64.262Y-72.39
X64.262Y-82.55
X66.904Y-106.629
X69.342Y-77.47
X69.342Y-87.63
X70.942Y-112.395
X70.942Y-114.395
X70.942Y-118.929
X70.942Y-120.929
X71.628Y-52.07
X72.06Y-128.956
X72.068Y-124.994
X75.438Y-77.47
X75.438Y-87.63
X77.064Y-106.629
X78.264Y-101.854
X79.248Y-52.07
X80.239Y-106.553
X80.239Y-116.713
X80.264Y-101.854
X81.026Y-87.63
X82.22Y-128.956
X82.228Y-124.994
X84.709Y-121.133
X84.709Y-124.663
X86.233Y-131.013
X86.233Y-141.173
X86.741Y-103.962
X86.741Y-114.122
X86.792Y-100.66
X88.646Y-87.63
X89.281Y-97.511
X89.84Y-117.678
X90.348Y-130.988
X90.348Y-141.148
X91.952Y-109.601
X94.412Y-131.039
X94.412Y-141.199
X94.84Y-117.678
X94.869Y-121.133
X94.869Y-124.663
X96.901Y-103.962
X96.901Y-114.122
X96.952Y-100.66
X96.952Y-109.601
X98.196Y-141.199
X99.441Y-97.511
X100.838Y-59.69
X100.838Y-64.77
X100.838Y-77.978
X100.838Y-82.55
X101.854Y-49.022
X101.854Y-51.522
X101.854Y-55.118
X101.854Y-69.342
X101.854Y-73.406
X102.362Y-87.122
X102.387Y-103.962
X102.387Y-106.502
X102.387Y-109.042
X102.387Y-111.582
X102.387Y-114.122
X102.387Y-116.662
X102.387Y-119.202
X103.737Y-122.504
X103.759Y-125.654
X108.356Y-141.199
X108.737Y-122.504
X108.759Y-125.654
X109.474Y-49.062
X109.474Y-51.562
X109.474Y-55.118
X109.474Y-69.342
X109.474Y-73.406
X109.982Y-87.122
X110.007Y-103.962
X110.007Y-106.502
X110.007Y-109.042
X110.007Y-111.582
X110.007Y-114.122
X110.007Y-116.662
X110.007Y-119.202
X110.998Y-59.69
X110.998Y-64.77
X110.998Y-77.978
X110.998Y-82.55
X112.014Y-131.521
X113.436Y-127.762
X113.745Y-114.529
X113.817Y-103.657
X113.817Y-108.657
X113.817Y-111.328
X117.014Y-131.521
X117.399Y-100.533
X117.424Y-119.202
X118.745Y-114.529
X119.399Y-100.533
X119.558Y-106.553
X123.596Y-127.762
X123.596Y-130.788
X123.596Y-135.788
X123.977Y-111.328
X127.584Y-111.205
X127.584Y-116.205
X127.584Y-119.202
X129.007Y-123.723
X129.007Y-126.263
X129.007Y-128.803
X129.007Y-131.343
X129.007Y-133.883
X129.007Y-136.423
X129.007Y-138.963
X129.718Y-106.553
X135.23Y-101.27
X135.23Y-111.43
X136.55Y-114.732
X136.55Y-119.732
X136.627Y-123.723
X136.627Y-126.263
X136.627Y-128.803
X136.627Y-131.343
X136.627Y-133.883
X136.627Y-136.423
X136.627Y-138.963
X138.735Y-101.27
X138.735Y-111.43
T4
X84.074Y-59.69
X84.074Y-62.23
X84.074Y-64.77
X84.074Y-67.31
X84.074Y-69.85
X84.074Y-72.39
X84.074Y-74.93
X84.074Y-77.47
X84.074Y-80.01
X84.074Y-82.55
X91.694Y-59.69
X91.694Y-62.23
X91.694Y-64.77
X91.694Y-67.31
X91.694Y-69.85
X91.694Y-72.39
X91.694Y-74.93
X91.694Y-77.47
X91.694Y-80.01
X91.694Y-82.55
T5
X71.628Y-60.96
X71.628Y-65.96
T6
X62.865Y-115.037
X62.865Y-117.577
X62.865Y-120.117
X121.666Y-66.802
X121.666Y-69.342
X121.666Y-71.882
X121.666Y-80.518
X121.666Y-83.058
X121.666Y-85.598
X136.906Y-66.802
X136.906Y-69.342
X136.906Y-71.882
X136.906Y-80.518
X136.906Y-83.058
X136.906Y-85.598
T7
X60.935Y-94.996
X60.935Y-98.496
X60.935Y-101.996
X60.935Y-105.496
X91.75Y-52.07
X95.25Y-52.07
X121.666Y-50.546
X121.666Y-55.546
X144.78Y-72.756
X144.78Y-76.256
X144.78Y-79.756
T0
M30
