%FSLAX45Y45*%
G04 Gerber Fmt 4.5, Leading zero omitted, Abs format (unit mm)*
G04 Created by KiCad (PCBNEW (5.1.10-1-10_14)) date 2021-09-13 20:57:13*
%MOMM*%
%LPD*%
G01*
G04 APERTURE LIST*
%TA.AperFunction,Profile*%
%ADD10C,0.050000*%
%TD*%
%ADD11C,0.200000*%
%ADD12C,0.300000*%
G04 APERTURE END LIST*
D10*
X5236760Y-4947440D02*
X5236760Y-14020320D01*
X5699040Y-14482600D02*
X14771920Y-14482600D01*
X15234200Y-14020320D02*
X15234200Y-4947440D01*
X14771920Y-4485160D02*
X5699040Y-4485160D01*
X5236760Y-4947440D02*
G75*
G02*
X5699040Y-4485160I462280J0D01*
G01*
X5699040Y-14482600D02*
G75*
G02*
X5236760Y-14020320I0J462280D01*
G01*
X15234200Y-14020320D02*
G75*
G02*
X14771920Y-14482600I-462280J0D01*
G01*
X14771920Y-4485160D02*
G75*
G02*
X15234200Y-4947440I0J-462280D01*
G01*
D11*
X5550800Y-4809120D02*
X5980800Y-5239120D01*
X5980800Y-4809120D02*
X5550800Y-5239120D01*
X5550800Y-13744840D02*
X5980800Y-14174840D01*
X5980800Y-13744840D02*
X5550800Y-14174840D01*
X14481440Y-4809120D02*
X14911440Y-5239120D01*
X14911440Y-4809120D02*
X14481440Y-5239120D01*
X14481440Y-13744840D02*
X14911440Y-14174840D01*
X14911440Y-13744840D02*
X14481440Y-14174840D01*
D12*
X5520688Y-14950814D02*
X5520688Y-14650814D01*
X5592117Y-14650814D01*
X5634974Y-14665100D01*
X5663546Y-14693671D01*
X5677831Y-14722243D01*
X5692117Y-14779386D01*
X5692117Y-14822243D01*
X5677831Y-14879386D01*
X5663546Y-14907957D01*
X5634974Y-14936529D01*
X5592117Y-14950814D01*
X5520688Y-14950814D01*
X5820688Y-14950814D02*
X5820688Y-14750814D01*
X5820688Y-14807957D02*
X5834974Y-14779386D01*
X5849260Y-14765100D01*
X5877831Y-14750814D01*
X5906403Y-14750814D01*
X6006403Y-14950814D02*
X6006403Y-14750814D01*
X6006403Y-14650814D02*
X5992117Y-14665100D01*
X6006403Y-14679386D01*
X6020688Y-14665100D01*
X6006403Y-14650814D01*
X6006403Y-14679386D01*
X6192117Y-14950814D02*
X6163546Y-14936529D01*
X6149260Y-14907957D01*
X6149260Y-14650814D01*
X6349260Y-14950814D02*
X6320688Y-14936529D01*
X6306403Y-14907957D01*
X6306403Y-14650814D01*
X6692117Y-14950814D02*
X6692117Y-14650814D01*
X6792117Y-14865100D01*
X6892117Y-14650814D01*
X6892117Y-14950814D01*
X7163546Y-14950814D02*
X7163546Y-14793671D01*
X7149260Y-14765100D01*
X7120688Y-14750814D01*
X7063546Y-14750814D01*
X7034974Y-14765100D01*
X7163546Y-14936529D02*
X7134974Y-14950814D01*
X7063546Y-14950814D01*
X7034974Y-14936529D01*
X7020688Y-14907957D01*
X7020688Y-14879386D01*
X7034974Y-14850814D01*
X7063546Y-14836529D01*
X7134974Y-14836529D01*
X7163546Y-14822243D01*
X7306403Y-14750814D02*
X7306403Y-15050814D01*
X7306403Y-14765100D02*
X7334974Y-14750814D01*
X7392117Y-14750814D01*
X7420688Y-14765100D01*
X7434974Y-14779386D01*
X7449260Y-14807957D01*
X7449260Y-14893671D01*
X7434974Y-14922243D01*
X7420688Y-14936529D01*
X7392117Y-14950814D01*
X7334974Y-14950814D01*
X7306403Y-14936529D01*
X7577831Y-14922243D02*
X7592117Y-14936529D01*
X7577831Y-14950814D01*
X7563546Y-14936529D01*
X7577831Y-14922243D01*
X7577831Y-14950814D01*
X7577831Y-14765100D02*
X7592117Y-14779386D01*
X7577831Y-14793671D01*
X7563546Y-14779386D01*
X7577831Y-14765100D01*
X7577831Y-14793671D01*
X4804260Y-15230100D02*
X5234260Y-15660100D01*
X5234260Y-15230100D02*
X4804260Y-15660100D01*
X5649260Y-15380814D02*
X5649260Y-15580814D01*
X5577831Y-15266529D02*
X5506403Y-15480814D01*
X5692117Y-15480814D01*
X5806403Y-15552243D02*
X5820688Y-15566529D01*
X5806403Y-15580814D01*
X5792117Y-15566529D01*
X5806403Y-15552243D01*
X5806403Y-15580814D01*
X5920688Y-15280814D02*
X6106403Y-15280814D01*
X6006403Y-15395100D01*
X6049260Y-15395100D01*
X6077831Y-15409386D01*
X6092117Y-15423671D01*
X6106403Y-15452243D01*
X6106403Y-15523671D01*
X6092117Y-15552243D01*
X6077831Y-15566529D01*
X6049260Y-15580814D01*
X5963546Y-15580814D01*
X5934974Y-15566529D01*
X5920688Y-15552243D01*
X6292117Y-15280814D02*
X6320688Y-15280814D01*
X6349260Y-15295100D01*
X6363546Y-15309386D01*
X6377831Y-15337957D01*
X6392117Y-15395100D01*
X6392117Y-15466529D01*
X6377831Y-15523671D01*
X6363546Y-15552243D01*
X6349260Y-15566529D01*
X6320688Y-15580814D01*
X6292117Y-15580814D01*
X6263546Y-15566529D01*
X6249260Y-15552243D01*
X6234974Y-15523671D01*
X6220688Y-15466529D01*
X6220688Y-15395100D01*
X6234974Y-15337957D01*
X6249260Y-15309386D01*
X6263546Y-15295100D01*
X6292117Y-15280814D01*
X6577831Y-15280814D02*
X6606403Y-15280814D01*
X6634974Y-15295100D01*
X6649260Y-15309386D01*
X6663546Y-15337957D01*
X6677831Y-15395100D01*
X6677831Y-15466529D01*
X6663546Y-15523671D01*
X6649260Y-15552243D01*
X6634974Y-15566529D01*
X6606403Y-15580814D01*
X6577831Y-15580814D01*
X6549260Y-15566529D01*
X6534974Y-15552243D01*
X6520688Y-15523671D01*
X6506403Y-15466529D01*
X6506403Y-15395100D01*
X6520688Y-15337957D01*
X6534974Y-15309386D01*
X6549260Y-15295100D01*
X6577831Y-15280814D01*
X6806403Y-15580814D02*
X6806403Y-15380814D01*
X6806403Y-15409386D02*
X6820688Y-15395100D01*
X6849260Y-15380814D01*
X6892117Y-15380814D01*
X6920688Y-15395100D01*
X6934974Y-15423671D01*
X6934974Y-15580814D01*
X6934974Y-15423671D02*
X6949260Y-15395100D01*
X6977831Y-15380814D01*
X7020688Y-15380814D01*
X7049260Y-15395100D01*
X7063546Y-15423671D01*
X7063546Y-15580814D01*
X7206403Y-15580814D02*
X7206403Y-15380814D01*
X7206403Y-15409386D02*
X7220688Y-15395100D01*
X7249260Y-15380814D01*
X7292117Y-15380814D01*
X7320688Y-15395100D01*
X7334974Y-15423671D01*
X7334974Y-15580814D01*
X7334974Y-15423671D02*
X7349260Y-15395100D01*
X7377831Y-15380814D01*
X7420688Y-15380814D01*
X7449260Y-15395100D01*
X7463546Y-15423671D01*
X7463546Y-15580814D01*
X8049260Y-15266529D02*
X7792117Y-15652243D01*
X8434974Y-15280814D02*
X8463546Y-15280814D01*
X8492117Y-15295100D01*
X8506403Y-15309386D01*
X8520688Y-15337957D01*
X8534974Y-15395100D01*
X8534974Y-15466529D01*
X8520688Y-15523671D01*
X8506403Y-15552243D01*
X8492117Y-15566529D01*
X8463546Y-15580814D01*
X8434974Y-15580814D01*
X8406403Y-15566529D01*
X8392117Y-15552243D01*
X8377831Y-15523671D01*
X8363546Y-15466529D01*
X8363546Y-15395100D01*
X8377831Y-15337957D01*
X8392117Y-15309386D01*
X8406403Y-15295100D01*
X8434974Y-15280814D01*
X8663546Y-15552243D02*
X8677831Y-15566529D01*
X8663546Y-15580814D01*
X8649260Y-15566529D01*
X8663546Y-15552243D01*
X8663546Y-15580814D01*
X8963546Y-15580814D02*
X8792117Y-15580814D01*
X8877831Y-15580814D02*
X8877831Y-15280814D01*
X8849260Y-15323671D01*
X8820688Y-15352243D01*
X8792117Y-15366529D01*
X9220688Y-15280814D02*
X9163546Y-15280814D01*
X9134974Y-15295100D01*
X9120688Y-15309386D01*
X9092117Y-15352243D01*
X9077831Y-15409386D01*
X9077831Y-15523671D01*
X9092117Y-15552243D01*
X9106403Y-15566529D01*
X9134974Y-15580814D01*
X9192117Y-15580814D01*
X9220688Y-15566529D01*
X9234974Y-15552243D01*
X9249260Y-15523671D01*
X9249260Y-15452243D01*
X9234974Y-15423671D01*
X9220688Y-15409386D01*
X9192117Y-15395100D01*
X9134974Y-15395100D01*
X9106403Y-15409386D01*
X9092117Y-15423671D01*
X9077831Y-15452243D01*
X9392117Y-15580814D02*
X9449260Y-15580814D01*
X9477831Y-15566529D01*
X9492117Y-15552243D01*
X9520688Y-15509386D01*
X9534974Y-15452243D01*
X9534974Y-15337957D01*
X9520688Y-15309386D01*
X9506403Y-15295100D01*
X9477831Y-15280814D01*
X9420688Y-15280814D01*
X9392117Y-15295100D01*
X9377831Y-15309386D01*
X9363546Y-15337957D01*
X9363546Y-15409386D01*
X9377831Y-15437957D01*
X9392117Y-15452243D01*
X9420688Y-15466529D01*
X9477831Y-15466529D01*
X9506403Y-15452243D01*
X9520688Y-15437957D01*
X9534974Y-15409386D01*
X9634974Y-15280814D02*
X9820688Y-15280814D01*
X9720688Y-15395100D01*
X9763546Y-15395100D01*
X9792117Y-15409386D01*
X9806403Y-15423671D01*
X9820688Y-15452243D01*
X9820688Y-15523671D01*
X9806403Y-15552243D01*
X9792117Y-15566529D01*
X9763546Y-15580814D01*
X9677831Y-15580814D01*
X9649260Y-15566529D01*
X9634974Y-15552243D01*
X9934974Y-15280814D02*
X9934974Y-15337957D01*
X10049260Y-15280814D02*
X10049260Y-15337957D01*
X10492117Y-15695100D02*
X10477831Y-15680814D01*
X10449260Y-15637957D01*
X10434974Y-15609386D01*
X10420688Y-15566529D01*
X10406403Y-15495100D01*
X10406403Y-15437957D01*
X10420688Y-15366529D01*
X10434974Y-15323671D01*
X10449260Y-15295100D01*
X10477831Y-15252243D01*
X10492117Y-15237957D01*
X10734974Y-15380814D02*
X10734974Y-15580814D01*
X10663546Y-15266529D02*
X10592117Y-15480814D01*
X10777831Y-15480814D01*
X11120688Y-15580814D02*
X11120688Y-15280814D01*
X11249260Y-15580814D02*
X11249260Y-15423671D01*
X11234974Y-15395100D01*
X11206403Y-15380814D01*
X11163546Y-15380814D01*
X11134974Y-15395100D01*
X11120688Y-15409386D01*
X11434974Y-15580814D02*
X11406403Y-15566529D01*
X11392117Y-15552243D01*
X11377831Y-15523671D01*
X11377831Y-15437957D01*
X11392117Y-15409386D01*
X11406403Y-15395100D01*
X11434974Y-15380814D01*
X11477831Y-15380814D01*
X11506403Y-15395100D01*
X11520688Y-15409386D01*
X11534974Y-15437957D01*
X11534974Y-15523671D01*
X11520688Y-15552243D01*
X11506403Y-15566529D01*
X11477831Y-15580814D01*
X11434974Y-15580814D01*
X11706403Y-15580814D02*
X11677831Y-15566529D01*
X11663546Y-15537957D01*
X11663546Y-15280814D01*
X11934974Y-15566529D02*
X11906403Y-15580814D01*
X11849260Y-15580814D01*
X11820688Y-15566529D01*
X11806403Y-15537957D01*
X11806403Y-15423671D01*
X11820688Y-15395100D01*
X11849260Y-15380814D01*
X11906403Y-15380814D01*
X11934974Y-15395100D01*
X11949260Y-15423671D01*
X11949260Y-15452243D01*
X11806403Y-15480814D01*
X12063546Y-15566529D02*
X12092117Y-15580814D01*
X12149260Y-15580814D01*
X12177831Y-15566529D01*
X12192117Y-15537957D01*
X12192117Y-15523671D01*
X12177831Y-15495100D01*
X12149260Y-15480814D01*
X12106403Y-15480814D01*
X12077831Y-15466529D01*
X12063546Y-15437957D01*
X12063546Y-15423671D01*
X12077831Y-15395100D01*
X12106403Y-15380814D01*
X12149260Y-15380814D01*
X12177831Y-15395100D01*
X12292117Y-15695100D02*
X12306403Y-15680814D01*
X12334974Y-15637957D01*
X12349260Y-15609386D01*
X12363546Y-15566529D01*
X12377831Y-15495100D01*
X12377831Y-15437957D01*
X12363546Y-15366529D01*
X12349260Y-15323671D01*
X12334974Y-15295100D01*
X12306403Y-15252243D01*
X12292117Y-15237957D01*
X12834974Y-15695100D02*
X12820688Y-15680814D01*
X12792117Y-15637957D01*
X12777831Y-15609386D01*
X12763546Y-15566529D01*
X12749260Y-15495100D01*
X12749260Y-15437957D01*
X12763546Y-15366529D01*
X12777831Y-15323671D01*
X12792117Y-15295100D01*
X12820688Y-15252243D01*
X12834974Y-15237957D01*
X12949260Y-15380814D02*
X12949260Y-15580814D01*
X12949260Y-15409386D02*
X12963546Y-15395100D01*
X12992117Y-15380814D01*
X13034974Y-15380814D01*
X13063546Y-15395100D01*
X13077831Y-15423671D01*
X13077831Y-15580814D01*
X13263546Y-15580814D02*
X13234974Y-15566529D01*
X13220688Y-15552243D01*
X13206403Y-15523671D01*
X13206403Y-15437957D01*
X13220688Y-15409386D01*
X13234974Y-15395100D01*
X13263546Y-15380814D01*
X13306403Y-15380814D01*
X13334974Y-15395100D01*
X13349260Y-15409386D01*
X13363546Y-15437957D01*
X13363546Y-15523671D01*
X13349260Y-15552243D01*
X13334974Y-15566529D01*
X13306403Y-15580814D01*
X13263546Y-15580814D01*
X13449260Y-15380814D02*
X13563546Y-15380814D01*
X13492117Y-15280814D02*
X13492117Y-15537957D01*
X13506403Y-15566529D01*
X13534974Y-15580814D01*
X13563546Y-15580814D01*
X13892117Y-15380814D02*
X13892117Y-15680814D01*
X13892117Y-15395100D02*
X13920688Y-15380814D01*
X13977831Y-15380814D01*
X14006403Y-15395100D01*
X14020688Y-15409386D01*
X14034974Y-15437957D01*
X14034974Y-15523671D01*
X14020688Y-15552243D01*
X14006403Y-15566529D01*
X13977831Y-15580814D01*
X13920688Y-15580814D01*
X13892117Y-15566529D01*
X14206403Y-15580814D02*
X14177831Y-15566529D01*
X14163546Y-15537957D01*
X14163546Y-15280814D01*
X14449260Y-15580814D02*
X14449260Y-15423671D01*
X14434974Y-15395100D01*
X14406403Y-15380814D01*
X14349260Y-15380814D01*
X14320688Y-15395100D01*
X14449260Y-15566529D02*
X14420688Y-15580814D01*
X14349260Y-15580814D01*
X14320688Y-15566529D01*
X14306403Y-15537957D01*
X14306403Y-15509386D01*
X14320688Y-15480814D01*
X14349260Y-15466529D01*
X14420688Y-15466529D01*
X14449260Y-15452243D01*
X14549260Y-15380814D02*
X14663546Y-15380814D01*
X14592117Y-15280814D02*
X14592117Y-15537957D01*
X14606403Y-15566529D01*
X14634974Y-15580814D01*
X14663546Y-15580814D01*
X14877831Y-15566529D02*
X14849260Y-15580814D01*
X14792117Y-15580814D01*
X14763546Y-15566529D01*
X14749260Y-15537957D01*
X14749260Y-15423671D01*
X14763546Y-15395100D01*
X14792117Y-15380814D01*
X14849260Y-15380814D01*
X14877831Y-15395100D01*
X14892117Y-15423671D01*
X14892117Y-15452243D01*
X14749260Y-15480814D01*
X15149260Y-15580814D02*
X15149260Y-15280814D01*
X15149260Y-15566529D02*
X15120688Y-15580814D01*
X15063546Y-15580814D01*
X15034974Y-15566529D01*
X15020688Y-15552243D01*
X15006403Y-15523671D01*
X15006403Y-15437957D01*
X15020688Y-15409386D01*
X15034974Y-15395100D01*
X15063546Y-15380814D01*
X15120688Y-15380814D01*
X15149260Y-15395100D01*
X15263546Y-15695100D02*
X15277831Y-15680814D01*
X15306403Y-15637957D01*
X15320688Y-15609386D01*
X15334974Y-15566529D01*
X15349260Y-15495100D01*
X15349260Y-15437957D01*
X15334974Y-15366529D01*
X15320688Y-15323671D01*
X15306403Y-15295100D01*
X15277831Y-15252243D01*
X15263546Y-15237957D01*
M02*
